<svg xmlns:xlink="http://www.w3.org/1999/xlink" width="122" height="24" viewBox="0 0 122 24" fill="none" xmlns="http://www.w3.org/2000/svg">
<path d="M15.1231 5.74774C9.00711 4.28467 4.73304 7.76145 2.10406 3.85204C2.09619 3.83629 2.08832 3.82842 2.08045 3.8127C2.00961 3.70258 2.10406 3.54526 2.22999 3.57671C7.6454 4.86676 8.52698 4.06441 10.8018 4.33972C12.9033 4.59143 15.1231 5.74774 15.1231 5.74774Z" fill="#FFFFFF"></path>
<path d="M16.2015 6.73074C10.8175 5.93628 6.99991 9.95581 4.11904 6.86447C4.11117 6.85661 4.1033 6.84088 4.08756 6.83301C4.00885 6.74649 4.06395 6.58917 4.18201 6.59703C9.10154 6.95886 10.2586 6.0936 12.2816 6.00708C14.1706 5.92841 16.2015 6.73074 16.2015 6.73074Z" fill="#FFFFFF"></path>
<path d="M17.2013 7.99742C12.5021 7.36029 10.4871 11.5765 6.67744 8.99642C6.66957 8.98855 6.6617 8.98069 6.64595 8.96496C6.56725 8.89416 6.59086 8.68965 6.70105 8.68965C10.8649 8.69752 11.9512 7.72998 13.7065 7.51761C16.0837 7.23442 17.2013 7.99742 17.2013 7.99742Z" fill="#FFFFFF"></path>
<path d="M19.3183 9.38948C16.8625 9.64906 17.2483 11.6156 14.5563 11.1751C14.2022 11.12 14.2809 10.8683 14.4383 10.8211C16.6973 10.1761 16.6973 9.74345 17.5081 9.42094C18.2794 9.1299 19.3183 9.38948 19.3183 9.38948Z" fill="#FFFFFF"></path>
<path d="M18.2084 8.78393C14.6663 8.85473 13.7612 11.3955 10.778 10.5695C10.3214 10.4437 10.4789 10.0975 10.7229 10.0661C14.139 9.52335 14.3042 9.01992 15.5715 8.721C16.76 8.43783 18.2084 8.78393 18.2084 8.78393Z" fill="#FFFFFF"></path>
<path d="M16.1856 5.73988C16.1619 5.7792 16.1069 5.78707 16.0675 5.77134C15.3355 5.35444 14.6508 4.86674 13.8637 4.33186C13.1237 3.83629 11.5337 3.15981 8.22781 3.31714C6.65357 3.3958 4.26072 3.71831 1.78915 2.02711C1.19093 1.62594 0.584846 0.941599 0.269996 0.304462C0.238513 0.249392 0.222772 0.178594 0.214901 0.107796C0.207031 0.0369983 0.285737 -0.0180499 0.356595 0.00554226C6.47254 2.45974 8.21994 1.5001 12.069 2.38895C13.651 2.75866 15.611 5.05554 16.1778 5.62974C16.2092 5.65336 16.2092 5.70054 16.1856 5.73988Z" fill="#FFFFFF"></path>
<path d="M21.5069 19.1907C21.4359 19.4107 21.4516 19.6704 21.3101 19.8592C21.1368 20.111 20.7119 20.1346 20.5071 19.9064C20.3734 19.7885 20.3734 19.5997 20.3261 19.4502C20.0192 18.1051 19.7201 16.7599 19.421 15.4069C19.3896 15.3126 19.4209 15.2497 19.5154 15.2104C19.665 15.171 19.6807 15.3362 19.7278 15.4307C20.0663 16.351 20.3811 17.2791 20.7276 18.1994C20.8377 18.5142 21.2078 18.4118 21.4516 18.4906C21.7114 18.6556 21.554 18.9625 21.5069 19.1907Z" fill="#FFFFFF"></path>
<path d="M21.9078 15.4779C21.9395 15.5645 21.8921 15.6667 21.7977 15.6823C21.7427 15.6903 21.6954 15.6823 21.6797 15.6037C21.4513 15.1475 21.2545 14.6677 21.0184 14.2115C20.7115 13.9518 20.3888 13.6844 20.1999 13.3147C19.8615 12.7169 19.8929 11.9382 20.2707 11.364C20.3021 11.3246 20.3257 11.2774 20.3574 11.2381C20.4124 11.1595 20.5305 11.1752 20.5619 11.2696C20.5855 11.3404 20.6012 11.4111 20.6328 11.4741C21.0578 12.8034 21.4672 14.1485 21.9078 15.4779Z" fill="#FFFFFF"></path>
<path d="M21.9709 9.14582C21.9552 9.49978 21.8214 9.83016 21.7348 10.1684C21.7268 10.192 21.7191 10.2077 21.6954 10.2156C21.6404 10.2392 21.5853 10.1999 21.5853 10.1448C21.593 9.6807 21.7584 9.22448 21.6404 8.76823C21.4672 8.14683 21.0421 7.60408 21.0107 6.94333C20.9948 6.59722 21.0815 6.25899 21.1524 5.92075C20.9004 5.39373 20.7823 4.78803 20.9161 4.21382C20.9397 4.14302 20.9477 4.14302 20.987 4.19807C21.2311 4.55206 21.5537 4.90603 21.5537 5.37011C21.5223 6.03086 21.1602 6.69161 21.4042 7.35236C21.601 7.94232 22.0259 8.49293 21.9709 9.14582Z" fill="#FFFFFF"></path>
<path d="M24.0487 6.86463C24.033 7.72989 23.2774 8.42209 23.364 9.3031C23.364 9.64134 23.4505 9.98745 23.4111 10.3257C23.3561 10.6246 23.0176 10.6718 22.7737 10.7426C22.632 10.8055 22.4746 10.6403 22.5139 10.4987C22.5139 9.47615 22.5139 8.44571 22.5139 7.42313C22.5296 6.99836 22.632 6.54998 22.9232 6.22749C23.1042 6.0151 23.2931 5.80273 23.4898 5.59033C23.5292 5.54313 23.5528 5.48808 23.5451 5.43301C23.5292 5.24423 23.4898 5.07904 23.5765 4.85878C23.7102 4.58348 23.8836 4.41829 24.0644 4.23738C24.096 4.20592 24.1431 4.22165 24.1511 4.26097C24.2771 4.81946 24.1511 5.42515 23.8913 5.92857C23.9543 6.22749 24.0487 6.54212 24.0487 6.86463Z" fill="#FFFFFF"></path>
<path d="M33.9902 3.70257C32.9197 4.00147 32.4238 4.3633 31.9989 4.70154C31.9989 4.70154 32.967 4.3633 34.3601 4.21386C38.3116 3.78123 38.5398 5.25217 42.9635 3.54524C43.1129 3.52165 43.1523 3.63963 43.1129 3.70257C42.5226 4.72515 41.8693 5.85785 39.3978 5.9601C36.7058 6.07024 35.3048 4.99259 32.778 5.3151C31.1645 5.51961 30.3301 6.02304 29.8656 6.32982C35.3756 5.27576 34.919 7.69851 40.3186 6.40848C40.3816 6.39273 40.4526 6.37701 40.5156 6.38487C40.6571 6.4006 40.7124 6.57367 40.6257 6.66806C40.5864 6.71525 40.5313 6.76245 40.4919 6.80964C39.7836 7.57264 39.0357 8.40644 36.5168 8.21766C33.5573 7.9974 33.3685 6.16463 27.7169 7.56478C33.1952 7.54118 33.1008 9.33463 37.2254 8.79975C37.3671 8.78402 37.4536 8.95708 37.3435 9.05147C37.2804 9.10651 37.2095 9.15372 37.1544 9.20092C36.5327 9.6886 35.6274 10.2864 33.9272 9.94032C30.3852 9.20092 30.834 7.73783 26.2765 8.54017C29.8263 8.63456 29.5824 10.0111 33.2268 10.3494C33.2268 10.3494 33.2268 10.3494 33.2346 10.3494C33.4313 10.3729 33.4866 10.6325 33.3212 10.7427C33.1952 10.8292 33.0535 10.8921 32.9197 10.9472C30.2594 11.9776 29.0235 8.64243 25.757 9.3897C28.0947 9.59421 27.9057 10.3808 30.0153 10.955C30.2435 11.018 30.22 11.3247 29.968 11.3483C27.4651 11.6001 27.6855 9.91672 26.1505 9.85379C25.7413 9.83806 25.3634 10.0583 25.1587 10.4202C24.5527 11.4742 24.7966 12.4732 24.7572 13.0159C24.8989 13.5823 25.1116 14.133 25.1193 14.7306C25.1273 15.1476 25.0879 15.5802 24.954 15.9814C24.7022 16.8151 24.4503 17.6491 24.1906 18.4908C24.1355 18.6637 24.1432 18.8525 24.2063 19.0177C24.3007 19.2695 24.3953 19.5133 24.4346 19.7808C24.529 20.229 24.466 20.6932 24.3086 21.1258C23.9781 21.936 23.6474 22.7462 23.3168 23.5643C23.2538 23.7136 23.2067 23.8711 23.0964 23.9969C22.9312 24.0284 22.9469 23.8161 22.9626 23.7136C23.2854 20.6852 23.5923 17.6568 23.9071 14.6284L24.1592 13.9048C23.6633 14.3295 23.4428 14.9194 23.1201 15.4465C23.0807 15.5723 22.8919 15.5959 22.8525 15.4545C22.8839 14.9273 22.9547 14.4004 22.9706 13.8733C23.0177 13.3384 23.01 12.7957 23.191 12.2844C23.3955 11.7652 23.7891 11.3483 24.0962 10.9C24.5998 10.255 24.9776 9.52341 25.2374 8.75255C25.3948 8.2806 25.7256 7.8637 26.1505 7.60412C27.6225 6.67593 28.4803 5.87358 29.8736 4.81954C31.1566 3.85201 32.1484 3.09687 32.7152 2.86877C35.3048 1.80684 40.5076 2.94743 44.9628 0.0527327C45.0729 -0.010201 45.2146 0.115645 45.1281 0.296561C44.7109 1.35062 44.215 2.0271 43.0342 2.60919C39.6339 4.28466 35.7297 3.21487 33.9902 3.70257Z" fill="#FFFFFF"></path>
<path d="M23.6636 5.51951C23.6636 5.51951 23.3722 5.00822 22.6639 4.94529C22.1286 4.89811 21.8848 5.07902 21.8848 5.07902C21.8848 5.07902 22.5301 4.89024 23.034 5.3386C23.5376 5.78696 23.2621 6.1724 23.2621 6.1724C23.2621 6.1724 23.8131 5.84989 23.6636 5.51951Z" fill="#FFFFFF"></path>
<path d="M23.6319 5.44863C23.6319 5.44863 23.262 5.05534 22.5063 5.02386C22.5063 5.02386 22.9549 5.13398 23.0102 5.37783C23.1046 5.84194 22.6954 6.46335 22.6167 6.76227C22.5537 7.02971 23.6319 5.44863 23.6319 5.44863Z" fill="#FFFFFF"></path>
<path d="M90.1117 15.8806C89.0872 16.0497 88.0501 16.1281 87.012 16.115C85.0652 16.115 82.9775 14.833 82.9775 11.2533V9.15829C82.9775 5.3627 85.1661 4.28319 87.1501 4.28319C88.1417 4.27434 89.1322 4.34745 90.1117 4.50175C90.2498 4.51776 90.3773 4.57906 90.3773 4.73632V5.51728C90.3773 5.62657 90.3162 5.67457 90.1754 5.67457H90.1143C89.1952 5.59725 88.4782 5.56526 87.1527 5.56526C85.7052 5.56526 84.3958 6.34624 84.3958 9.15829V11.2533C84.3958 13.8336 85.5646 14.8491 87.0146 14.8491C87.963 14.8491 88.6083 14.7878 88.9748 14.7556V10.2858C88.9715 10.2463 88.9763 10.2066 88.9889 10.1691C89.0014 10.1316 89.0216 10.097 89.0479 10.0676C89.0743 10.0381 89.1064 10.0144 89.1423 9.99781C89.1782 9.98125 89.2169 9.97221 89.2563 9.97126H90.0984C90.1784 9.97538 90.2539 10.0104 90.3087 10.069C90.3637 10.1276 90.3938 10.2053 90.3932 10.2858V15.5367C90.3956 15.6185 90.3683 15.6985 90.3166 15.7617C90.2648 15.8249 90.1919 15.8671 90.1117 15.8806Z" fill="#B0ACAB"></path>
<path d="M96.1994 8.50249C95.4742 8.47363 94.7483 8.52638 94.0347 8.65975V15.6939C94.0386 15.7702 94.0132 15.8449 93.9638 15.9028C93.9143 15.9609 93.8448 15.9977 93.7691 16.0056H92.9591C92.8806 16.0016 92.807 15.9664 92.7541 15.9081C92.7014 15.8496 92.6739 15.7727 92.6776 15.6939V8.09733C92.6821 8.01884 92.7103 7.94357 92.758 7.8813C92.806 7.81903 92.8713 7.77264 92.9457 7.74816C93.8328 7.35636 94.9087 7.31104 96.1994 7.31104C96.4039 7.31104 96.5288 7.32702 96.5288 7.54559V8.26261C96.5288 8.4252 96.497 8.50249 96.1994 8.50249Z" fill="#B0ACAB"></path>
<path d="M101.368 16.1149C99.0784 16.1149 97.915 14.5985 97.915 12.3007V11.1119C97.915 8.81434 99.0836 7.30035 101.368 7.30035C103.652 7.30035 104.821 8.81434 104.821 11.1119V12.3007C104.821 14.5985 103.644 16.1149 101.368 16.1149ZM103.471 11.1119C103.471 9.51268 102.831 8.50248 101.368 8.50248C99.9044 8.50248 99.2802 9.50468 99.2802 11.1119V12.3007C99.2802 13.8999 99.9044 14.9128 101.368 14.9128C102.831 14.9128 103.471 13.9106 103.471 12.3007V11.1119Z" fill="#B0ACAB"></path>
<path d="M110.016 16.1151H109.867C108.805 16.1151 106.659 15.5207 106.659 12.4422V7.72165C106.655 7.68188 106.66 7.64186 106.673 7.60412C106.686 7.56636 106.707 7.53174 106.734 7.5024C106.761 7.47309 106.793 7.44971 106.83 7.43377C106.867 7.41783 106.906 7.40966 106.945 7.40979H107.756C107.795 7.41039 107.834 7.41909 107.869 7.43536C107.905 7.45162 107.937 7.4751 107.964 7.50435C107.99 7.5336 108.01 7.56799 108.023 7.60536C108.036 7.64275 108.04 7.68233 108.037 7.72165V12.4422C108.037 14.3081 108.834 14.913 109.875 14.913H110.016C111.057 14.913 111.854 14.3186 111.854 12.4422V7.72165C111.851 7.68255 111.855 7.64318 111.868 7.60598C111.88 7.56879 111.9 7.53452 111.926 7.50532C111.952 7.47611 111.984 7.45256 112.02 7.43615C112.055 7.41971 112.094 7.41076 112.133 7.40979H112.943C112.982 7.41039 113.021 7.41909 113.057 7.43536C113.093 7.45162 113.125 7.4751 113.151 7.50435C113.177 7.5336 113.198 7.56799 113.21 7.60536C113.223 7.64275 113.228 7.68233 113.224 7.72165V12.4422C113.224 15.5207 111.073 16.1151 110.016 16.1151Z" fill="#B0ACAB"></path>
<path d="M118.534 16.1152C117.923 16.107 117.314 16.05 116.712 15.9446V18.7727C116.712 18.8117 116.705 18.85 116.69 18.886C116.675 18.9218 116.653 18.9544 116.626 18.982C116.598 19.0095 116.566 19.0313 116.53 19.0461C116.494 19.0609 116.456 19.0686 116.417 19.0686H115.621C115.583 19.0682 115.545 19.0602 115.51 19.0452C115.475 19.03 115.444 19.008 115.418 18.9803C115.391 18.9529 115.371 18.9201 115.357 18.8845C115.344 18.849 115.338 18.8108 115.339 18.7727V8.01497C115.339 7.81241 115.387 7.71912 115.666 7.65781C116.604 7.42941 117.566 7.30871 118.532 7.29797C120.853 7.29797 121.929 8.81194 121.929 11.1575V12.2797C121.931 14.7399 120.808 16.1152 118.534 16.1152ZM120.558 11.1602C120.558 9.51829 120.077 8.45744 118.534 8.45744C117.924 8.46099 117.315 8.51268 116.712 8.61204V14.8012C117.315 14.9004 117.924 14.9532 118.534 14.9585C120.062 14.9585 120.558 13.9589 120.558 12.293V11.1602Z" fill="#B0ACAB"></path>
<path d="M63.0015 15.9873C62.3002 16.0966 60.3453 16.2352 59.6681 16.2352C56.6615 16.2352 54.6216 15.4782 54.6216 11.688V4.77915C54.6222 4.73913 54.6308 4.69966 54.647 4.66301C54.6631 4.62639 54.6861 4.59333 54.7151 4.5658C54.7439 4.53824 54.7781 4.51675 54.8153 4.50258C54.8528 4.48842 54.8925 4.48186 54.9323 4.48328H57.4716C57.5114 4.4815 57.5514 4.4878 57.5888 4.50183C57.6262 4.51587 57.6606 4.53732 57.6896 4.56494C57.7185 4.59256 57.7417 4.62577 57.7576 4.66256C57.7735 4.69938 57.7819 4.73902 57.7823 4.77915V11.688C57.7823 13.0954 58.2498 13.5538 59.3573 13.5538C59.8573 13.5522 60.3567 13.5201 60.8528 13.4579V4.77915C60.853 4.73902 60.8614 4.69938 60.8773 4.66256C60.8932 4.62577 60.9164 4.59256 60.9455 4.56494C60.9745 4.53732 61.0087 4.51587 61.0461 4.50183C61.0835 4.4878 61.1235 4.4815 61.1635 4.48328H63.6866C63.769 4.47963 63.8492 4.50865 63.9105 4.564C63.9716 4.61937 64.0086 4.69666 64.0133 4.77915V14.7826C64.0133 15.6569 63.7477 15.878 63.0015 15.9873Z" fill="#FFFFFF"></path>
<path d="M68.9032 16.0965H66.3481C66.2663 16.0946 66.1887 16.0605 66.1315 16.0016C66.0745 15.9429 66.0425 15.8641 66.0425 15.7822V4.77913C66.0433 4.73957 66.0517 4.70055 66.0674 4.66427C66.0831 4.628 66.1059 4.59517 66.1343 4.5677C66.1627 4.54023 66.196 4.51863 66.2328 4.50414C66.2693 4.48966 66.3087 4.48256 66.3481 4.48327H68.9032C68.943 4.48147 68.983 4.48777 69.0204 4.50181C69.0579 4.51584 69.0923 4.53731 69.1211 4.56493C69.1501 4.59253 69.1733 4.62575 69.1892 4.66256C69.2052 4.69935 69.2135 4.73901 69.214 4.77913V15.7822C69.2142 15.8233 69.2065 15.8641 69.191 15.9022C69.1755 15.9403 69.1527 15.9751 69.1239 16.0044C69.0948 16.0335 69.0607 16.0567 69.0226 16.0725C68.9847 16.0884 68.9441 16.0965 68.9032 16.0965Z" fill="#FFFFFF"></path>
<path d="M77.9364 15.9552C77.2278 16.1579 76.4926 16.2524 75.7558 16.2351C72.8899 16.2351 70.959 14.6732 70.959 11.0935V9.49418C70.959 5.90381 72.8899 4.34187 75.7558 4.34187C76.4926 4.32599 77.2274 4.42031 77.9364 4.62174C78.186 4.7017 78.2792 4.747 78.2792 4.96559V6.96734C78.2792 7.1699 78.1861 7.26319 78.0136 7.26319H77.9656C77.2418 7.17832 76.5138 7.13206 75.7851 7.1246C74.9431 7.1246 74.1913 7.49777 74.1913 9.48351V11.0828C74.1913 13.0525 74.9404 13.4444 75.7851 13.4444C76.5138 13.4362 77.2418 13.389 77.9656 13.3031H77.9949C78.1809 13.3031 78.2605 13.3964 78.2605 13.599V15.6113C78.2792 15.814 78.186 15.8779 77.9364 15.9552Z" fill="#FFFFFF"></path>
</svg>