<svg xmlns:xlink="http://www.w3.org/1999/xlink" xmlns="http://www.w3.org/2000/svg" width="104" height="16" viewBox="0 0 104 16" fill="none">
<path d="M97.4632 7.97447L99.1986 11.6917H95.7506L97.4632 7.97447ZM101.063 15.8736H103.507L98.0493 4.63197H96.8999L91.4577 15.8736H93.901L94.9209 13.5953H100.021L101.063 15.8736ZM86.0992 13.8426C84.105 13.8426 82.4685 12.3737 82.4685 10.2528C82.4685 8.10187 84.105 6.66295 86.0992 6.66295C87.2942 6.66295 88.3674 7.24002 89.0144 8.14684L90.8107 6.64796C89.6918 5.34394 88.0097 4.49707 86.0992 4.49707C82.7806 4.49707 80.0709 7.08263 80.0709 10.2528C80.0709 13.4229 82.773 15.9935 86.0992 15.9935C88.0097 15.9935 89.6918 15.1616 90.8107 13.8576L89.0144 12.3587C88.3674 13.273 87.2942 13.8426 86.0992 13.8426ZM78.13 4.63197H75.8009V15.8736H78.13V4.63197ZM72.2463 4.63197L67.5196 11.0771L62.7928 4.63197H61.6587V15.8736H63.9726V9.65321L67.5196 14.5321L71.0513 9.65321V15.8736H73.3804V4.63197H72.2463ZM53.6591 13.8651C51.6192 13.8651 49.9675 12.2538 49.9675 10.2603C49.9675 8.28174 51.6192 6.65545 53.6591 6.65545C55.6989 6.65545 57.3659 8.28174 57.3659 10.2603C57.3659 12.2538 55.6989 13.8651 53.6591 13.8651ZM53.6591 4.51955C50.31 4.51955 47.5851 7.09013 47.5851 10.2603C47.5851 13.4304 50.3024 16.001 53.6591 16.001C57.0309 16.001 59.733 13.4304 59.733 10.2603C59.733 7.09013 57.0233 4.51955 53.6591 4.51955ZM46.8392 4.63197H37.2335V6.61049H40.8641V15.8736H43.1933V6.60299H46.8392V4.63197ZM31.8902 7.97447L33.6256 11.6917H30.1776L31.8902 7.97447ZM35.4904 15.8736H37.9337L32.4763 4.63197H31.327L25.8847 15.8736H28.328L29.348 13.5953H34.4477L35.4904 15.8736ZM22.1703 4.63197V11.7142L15.3657 4.63197H14.2316V15.8736H16.5454V8.79135L23.3653 15.8736H24.4995V4.63197H22.1703ZM6.81796 7.97447L8.55338 11.6917H5.10538L6.81796 7.97447ZM10.4182 15.8736H12.8615L7.40405 4.63197H6.25471L0.8125 15.8736H3.25579L4.27573 13.5953H9.37542L10.4182 15.8736Z" fill="white"/>
<path fill-rule="evenodd" clip-rule="evenodd" d="M96.9531 3.26006L97.2956 0L99.2213 0.247315C99.1224 0.524607 98.1405 3.32001 98.1329 3.32751L96.9531 3.26006Z" fill="white"/>
</svg>