<svg xmlns:xlink="http://www.w3.org/1999/xlink" xmlns="http://www.w3.org/2000/svg" width="182" height="27" viewBox="0 0 182 27" fill="none">
<g clip-path="url(#clip0_7728_11767)">
<path fill-rule="evenodd" clip-rule="evenodd" d="M42.9545 6.36207C44.0597 6.4856 45.3123 6.54736 46.6806 6.45472C47.8068 6.38266 48.8699 6.20766 49.8488 5.99148C51.0171 5.72384 51.4066 4.28266 50.5224 3.49001C50.4067 3.38707 50.2909 3.28413 50.1751 3.19148C44.4176 -1.60558 35.7761 -0.915871 30.8817 4.71501L29.5134 6.27972L26.7557 9.45031L19.2825 18.0459L13.8723 24.2944C12.9987 25.293 13.8197 26.8371 15.1565 26.693C18.5141 26.343 21.7455 24.768 24.1137 22.0606L26.1557 19.7032L28.2292 17.315L35.7024 8.71942C37.5339 6.59883 40.3653 5.77531 42.9545 6.36207ZM24.1032 4.70472C23.6296 4.16942 23.1138 3.65472 22.5454 3.18119C16.7879 -1.60558 8.14642 -0.915871 3.26255 4.71501C-1.63185 10.3459 -0.926633 18.7974 4.83086 23.5738C5.39925 24.0474 5.9992 24.4694 6.60969 24.8297C7.85171 25.5709 9.47265 25.3032 10.42 24.2121L10.6515 23.9444C11.8409 22.5753 11.4936 20.4856 9.91472 19.5591C9.56738 19.3532 9.24109 19.1268 8.92532 18.8591C5.79922 16.2547 5.44135 11.643 8.16747 8.60619C10.7778 5.70325 15.3249 5.34295 18.3668 7.79295C18.7141 8.07089 19.0299 8.37972 19.3141 8.70913C20.514 10.0885 22.6823 10.1091 23.8822 8.72972L24.1137 8.46207C25.04 7.39148 25.0505 5.7856 24.1032 4.70472ZM50.954 7.94736C52.596 7.61795 54.2169 8.61648 54.6064 10.2121C55.6063 14.2371 54.6801 18.6532 51.7329 22.04C46.8385 27.6812 38.2075 28.3709 32.45 23.5841C31.9237 23.1518 31.4396 22.6782 30.9975 22.1841C29.987 21.0518 29.966 19.3635 30.9554 18.2209L31.0396 18.1282C32.2711 16.7077 34.5025 16.7282 35.755 18.1282C35.9866 18.3959 36.2497 18.643 36.5339 18.8797C39.7232 21.5356 44.5439 21.0621 47.1437 17.7885C48.5436 16.018 48.9752 13.7532 48.47 11.6944C48.0595 10.0062 49.1331 8.31795 50.8698 7.96795C50.9014 7.96795 50.9224 7.95766 50.954 7.94736Z" fill="white"/>
</g>
<path d="M72.6978 16.6078C72.2752 16.7135 71.7393 16.804 71.0902 16.8795C70.4411 16.955 69.8298 16.9927 69.2562 16.9927C67.5505 16.9927 66.2901 16.7588 65.4749 16.2909C64.6749 15.8079 64.139 15.023 63.8673 13.9362C63.6107 12.8495 63.4824 11.2118 63.4824 9.02322C63.4824 6.86481 63.6183 5.24223 63.89 4.15548C64.1617 3.05363 64.6976 2.26121 65.4976 1.77821C66.3127 1.29521 67.5656 1.05371 69.2562 1.05371C69.8449 1.05371 70.4487 1.09145 71.0676 1.16691C71.7016 1.24238 72.2223 1.34049 72.6299 1.46124V4.17812C71.3468 4.04228 70.494 3.97435 70.0713 3.97435C69.0449 3.97435 68.3354 4.08001 67.9429 4.29132C67.5656 4.48754 67.3241 4.90262 67.2184 5.53656C67.1127 6.1554 67.0599 7.31762 67.0599 9.02322C67.0599 10.7288 67.1127 11.8986 67.2184 12.5325C67.3241 13.1514 67.5656 13.5664 67.9429 13.7778C68.3354 13.974 69.0449 14.0721 70.0713 14.0721C70.9468 14.0721 71.8223 14.0042 72.6978 13.8683V16.6078Z" fill="white"/>
<path d="M78.0241 16.8116V11.4458L73.5409 1.23484H77.1637L79.7675 7.86854H79.9487L82.4846 1.23484H86.0168L81.5563 11.4458V16.8116H78.0241Z" fill="white"/>
<path d="M87.5046 1.23484H94.1388C95.5275 1.23484 96.5615 1.55935 97.2408 2.20838C97.9352 2.85741 98.2824 3.83851 98.2824 5.15167C98.2824 6.25351 98.0861 7.09122 97.6937 7.66478C97.3012 8.23834 96.6899 8.62323 95.8596 8.81945V8.91001C96.7653 9.12133 97.4144 9.50622 97.8069 10.0647C98.2144 10.6232 98.4182 11.491 98.4182 12.6684C98.4182 14.0268 98.0861 15.0607 97.422 15.7701C96.7578 16.4644 95.6634 16.8116 94.1388 16.8116H87.5046V1.23484ZM93.0067 7.50629C93.4897 7.50629 93.852 7.46101 94.0935 7.37045C94.3351 7.27989 94.5011 7.1214 94.5917 6.895C94.6822 6.6535 94.7275 6.29879 94.7275 5.83089C94.7275 5.33279 94.6822 4.97054 94.5917 4.74413C94.5162 4.51773 94.3577 4.36679 94.1162 4.29132C93.8898 4.20076 93.5199 4.15548 93.0067 4.15548H90.9915V7.50629H93.0067ZM93.0973 13.891C93.6105 13.891 93.9803 13.8457 94.2067 13.7551C94.4483 13.6645 94.6143 13.5061 94.7049 13.2797C94.7954 13.0382 94.8407 12.6608 94.8407 12.1476C94.8407 11.6344 94.7954 11.2571 94.7049 11.0156C94.6143 10.7741 94.4483 10.6081 94.2067 10.5175C93.9652 10.4269 93.5954 10.3817 93.0973 10.3817H90.9915V13.891H93.0973Z" fill="white"/>
<path d="M100.816 16.8116V1.23484H110.19V4.15548H104.325V7.48365H109.352V10.4043H104.325V13.891H110.19V16.8116H100.816Z" fill="white"/>
<path d="M120.275 16.8116L118.464 11.3552H116.199V16.8116H112.69V1.23484H119.098C120.381 1.23484 121.347 1.43105 121.996 1.82349C122.645 2.20084 123.075 2.74421 123.286 3.45362C123.513 4.16303 123.626 5.10639 123.626 6.2837C123.626 7.38554 123.505 8.3289 123.264 9.11378C123.022 9.88356 122.532 10.4496 121.792 10.8118L123.966 16.8116H120.275ZM117.965 8.4572C118.63 8.4572 119.098 8.40437 119.369 8.29872C119.656 8.19306 119.845 8.00439 119.935 7.7327C120.026 7.44592 120.071 6.97046 120.071 6.30634C120.071 5.62712 120.026 5.15167 119.935 4.87998C119.86 4.5932 119.679 4.40453 119.392 4.31396C119.12 4.20831 118.652 4.15548 117.988 4.15548H116.199V8.4572H117.965Z" fill="white"/>
<path d="M131.02 1.23484H137.337C138.59 1.23484 139.534 1.4386 140.168 1.84613C140.802 2.23857 141.224 2.80459 141.436 3.54418C141.662 4.28378 141.775 5.27242 141.775 6.51011C141.775 7.68742 141.67 8.64587 141.458 9.38547C141.262 10.1251 140.839 10.7137 140.19 11.1514C139.541 11.5892 138.583 11.808 137.315 11.808H134.53V16.8116H131.02V1.23484ZM136.115 8.88737C136.779 8.88737 137.254 8.83454 137.541 8.72889C137.828 8.60814 138.017 8.39683 138.107 8.09495C138.198 7.77798 138.243 7.2497 138.243 6.51011C138.243 5.77051 138.198 5.24978 138.107 4.9479C138.017 4.63093 137.828 4.41962 137.541 4.31396C137.254 4.20831 136.779 4.15548 136.115 4.15548H134.53V8.88737H136.115Z" fill="white"/>
<path d="M151.538 16.8116L150.745 13.6872H146.149L145.402 16.8116H141.869L146.036 1.23484H150.972L155.115 16.8116H151.538ZM148.504 4.40453H148.368L146.851 10.7892H150.043L148.504 4.40453Z" fill="white"/>
<path d="M164.343 16.8116L162.532 11.3552H160.268V16.8116H156.758V1.23484H163.166C164.449 1.23484 165.415 1.43105 166.064 1.82349C166.713 2.20084 167.143 2.74421 167.355 3.45362C167.581 4.16303 167.694 5.10639 167.694 6.2837C167.694 7.38554 167.574 8.3289 167.332 9.11378C167.091 9.88356 166.6 10.4496 165.86 10.8118L168.034 16.8116H164.343ZM162.034 8.4572C162.698 8.4572 163.166 8.40437 163.438 8.29872C163.724 8.19306 163.913 8.00439 164.004 7.7327C164.094 7.44592 164.14 6.97046 164.14 6.30634C164.14 5.62712 164.094 5.15167 164.004 4.87998C163.928 4.5932 163.747 4.40453 163.46 4.31396C163.189 4.20831 162.721 4.15548 162.056 4.15548H160.268V8.4572H162.034Z" fill="white"/>
<path d="M178.105 16.8116L174.618 10.3817H173.667V16.8116H170.158V1.23484H173.667V7.41573H174.618L178.173 1.23484H181.954L177.426 8.66097L182 16.8116H178.105Z" fill="white"/>
<path d="M63.4824 21.2834H63.9063V23.2616C63.9063 23.3457 63.9047 23.4382 63.9013 23.5391C63.9013 23.6367 63.8996 23.7342 63.8963 23.8318C63.8929 23.9294 63.8878 24.0168 63.8811 24.0942C63.8777 24.1682 63.8744 24.2254 63.871 24.2658H63.8912L65.8746 21.2834H66.3792V24.8865H65.9553V22.9285C65.9553 22.8377 65.957 22.7401 65.9604 22.6358C65.9637 22.5282 65.9671 22.4255 65.9705 22.328C65.9772 22.2271 65.9822 22.1379 65.9856 22.0605C65.989 21.9831 65.9923 21.926 65.9957 21.8889H65.9755L63.9871 24.8865H63.4824V21.2834Z" fill="white"/>
<path d="M70.1067 24.8865H69.6524V23.206H67.8053V24.8865H67.3511V21.2834H67.8053V22.8074H69.6524V21.2834H70.1067V24.8865Z" fill="white"/>
<path d="M73.8474 24.8865H73.3931V23.206H71.546V24.8865H71.0918V21.2834H71.546V22.8074H73.3931V21.2834H73.8474V24.8865Z" fill="white"/>
<path d="M77.9766 23.0799C77.9766 23.3591 77.9413 23.6131 77.8707 23.8419C77.8 24.0673 77.694 24.2624 77.5527 24.4273C77.4148 24.5921 77.2415 24.7183 77.0329 24.8057C76.8277 24.8932 76.5888 24.937 76.3163 24.937C76.0337 24.937 75.788 24.8932 75.5794 24.8057C75.3708 24.7149 75.1976 24.5888 75.0596 24.4273C74.9217 24.2624 74.8191 24.0656 74.7518 23.8368C74.6845 23.6081 74.6508 23.3541 74.6508 23.0748C74.6508 22.7048 74.7114 22.3818 74.8325 22.1059C74.9536 21.8301 75.137 21.6148 75.3826 21.46C75.6316 21.3052 75.9445 21.2279 76.3213 21.2279C76.6813 21.2279 76.9841 21.3052 77.2297 21.46C77.4753 21.6114 77.6604 21.8267 77.7849 22.1059C77.9127 22.3818 77.9766 22.7065 77.9766 23.0799ZM75.1303 23.0799C75.1303 23.3827 75.1723 23.6434 75.2565 23.8621C75.3406 24.0808 75.4701 24.249 75.6451 24.3667C75.8234 24.4845 76.0471 24.5433 76.3163 24.5433C76.5888 24.5433 76.8108 24.4845 76.9824 24.3667C77.1574 24.249 77.2869 24.0808 77.371 23.8621C77.4551 23.6434 77.4972 23.3827 77.4972 23.0799C77.4972 22.6257 77.403 22.2708 77.2146 22.0151C77.0262 21.7561 76.7284 21.6265 76.3213 21.6265C76.0488 21.6265 75.8234 21.6854 75.6451 21.8032C75.4701 21.9175 75.3406 22.0841 75.2565 22.3027C75.1723 22.5181 75.1303 22.7771 75.1303 23.0799Z" fill="white"/>
<path d="M79.8048 21.2834C80.1043 21.2834 80.3549 21.312 80.5568 21.3692C80.762 21.4264 80.9151 21.5206 81.016 21.6518C81.1203 21.783 81.1725 21.9579 81.1725 22.1766C81.1725 22.3179 81.1456 22.444 81.0917 22.5551C81.0413 22.6627 80.9639 22.7536 80.8596 22.8276C80.7587 22.8982 80.6342 22.947 80.4861 22.9739V22.9991C80.6375 23.0227 80.7738 23.0664 80.8949 23.1304C81.0194 23.1943 81.117 23.2851 81.1876 23.4029C81.2583 23.5206 81.2936 23.6737 81.2936 23.8621C81.2936 24.0808 81.2431 24.2675 81.1422 24.4222C81.0413 24.5736 80.8966 24.6897 80.7082 24.7704C80.5231 24.8478 80.3011 24.8865 80.042 24.8865H78.7753V21.2834H79.8048ZM79.8957 22.8175C80.2052 22.8175 80.4172 22.7687 80.5316 22.6711C80.6459 22.5702 80.7031 22.4222 80.7031 22.2271C80.7031 22.0286 80.6325 21.8873 80.4912 21.8032C80.3532 21.7157 80.1312 21.672 79.825 21.672H79.2295V22.8175H79.8957ZM79.2295 23.196V24.503H79.9562C80.2759 24.503 80.4979 24.4407 80.6224 24.3162C80.7469 24.1918 80.8091 24.0286 80.8091 23.8268C80.8091 23.6989 80.7805 23.5879 80.7233 23.4937C80.6695 23.3995 80.577 23.3272 80.4458 23.2767C80.3179 23.2229 80.143 23.196 79.9209 23.196H79.2295Z" fill="white"/>
<path d="M84.3186 24.8865L83.8846 23.7712H82.4563L82.0274 24.8865H81.5681L82.9761 21.2682H83.3849L84.7879 24.8865H84.3186ZM83.3446 22.2775C83.3345 22.2506 83.3176 22.2018 83.2941 22.1312C83.2705 22.0605 83.247 21.9882 83.2234 21.9142C83.2032 21.8368 83.1864 21.7779 83.173 21.7376C83.1561 21.8048 83.1376 21.8738 83.1175 21.9445C83.1006 22.0117 83.0821 22.074 83.0619 22.1312C83.0451 22.1884 83.03 22.2371 83.0165 22.2775L82.6077 23.3675H83.7483L83.3446 22.2775Z" fill="white"/>
<path d="M88.425 24.4878V25.8352H87.9909V24.8865H85.2808V21.2834H85.7351V24.4828H87.5367V21.2834H87.9859V24.4878H88.425Z" fill="white"/>
<path d="M89.0266 21.2834H89.4505V23.2616C89.4505 23.3457 89.4488 23.4382 89.4455 23.5391C89.4455 23.6367 89.4438 23.7342 89.4404 23.8318C89.4371 23.9294 89.432 24.0168 89.4253 24.0942C89.4219 24.1682 89.4186 24.2254 89.4152 24.2658H89.4354L91.4187 21.2834H91.9234V24.8865H91.4995V22.9285C91.4995 22.8377 91.5012 22.7401 91.5045 22.6358C91.5079 22.5282 91.5113 22.4255 91.5146 22.328C91.5214 22.2271 91.5264 22.1379 91.5298 22.0605C91.5331 21.9831 91.5365 21.926 91.5399 21.8889H91.5197L89.5313 24.8865H89.0266V21.2834Z" fill="white"/>
<path d="M96.0394 23.0799C96.0394 23.3591 96.0041 23.6131 95.9334 23.8419C95.8628 24.0673 95.7568 24.2624 95.6155 24.4273C95.4775 24.5921 95.3043 24.7183 95.0957 24.8057C94.8904 24.8932 94.6516 24.937 94.379 24.937C94.0964 24.937 93.8508 24.8932 93.6422 24.8057C93.4336 24.7149 93.2604 24.5888 93.1224 24.4273C92.9845 24.2624 92.8818 24.0656 92.8146 23.8368C92.7473 23.6081 92.7136 23.3541 92.7136 23.0748C92.7136 22.7048 92.7742 22.3818 92.8953 22.1059C93.0164 21.8301 93.1998 21.6148 93.4454 21.46C93.6944 21.3052 94.0073 21.2279 94.3841 21.2279C94.7441 21.2279 95.0469 21.3052 95.2925 21.46C95.5381 21.6114 95.7232 21.8267 95.8476 22.1059C95.9755 22.3818 96.0394 22.7065 96.0394 23.0799ZM93.1931 23.0799C93.1931 23.3827 93.2351 23.6434 93.3192 23.8621C93.4033 24.0808 93.5329 24.249 93.7078 24.3667C93.8861 24.4845 94.1099 24.5433 94.379 24.5433C94.6516 24.5433 94.8736 24.4845 95.0452 24.3667C95.2202 24.249 95.3497 24.0808 95.4338 23.8621C95.5179 23.6434 95.56 23.3827 95.56 23.0799C95.56 22.6257 95.4658 22.2708 95.2774 22.0151C95.0889 21.7561 94.7912 21.6265 94.3841 21.6265C94.1116 21.6265 93.8861 21.6854 93.7078 21.8032C93.5329 21.9175 93.4033 22.0841 93.3192 22.3027C93.2351 22.5181 93.1931 22.7771 93.1931 23.0799Z" fill="white"/>
<path d="M99.5936 24.8865H99.1394V23.206H97.2923V24.8865H96.8381V21.2834H97.2923V22.8074H99.1394V21.2834H99.5936V24.8865Z" fill="white"/>
<path d="M103.334 24.8865H102.88V23.206H101.033V24.8865H100.579V21.2834H101.033V22.8074H102.88V21.2834H103.334V24.8865Z" fill="white"/>
<path d="M104.319 24.8865V21.2834H104.774V22.8074H105.329C105.665 22.8074 105.929 22.8528 106.121 22.9436C106.316 23.0345 106.454 23.1573 106.535 23.312C106.619 23.4668 106.661 23.64 106.661 23.8318C106.661 24.0437 106.616 24.2288 106.525 24.3869C106.437 24.545 106.299 24.6678 106.111 24.7553C105.923 24.8428 105.68 24.8865 105.384 24.8865H104.319ZM105.344 24.503C105.633 24.503 105.847 24.4475 105.985 24.3364C106.123 24.2254 106.192 24.0572 106.192 23.8318C106.192 23.677 106.158 23.5542 106.091 23.4634C106.027 23.3726 105.928 23.307 105.793 23.2666C105.659 23.2262 105.487 23.206 105.278 23.206H104.774V24.503H105.344ZM107.216 24.8865V21.2834H107.67V24.8865H107.216Z" fill="white"/>
<path d="M111.109 20.1631C111.096 20.3313 111.054 20.4726 110.983 20.587C110.916 20.7014 110.815 20.7872 110.68 20.8443C110.546 20.9015 110.371 20.9301 110.155 20.9301C109.937 20.9301 109.76 20.9015 109.626 20.8443C109.494 20.7872 109.398 20.703 109.338 20.592C109.277 20.4776 109.24 20.3347 109.227 20.1631H109.641C109.658 20.3448 109.705 20.4676 109.782 20.5315C109.863 20.592 109.991 20.6223 110.166 20.6223C110.32 20.6223 110.441 20.5903 110.529 20.5264C110.62 20.4591 110.674 20.338 110.69 20.1631H111.109ZM108.657 21.2834H109.081V23.2616C109.081 23.3457 109.079 23.4382 109.075 23.5391C109.075 23.6367 109.074 23.7342 109.07 23.8318C109.067 23.9294 109.062 24.0168 109.055 24.0942C109.052 24.1682 109.049 24.2254 109.045 24.2658H109.065L111.049 21.2834H111.553V24.8865H111.13V22.9285C111.13 22.8377 111.131 22.7401 111.135 22.6358C111.138 22.5282 111.141 22.4255 111.145 22.328C111.151 22.2271 111.156 22.1379 111.16 22.0605C111.163 21.9831 111.167 21.926 111.17 21.8889H111.15L109.161 24.8865H108.657V21.2834Z" fill="white"/>
<path d="M114.229 21.3692V24.8865H113.77V21.3692H114.229Z" fill="white"/>
<path d="M117.177 21.3692V21.7426H116.218V24.8865H115.759V21.7426H114.795V21.3692H117.177Z" fill="white"/>
<path d="M119.66 22.8427V23.2313H117.646V22.8427H119.66Z" fill="white"/>
<path d="M123.252 24.8865H122.707L121.077 23.0597V24.8865H120.623V21.2834H121.077V23.0294L122.667 21.2834H123.181L121.617 23.0345L123.252 24.8865Z" fill="white"/>
<path d="M126.337 24.8865H125.882V21.682H124.742C124.718 21.8671 124.693 22.0622 124.666 22.2674C124.639 22.4693 124.611 22.6695 124.58 22.8679C124.553 23.0664 124.526 23.2531 124.499 23.4281C124.473 23.603 124.446 23.7561 124.419 23.8873C124.375 24.1127 124.321 24.3045 124.257 24.4626C124.193 24.6207 124.108 24.7401 124 24.8209C123.896 24.9016 123.758 24.942 123.586 24.942C123.529 24.942 123.47 24.9353 123.409 24.9218C123.352 24.9117 123.302 24.8983 123.258 24.8814V24.503C123.295 24.5198 123.337 24.5349 123.384 24.5484C123.431 24.5585 123.482 24.5635 123.536 24.5635C123.636 24.5635 123.716 24.5232 123.773 24.4424C123.833 24.3583 123.88 24.2557 123.914 24.1346C123.948 24.0101 123.976 23.8873 124 23.7662C124.02 23.6686 124.044 23.5391 124.071 23.3776C124.097 23.2128 124.126 23.021 124.156 22.8023C124.19 22.5837 124.224 22.3465 124.257 22.0908C124.294 21.8318 124.33 21.5626 124.363 21.2834H126.337V24.8865Z" fill="white"/>
<path d="M129.577 24.8865L129.143 23.7712H127.714L127.285 24.8865H126.826L128.234 21.2682H128.643L130.046 24.8865H129.577ZM128.603 22.2775C128.592 22.2506 128.576 22.2018 128.552 22.1312C128.529 22.0605 128.505 21.9882 128.481 21.9142C128.461 21.8368 128.444 21.7779 128.431 21.7376C128.414 21.8048 128.396 21.8738 128.375 21.9445C128.359 22.0117 128.34 22.074 128.32 22.1312C128.303 22.1884 128.288 22.2371 128.274 22.2775L127.866 23.3675H129.006L128.603 22.2775Z" fill="white"/>
<path d="M132.083 21.6316C131.891 21.6316 131.718 21.6652 131.563 21.7325C131.409 21.7964 131.277 21.8923 131.17 22.0202C131.062 22.1446 130.98 22.2977 130.922 22.4794C130.865 22.6577 130.837 22.8595 130.837 23.0849C130.837 23.381 130.882 23.6384 130.973 23.857C131.067 24.0757 131.205 24.2439 131.387 24.3617C131.572 24.4794 131.802 24.5383 132.078 24.5383C132.236 24.5383 132.386 24.5248 132.527 24.4979C132.669 24.471 132.806 24.4374 132.941 24.397V24.7906C132.806 24.8411 132.667 24.8781 132.522 24.9016C132.381 24.9252 132.211 24.937 132.012 24.937C131.646 24.937 131.34 24.8613 131.094 24.7099C130.848 24.5585 130.663 24.3432 130.539 24.0639C130.418 23.7847 130.357 23.4567 130.357 23.0799C130.357 22.8074 130.394 22.5584 130.468 22.333C130.546 22.1076 130.657 21.9125 130.801 21.7476C130.949 21.5828 131.131 21.4566 131.346 21.3692C131.562 21.2783 131.809 21.2329 132.088 21.2329C132.273 21.2329 132.452 21.2514 132.623 21.2884C132.795 21.3254 132.948 21.3776 133.082 21.4449L132.901 21.8284C132.79 21.7779 132.665 21.7325 132.527 21.6921C132.393 21.6518 132.245 21.6316 132.083 21.6316Z" fill="white"/>
<path d="M134.868 24.8865H134.414V21.682H133.288V21.2834H135.988V21.682H134.868V24.8865Z" fill="white"/>
<path d="M138.545 24.8865H136.532V21.2834H138.545V21.682H136.986V22.8074H138.455V23.201H136.986V24.4878H138.545V24.8865Z" fill="white"/>
<path d="M140.29 21.2834C140.761 21.2834 141.104 21.3759 141.319 21.5609C141.535 21.746 141.642 22.0067 141.642 22.3431C141.642 22.4911 141.617 22.6341 141.567 22.7721C141.52 22.9066 141.441 23.0277 141.33 23.1354C141.219 23.2431 141.07 23.3288 140.885 23.3928C140.7 23.4533 140.473 23.4836 140.204 23.4836H139.79V24.8865H139.336V21.2834H140.29ZM140.25 21.672H139.79V23.095H140.154C140.382 23.095 140.573 23.0715 140.724 23.0244C140.875 22.9739 140.988 22.8949 141.062 22.7872C141.136 22.6795 141.173 22.5382 141.173 22.3633C141.173 22.1312 141.099 21.9579 140.951 21.8435C140.803 21.7291 140.569 21.672 140.25 21.672Z" fill="white"/>
<path d="M144.767 21.2834C145.066 21.2834 145.317 21.312 145.519 21.3692C145.724 21.4264 145.877 21.5206 145.978 21.6518C146.082 21.783 146.134 21.9579 146.134 22.1766C146.134 22.3179 146.107 22.444 146.054 22.5551C146.003 22.6627 145.926 22.7536 145.822 22.8276C145.721 22.8982 145.596 22.947 145.448 22.9739V22.9991C145.599 23.0227 145.736 23.0664 145.857 23.1304C145.981 23.1943 146.079 23.2851 146.15 23.4029C146.22 23.5206 146.256 23.6737 146.256 23.8621C146.256 24.0808 146.205 24.2675 146.104 24.4222C146.003 24.5736 145.859 24.6897 145.67 24.7704C145.485 24.8478 145.263 24.8865 145.004 24.8865H143.737V21.2834H144.767ZM144.858 22.8175C145.167 22.8175 145.379 22.7687 145.493 22.6711C145.608 22.5702 145.665 22.4222 145.665 22.2271C145.665 22.0286 145.594 21.8873 145.453 21.8032C145.315 21.7157 145.093 21.672 144.787 21.672H144.191V22.8175H144.858ZM144.191 23.196V24.503H144.918C145.238 24.503 145.46 24.4407 145.584 24.3162C145.709 24.1918 145.771 24.0286 145.771 23.8268C145.771 23.6989 145.742 23.5879 145.685 23.4937C145.631 23.3995 145.539 23.3272 145.408 23.2767C145.28 23.2229 145.105 23.196 144.883 23.196H144.191Z" fill="white"/>
<path d="M149.874 23.8621C149.766 24.1009 149.657 24.3011 149.546 24.4626C149.438 24.6207 149.31 24.7401 149.162 24.8209C149.014 24.8983 148.826 24.937 148.597 24.937C148.503 24.937 148.414 24.9302 148.33 24.9168C148.249 24.9033 148.175 24.8848 148.108 24.8613V24.4121C148.175 24.4424 148.247 24.4676 148.325 24.4878C148.402 24.5046 148.483 24.5131 148.567 24.5131C148.691 24.5131 148.797 24.4962 148.885 24.4626C148.976 24.4256 149.055 24.3667 149.122 24.286C149.193 24.2052 149.258 24.0976 149.319 23.963L147.931 21.2834H148.431L149.435 23.2666C149.448 23.2902 149.462 23.3188 149.475 23.3524C149.489 23.3827 149.502 23.4146 149.516 23.4483C149.533 23.4819 149.546 23.5139 149.556 23.5442H149.576C149.586 23.5206 149.596 23.4937 149.607 23.4634C149.62 23.4298 149.632 23.3978 149.642 23.3675C149.655 23.3339 149.667 23.3053 149.677 23.2817L150.545 21.2834H151.025L149.874 23.8621Z" fill="white"/>
<path d="M153.644 22.1261C153.644 22.3717 153.567 22.5668 153.412 22.7115C153.257 22.8528 153.05 22.9436 152.791 22.984V23.0042C153.094 23.0446 153.324 23.1388 153.483 23.2868C153.641 23.4348 153.72 23.6283 153.72 23.8671C153.72 24.0791 153.666 24.2658 153.558 24.4273C153.451 24.5854 153.289 24.7099 153.074 24.8007C152.858 24.8915 152.589 24.937 152.266 24.937C152.071 24.937 151.884 24.9218 151.706 24.8915C151.531 24.8646 151.368 24.8142 151.217 24.7401V24.3263C151.321 24.3768 151.432 24.4205 151.55 24.4575C151.671 24.4912 151.792 24.5181 151.913 24.5383C152.034 24.5551 152.15 24.5635 152.261 24.5635C152.584 24.5635 152.828 24.503 152.993 24.3819C153.161 24.2607 153.245 24.0892 153.245 23.8671C153.245 23.6384 153.148 23.4718 152.953 23.3675C152.757 23.2632 152.485 23.2111 152.135 23.2111H151.62V22.8326H152.11C152.349 22.8326 152.546 22.8057 152.7 22.7519C152.858 22.698 152.976 22.6224 153.054 22.5248C153.134 22.4239 153.175 22.3061 153.175 22.1715C153.175 21.9899 153.107 21.8503 152.973 21.7527C152.838 21.6551 152.663 21.6063 152.448 21.6063C152.223 21.6063 152.034 21.6349 151.883 21.6921C151.735 21.7493 151.59 21.8233 151.449 21.9142L151.232 21.6063C151.326 21.5357 151.434 21.4735 151.555 21.4196C151.679 21.3624 151.817 21.317 151.969 21.2834C152.12 21.2497 152.281 21.2329 152.453 21.2329C152.712 21.2329 152.929 21.2716 153.104 21.349C153.282 21.4264 153.417 21.5323 153.508 21.6669C153.599 21.7981 153.644 21.9512 153.644 22.1261Z" fill="white"/>
<path d="M154.481 24.8865V21.2834H156.621V21.682H154.935V22.8074H155.47C155.83 22.8074 156.11 22.8528 156.308 22.9436C156.507 23.0311 156.645 23.1522 156.722 23.307C156.799 23.4584 156.838 23.6333 156.838 23.8318C156.838 24.0505 156.794 24.2389 156.707 24.397C156.623 24.5551 156.485 24.6762 156.293 24.7603C156.101 24.8444 155.849 24.8865 155.536 24.8865H154.481ZM155.491 24.4979C155.814 24.4979 156.041 24.4441 156.172 24.3364C156.303 24.2254 156.369 24.0572 156.369 23.8318C156.369 23.677 156.337 23.5542 156.273 23.4634C156.212 23.3692 156.111 23.3019 155.97 23.2616C155.832 23.2212 155.647 23.201 155.415 23.201H154.935V24.4979H155.491Z" fill="white"/>
<path d="M159.6 24.8865H157.586V21.2834H159.6V21.682H158.04V22.8074H159.509V23.201H158.04V24.4878H159.6V24.8865Z" fill="white"/>
<path d="M163.02 24.8865H162.475L160.845 23.0597V24.8865H160.39V21.2834H160.845V23.0294L162.434 21.2834H162.949L161.385 23.0345L163.02 24.8865Z" fill="white"/>
<path d="M163.515 21.2834H163.939V23.2616C163.939 23.3457 163.937 23.4382 163.934 23.5391C163.934 23.6367 163.932 23.7342 163.929 23.8318C163.926 23.9294 163.921 24.0168 163.914 24.0942C163.911 24.1682 163.907 24.2254 163.904 24.2658H163.924L165.907 21.2834H166.412V24.8865H165.988V22.9285C165.988 22.8377 165.99 22.7401 165.993 22.6358C165.997 22.5282 166 22.4255 166.003 22.328C166.01 22.2271 166.015 22.1379 166.018 22.0605C166.022 21.9831 166.025 21.926 166.028 21.8889H166.008L164.02 24.8865H163.515V21.2834Z" fill="white"/>
<path d="M168.928 21.6316C168.736 21.6316 168.563 21.6652 168.408 21.7325C168.254 21.7964 168.122 21.8923 168.015 22.0202C167.907 22.1446 167.825 22.2977 167.767 22.4794C167.71 22.6577 167.682 22.8595 167.682 23.0849C167.682 23.381 167.727 23.6384 167.818 23.857C167.912 24.0757 168.05 24.2439 168.232 24.3617C168.417 24.4794 168.647 24.5383 168.923 24.5383C169.081 24.5383 169.231 24.5248 169.372 24.4979C169.514 24.471 169.652 24.4374 169.786 24.397V24.7906C169.652 24.8411 169.512 24.8781 169.367 24.9016C169.226 24.9252 169.056 24.937 168.858 24.937C168.491 24.937 168.185 24.8613 167.939 24.7099C167.693 24.5585 167.508 24.3432 167.384 24.0639C167.263 23.7847 167.202 23.4567 167.202 23.0799C167.202 22.8074 167.239 22.5584 167.313 22.333C167.391 22.1076 167.502 21.9125 167.646 21.7476C167.794 21.5828 167.976 21.4566 168.191 21.3692C168.407 21.2783 168.654 21.2329 168.933 21.2329C169.118 21.2329 169.297 21.2514 169.468 21.2884C169.64 21.3254 169.793 21.3776 169.927 21.4449L169.746 21.8284C169.635 21.7779 169.51 21.7325 169.372 21.6921C169.238 21.6518 169.09 21.6316 168.928 21.6316Z" fill="white"/>
<path d="M171.713 24.8865H171.259V21.682H170.134V21.2834H172.834V21.682H171.713V24.8865Z" fill="white"/>
<path d="M175.283 24.8865L174.849 23.7712H173.421L172.992 24.8865H172.533L173.941 21.2682H174.349L175.752 24.8865H175.283ZM174.309 22.2775C174.299 22.2506 174.282 22.2018 174.259 22.1312C174.235 22.0605 174.211 21.9882 174.188 21.9142C174.168 21.8368 174.151 21.7779 174.137 21.7376C174.121 21.8048 174.102 21.8738 174.082 21.9445C174.065 22.0117 174.047 22.074 174.026 22.1312C174.01 22.1884 173.994 22.2371 173.981 22.2775L173.572 23.3675H174.713L174.309 22.2775Z" fill="white"/>
<path d="M179.001 24.8865H178.547V23.206H176.699V24.8865H176.245V21.2834H176.699V22.8074H178.547V21.2834H179.001V24.8865Z" fill="white"/>
<path d="M182 24.8865H179.986V21.2834H182V21.682H180.44V22.8074H181.909V23.201H180.44V24.4878H182V24.8865Z" fill="white"/>
<defs>
<clipPath id="clip0_7728_11767">
<rect width="54.9962" height="26.7647" fill="white"/>
</clipPath>
</defs>
</svg>