<svg xmlns:xlink="http://www.w3.org/1999/xlink" xmlns="http://www.w3.org/2000/svg" width="112" height="27" viewBox="0 0 112 27" fill="none">
<path fill-rule="evenodd" clip-rule="evenodd" d="M49.4294 11.3974H46.0346V9.72981H49.2072V8.45996H46.0346V7.00652H49.3605V5.73666H44.3027V12.675H49.4294V11.3974Z" fill="white"/>
<path fill-rule="evenodd" clip-rule="evenodd" d="M60.396 5.73665V12.6749H62.1279V9.8828H63.5073C65.1089 9.8828 65.7986 8.76594 65.7986 7.78678C65.7986 6.83821 65.0859 5.729 63.4919 5.729H60.396V5.73665ZM62.1277 7.00654H62.7407C63.6757 7.00654 64.0128 7.22073 64.0128 7.80976C64.0128 8.32994 63.7293 8.61298 62.9323 8.61298H62.1277V7.00654Z" fill="white"/>
<path fill-rule="evenodd" clip-rule="evenodd" d="M67.3608 5.73666V12.675H69.0927V9.85221H69.5908C70.5258 9.85221 70.8016 11.1833 71.545 12.675H73.4608C72.4799 10.6401 72.2653 9.78336 71.5526 9.43147C72.3496 9.06429 72.7481 8.49821 72.7481 7.73324C72.7481 6.69288 71.9051 5.73666 70.4721 5.73666H67.3608ZM69.0935 7.00654H69.9671C70.6185 7.00654 70.9557 7.27428 70.9557 7.78681C70.9557 8.37584 70.4882 8.58238 70.0054 8.58238H69.0859V7.00654H69.0935Z" fill="white"/>
<path fill-rule="evenodd" clip-rule="evenodd" d="M80.7649 11.3974H77.3701V9.72981H80.5427V8.45996H77.3701V7.00652H80.6959V5.73666H75.6382V12.675H80.7649V11.3974Z" fill="white"/>
<path fill-rule="evenodd" clip-rule="evenodd" d="M87.9836 6.18038C87.11 5.80554 86.405 5.6449 85.631 5.6449C84.0217 5.6449 82.9795 6.44047 82.9795 7.64147C82.9795 10.1353 86.5199 9.71454 86.5199 10.8544C86.5199 11.2598 86.1597 11.4969 85.5007 11.4969C84.7344 11.4969 84.1213 11.2598 83.1251 10.6019V12.1013C83.8148 12.4608 84.4202 12.7744 85.631 12.7744C87.1789 12.7744 88.3054 12.0018 88.3054 10.6708C88.3054 8.2458 84.765 8.54414 84.765 7.49613C84.765 7.15189 85.1635 6.93005 85.7842 6.93005C86.3743 6.93005 86.9797 7.10599 87.9836 7.54968V6.18038Z" fill="white"/>
<path fill-rule="evenodd" clip-rule="evenodd" d="M95.3322 6.18038C94.4586 5.80554 93.7536 5.6449 92.9796 5.6449C91.3703 5.6449 90.3281 6.44047 90.3281 7.64147C90.3281 10.1353 93.8685 9.71454 93.8685 10.8544C93.8685 11.2598 93.5084 11.4969 92.8493 11.4969C92.083 11.4969 91.4699 11.2598 90.4737 10.6019V12.1013C91.1634 12.4608 91.7688 12.7744 92.9796 12.7744C94.5276 12.7744 95.6541 12.0018 95.6541 10.6708C95.6541 8.2458 92.1137 8.54414 92.1137 7.49613C92.1137 7.15189 92.5121 6.93005 93.1329 6.93005C93.7229 6.93005 94.3283 7.10599 95.3322 7.54968V6.18038Z" fill="white"/>
<path fill-rule="evenodd" clip-rule="evenodd" d="M105.417 11.2598H103.171C104.413 9.68395 105.057 8.49059 105.057 7.61852C105.057 6.38692 104.221 5.6449 102.857 5.6449C102.198 5.6449 101.662 5.82849 100.911 6.30277V7.75622C101.47 7.21309 102.091 6.8918 102.581 6.8918C103.102 6.8918 103.509 7.35078 103.509 7.88626C103.509 8.42939 103.325 8.93427 102.758 9.79869C102.26 10.5637 101.555 11.5811 100.819 12.4761V12.6673H105.417V11.2598Z" fill="white"/>
<path fill-rule="evenodd" clip-rule="evenodd" d="M111.533 5.6449H110.552L107.28 9.85989V10.9691H109.993V12.675H111.533V10.9691H112V9.85989H111.533V5.6449ZM109.977 7.96274H110V9.85222H108.513L109.977 7.96274Z" fill="white"/>
<path fill-rule="evenodd" clip-rule="evenodd" d="M54.9704 7.89388L53.591 5.73666H51.6216L53.8516 9.07959L51.5449 12.675H53.4761L54.9704 10.2653L56.4724 12.675H58.4035L56.0969 9.07959L58.3269 5.73666H56.3574L54.9704 7.89388Z" fill="white"/>
<path fill-rule="evenodd" clip-rule="evenodd" d="M49.3914 11.3821H45.9965V9.71446H49.1691V8.44461H45.9965V6.99117H49.3224V5.72131H44.2646V12.652H49.3914V11.3821Z" fill="white"/>
<path fill-rule="evenodd" clip-rule="evenodd" d="M60.3501 5.72131V12.6596H62.082V9.87511H63.4537C65.0553 9.87511 65.745 8.75825 65.745 7.77909C65.745 6.83052 65.0323 5.72131 63.446 5.72131H60.3501ZM62.0821 6.9912H62.6952C63.6301 6.9912 63.9673 7.20539 63.9673 7.79442C63.9673 8.3146 63.6837 8.59764 62.8867 8.59764H62.0821V6.9912Z" fill="white"/>
<path fill-rule="evenodd" clip-rule="evenodd" d="M67.3086 5.72131V12.6596H69.0405V9.84451H69.5386C70.4735 9.84451 70.7494 11.1756 71.4927 12.6596H73.4009C72.42 10.6248 72.2054 9.76801 71.4927 9.41612C72.2897 9.04894 72.6882 8.48286 72.6882 7.71789C72.6882 6.67753 71.8452 5.72131 70.4199 5.72131H67.3086ZM69.0399 6.9912H69.9135C70.5649 6.9912 70.9021 7.25894 70.9021 7.77147C70.9021 8.36049 70.4346 8.56704 69.9518 8.56704H69.0322V6.9912H69.0399Z" fill="white"/>
<path fill-rule="evenodd" clip-rule="evenodd" d="M80.7039 11.3821H77.309V9.71446H80.474V8.44461H77.309V6.99117H80.6272V5.72131H75.5771V12.652H80.7039V11.3821Z" fill="white"/>
<path fill-rule="evenodd" clip-rule="evenodd" d="M87.9143 6.16503C87.0406 5.79019 86.3356 5.62955 85.5616 5.62955C83.9524 5.62955 82.9102 6.42512 82.9102 7.62612C82.9102 10.1199 86.4429 9.69919 86.4429 10.839C86.4429 11.2444 86.0827 11.4816 85.4237 11.4816C84.6574 11.4816 84.052 11.2444 83.0481 10.5866V12.0783C83.7378 12.4378 84.3432 12.7514 85.554 12.7514C87.1019 12.7514 88.2208 11.9788 88.2208 10.6478C88.2208 8.23045 84.688 8.52114 84.688 7.47313C84.688 7.12889 85.0865 6.90705 85.7072 6.90705C86.2973 6.90705 86.9027 7.08299 87.9066 7.52668V6.16503H87.9143Z" fill="white"/>
<path fill-rule="evenodd" clip-rule="evenodd" d="M95.2556 6.16503C94.382 5.79019 93.6769 5.62955 92.9029 5.62955C91.2937 5.62955 90.2515 6.42512 90.2515 7.62612C90.2515 10.1199 93.7842 9.69919 93.7842 10.839C93.7842 11.2444 93.424 11.4816 92.765 11.4816C91.9987 11.4816 91.3933 11.2444 90.3894 10.5866V12.0783C91.0791 12.4378 91.6845 12.7514 92.8953 12.7514C94.4433 12.7514 95.5621 11.9788 95.5621 10.6478C95.5621 8.23045 92.0293 8.52114 92.0293 7.47313C92.0293 7.12889 92.4278 6.90705 93.0485 6.90705C93.6386 6.90705 94.244 7.08299 95.2479 7.52668V6.16503H95.2556Z" fill="white"/>
<path fill-rule="evenodd" clip-rule="evenodd" d="M105.333 11.2444H103.096C104.337 9.66859 104.981 8.47524 104.981 7.60317C104.981 6.37157 104.146 5.62955 102.782 5.62955C102.123 5.62955 101.586 5.81314 100.835 6.28742V7.74087C101.395 7.20539 102.015 6.87645 102.506 6.87645C103.027 6.87645 103.433 7.33543 103.433 7.87091C103.433 8.40639 103.249 8.91892 102.682 9.78334C102.184 10.5483 101.479 11.5657 100.743 12.4607V12.652H105.341V11.2444H105.333Z" fill="white"/>
<path fill-rule="evenodd" clip-rule="evenodd" d="M111.448 5.62955H110.467L107.195 9.83689V10.9461H109.908V12.652H111.448V10.9461H111.915V9.83689H111.448V5.62955ZM109.892 7.94739H109.915V9.83687H108.429L109.892 7.94739Z" fill="white"/>
<path fill-rule="evenodd" clip-rule="evenodd" d="M54.9322 7.87853L53.5451 5.72131H51.5757L53.8057 9.06424L51.499 12.652H53.4302L54.9322 10.2499L56.4342 12.652H58.3576L56.051 9.06424L58.281 5.72131H56.3115L54.9322 7.87853Z" fill="white"/>
<path fill-rule="evenodd" clip-rule="evenodd" d="M46.9315 17.4637C46.5253 17.2954 46.2111 17.2189 45.9046 17.2189C44.9543 17.2189 44.2646 17.8845 44.2646 18.7948C44.2646 19.422 44.7551 20.2865 45.8816 20.2865C46.3491 20.2865 46.6709 20.1794 46.9698 20.0264V19.5597C46.6326 19.7816 46.2648 19.8963 45.9276 19.8963C45.2072 19.8963 44.7168 19.4297 44.7168 18.7642C44.7168 18.1063 45.2226 17.6167 45.9122 17.6167C46.2571 17.6167 46.5789 17.7162 46.9468 17.9304V17.4637H46.9315ZM49.2922 17.2419H48.9856L47.6982 20.2483H48.135L49.1312 17.8233L50.1888 20.2483H50.6256L49.2922 17.2419ZM51.5979 17.2574H51.1687L52.4791 20.2484C52.4562 20.455 52.2493 20.5773 52.1343 20.5773C51.958 20.5773 51.8354 20.5391 51.7358 20.4397V20.8221C51.8354 20.8833 51.9657 20.9292 52.1113 20.9292C52.4562 20.9292 52.6784 20.7303 52.8546 20.2484L53.9735 17.2574H53.552L52.6707 19.7588L51.5979 17.2574ZM56.6182 18.4737C56.304 18.4737 56.0971 18.3895 55.9209 17.9458C55.714 17.418 55.4841 17.265 55.0626 17.265H54.9936V17.6475C55.3768 17.6475 55.4611 17.7852 55.5837 18.1371C55.6603 18.3589 55.8519 18.5808 56.0358 18.6649C55.7906 18.7797 55.6373 18.8868 55.4534 19.1621L54.7331 20.2484H55.2312L55.8136 19.3381C55.9745 19.0857 56.281 18.8256 56.6182 18.8256V20.2484H57.0474V18.8256C57.3846 18.8256 57.6911 19.0857 57.852 19.3381L58.4344 20.2484H58.9325L58.2122 19.1621C58.0283 18.8868 57.875 18.7797 57.6298 18.6649C57.8137 18.5808 58.0053 18.3513 58.0819 18.1371C58.2045 17.7852 58.2812 17.6475 58.672 17.6475V17.265H58.603C58.1815 17.265 57.9516 17.418 57.7447 17.9458C57.5685 18.3895 57.3616 18.4737 57.0474 18.4737V17.2574H56.6182V18.4737ZM59.9815 20.2485H61.016C61.6521 20.2485 62.0889 19.9119 62.0889 19.3534C62.0889 18.7874 61.6444 18.4584 61.016 18.4584H60.4106V17.6476H61.8896V17.2651H59.9815V20.2485ZM60.4109 18.8406H60.9857C61.4301 18.8406 61.6524 19.0242 61.6524 19.3532C61.6524 19.6285 61.4301 19.858 61.07 19.858H60.4109V18.8406ZM64.358 17.2419H64.0515L62.7641 20.2483H63.2009L63.5764 19.3685H64.8485L65.247 20.2483H65.6838L64.358 17.2419ZM64.1963 17.8997L64.6791 18.986H63.7442L64.1963 17.8997ZM70.6951 19.8658H70.2583L69.2238 17.2419H68.9172L67.9287 19.8658H67.4919V20.799H67.9287V20.2483H70.2583V20.799H70.6951V19.8658ZM69.0633 17.8691L69.822 19.8657H68.3583L69.0633 17.8691ZM71.4766 18.7565C71.4766 19.5674 72.0973 20.2941 73.0782 20.2941C74.0897 20.2941 74.6951 19.5674 74.6951 18.7565C74.6951 17.9227 74.0744 17.2189 73.0858 17.2189C72.1126 17.2189 71.4766 17.9227 71.4766 18.7565ZM71.9216 18.7565C71.9216 18.0986 72.4197 17.6167 73.0864 17.6167C73.7607 17.6167 74.2512 18.0986 74.2512 18.7565C74.2512 19.4067 73.7531 19.8963 73.0864 19.8963C72.4197 19.8963 71.9216 19.4067 71.9216 18.7565ZM78.3125 17.4637C77.9063 17.2954 77.5921 17.2189 77.2856 17.2189C76.3354 17.2189 75.6457 17.8844 75.6457 18.7947C75.6457 19.422 76.1361 20.2864 77.2626 20.2864C77.7301 20.2864 78.0519 20.1793 78.3508 20.0263V19.5597C78.0136 19.7816 77.6458 19.8963 77.3086 19.8963C76.5883 19.8963 76.0978 19.4297 76.0978 18.7641C76.0978 18.1063 76.6036 17.6167 77.2933 17.6167C77.6381 17.6167 77.96 17.7161 78.3278 17.9303V17.4637H78.3125ZM81.6612 17.2574H79.1553V17.6399H80.1899V20.2408H80.619V17.6399H81.6535V17.2574H81.6612ZM83.8606 17.2419H83.554L82.2666 20.2483H82.7034L83.0789 19.3685H84.351L84.7495 20.2483H85.1863L83.8606 17.2419ZM83.6998 17.8997L84.1825 18.986H83.2553L83.6998 17.8997ZM86.0674 20.2484H87.0943C87.8453 20.2484 88.1212 19.82 88.1212 19.4528C88.1212 19.0474 87.8453 18.7567 87.4008 18.6726V18.6649C87.715 18.5349 87.8606 18.336 87.8606 18.0223C87.8606 17.6475 87.5847 17.2574 86.941 17.2574H86.0751V20.2484H86.0674ZM86.4969 17.6473H86.8953C87.2938 17.6473 87.4165 17.8385 87.4165 18.0603C87.4165 18.3816 87.2095 18.5346 86.7804 18.5346H86.4969V17.6473ZM86.4969 18.9247H87.018C87.4701 18.9247 87.6847 19.116 87.6847 19.3914C87.6847 19.6132 87.5467 19.8657 87.041 19.8657H86.5045V18.9247H86.4969ZM89.0795 17.2574V20.2484H89.5086V18.8256H89.6313C89.9148 18.8256 90.2137 19.0015 90.4665 19.4452L90.934 20.2484H91.4245L90.9034 19.3381C90.6888 18.9633 90.4589 18.7491 90.252 18.6573C90.4129 18.5808 90.5892 18.3513 90.6658 18.1371C90.7884 17.7852 90.865 17.6475 91.2559 17.6475V17.265H91.1869C90.7654 17.265 90.5355 17.418 90.3286 17.9458C90.1524 18.3895 89.9454 18.4737 89.6313 18.4737H89.5086V17.2574H89.0795ZM95.0792 17.2574H94.8723L92.9718 19.5293V17.2574H92.535V20.279H92.7419L94.6424 18.0453V20.2408H95.0715V17.2574H95.0792Z" fill="#FFC521"/>
<path fill-rule="evenodd" clip-rule="evenodd" d="M18.7289 0.395416C25.8327 0.395416 31.5955 6.148 31.5955 13.2393C31.5955 20.3306 25.8327 26.0831 18.7289 26.0831C11.6251 26.0831 5.8623 20.3306 5.8623 13.2393C5.86997 6.148 11.6251 0.395416 18.7289 0.395416Z" fill="#FFC521"/>
<path fill-rule="evenodd" clip-rule="evenodd" d="M18.729 20.6289C8.38359 20.6289 0 17.4543 0 15.5648C0 13.6753 4.3987 12.4743 10.7285 11.2657C10.7209 11.6099 10.7209 11.9695 10.7209 12.3137C10.9891 13.6983 14.4529 14.425 18.7366 14.425C23.0204 14.425 26.4918 13.6447 26.7524 12.3137C26.7524 11.9618 26.7524 11.6099 26.7447 11.2657C33.0746 12.4743 37.4656 13.6753 37.4656 15.5648C37.4656 17.4543 29.0743 20.6289 18.729 20.6289Z" fill="#8CC798"/>
<path fill-rule="evenodd" clip-rule="evenodd" d="M26.0167 20.1011C24.3538 21.631 21.71 22.6255 18.7366 22.6255C15.7633 22.6255 13.1195 21.6387 11.4565 20.1011C13.6942 20.43 16.1541 20.6213 18.7366 20.6213C21.3115 20.6289 23.779 20.43 26.0167 20.1011Z" fill="#8CC798"/>
<path fill-rule="evenodd" clip-rule="evenodd" d="M18.5604 22.6255C15.656 22.5873 13.0812 21.6081 11.4565 20.1088C12.629 20.2771 13.8628 20.4148 15.1426 20.5065C15.3801 20.8355 16.3074 21.937 18.5604 22.6255Z" fill="#4FA26C"/>
<path fill-rule="evenodd" clip-rule="evenodd" d="M18.7365 3.85312C14.5523 3.85312 11.0272 7.10425 10.7284 11.2733L10.7207 11.6635C10.9506 12.8415 14.4527 13.7748 18.7365 13.7748C23.0202 13.7748 26.5223 12.8415 26.7522 11.6635L26.7445 11.2733C26.4457 7.10425 22.9206 3.85312 18.7365 3.85312Z" fill="#009DE2"/>
<path fill-rule="evenodd" clip-rule="evenodd" d="M24.3079 13.1551L24.3769 13.1398C25.0513 12.9562 26.5992 12.459 26.7525 11.6711L26.7448 11.2809C26.5533 8.54234 24.9363 6.07149 22.4534 4.77104C22.3385 4.70984 22.2542 4.66394 22.0933 4.59509C22.2159 4.68689 24.3079 6.38513 24.3079 10.4318V13.1551Z" fill="#A0D8F7"/>
<path fill-rule="evenodd" clip-rule="evenodd" d="M10.7207 11.6711V12.3213C10.9889 13.7059 14.4527 14.4327 18.7365 14.4327C23.0202 14.4327 26.4917 13.6524 26.7522 12.3213V11.6711C26.5223 12.8492 23.0202 13.7824 18.7365 13.7824C14.445 13.7824 10.9429 12.8492 10.7207 11.6711Z" fill="#FFEC00"/>
<path fill-rule="evenodd" clip-rule="evenodd" d="M18.7365 16.2227C19.4492 16.2227 20.0316 16.804 20.0316 17.5155V17.5231C19.6637 17.6991 19.2193 17.7985 18.7365 17.7985C18.2537 17.7985 17.8092 17.6991 17.4414 17.5231V17.5155C17.4414 16.804 18.0238 16.2227 18.7365 16.2227Z" fill="#FFEC00"/>
<path fill-rule="evenodd" clip-rule="evenodd" d="M17.4414 17.5311V17.5235V17.4929C17.4567 16.9344 17.8399 16.4525 18.3533 16.2919L18.384 16.2842L18.4146 16.2766L18.4376 16.2689H18.4453L18.4683 16.2613H18.4759H18.4836L18.5143 16.2536L18.5372 16.246H18.5449H18.5679H18.5756H18.5986H18.6139H18.6369H18.6599C18.6522 16.2536 18.0928 16.5673 17.9932 17.1716C17.9625 17.3705 17.9548 17.5617 17.9548 17.73C17.7709 17.6612 17.5947 17.6 17.4414 17.5311Z" fill="#FFCB00"/>
<path fill-rule="evenodd" clip-rule="evenodd" d="M20.0316 17.5308V17.9056C19.6637 18.0816 19.2193 18.181 18.7365 18.181C18.2537 18.181 17.8092 18.0816 17.4414 17.9056V17.5308C17.8092 17.7067 18.2537 17.8062 18.7365 17.8062C19.2116 17.8062 19.6637 17.6991 20.0316 17.5308Z" fill="#EE7C00"/>
<path fill-rule="evenodd" clip-rule="evenodd" d="M11.4406 15.5648C12.1533 15.5648 12.7357 16.1462 12.7357 16.8576V16.8653C12.3678 17.0412 11.9234 17.1407 11.4406 17.1407C10.9578 17.1407 10.5133 17.0412 10.1455 16.8653V16.8576C10.1455 16.1462 10.7279 15.5648 11.4406 15.5648Z" fill="#FFEC00"/>
<path fill-rule="evenodd" clip-rule="evenodd" d="M10.1455 16.8657V16.858V16.8274C10.1608 16.2614 10.544 15.7871 11.0574 15.6264L11.0881 15.6188L11.1187 15.6111L11.1417 15.6035H11.1494L11.1724 15.5958H11.18H11.1877L11.2184 15.5882H11.2414H11.249H11.272H11.2797H11.3027H11.318H11.341H11.364C11.3563 15.5958 10.7969 15.9095 10.6973 16.5138C10.6666 16.7051 10.6589 16.9039 10.6589 17.0722C10.4674 17.0034 10.2988 16.9422 10.1455 16.8657Z" fill="#FFCB00"/>
<path fill-rule="evenodd" clip-rule="evenodd" d="M12.7357 16.8652V17.2401C12.3678 17.416 11.9234 17.5155 11.4406 17.5155C10.9578 17.5155 10.5133 17.416 10.1455 17.2401V16.8652C10.5133 17.0412 10.9578 17.1406 11.4406 17.1406C11.9157 17.1406 12.3678 17.0412 12.7357 16.8652Z" fill="#EE7C00"/>
<path fill-rule="evenodd" clip-rule="evenodd" d="M25.6564 15.5648C26.3691 15.5648 26.9515 16.1462 26.9515 16.8576V16.8653C26.5837 17.0412 26.1392 17.1407 25.6564 17.1407C25.1736 17.1407 24.7292 17.0412 24.3613 16.8653V16.8576C24.3613 16.1462 24.9437 15.5648 25.6564 15.5648Z" fill="#FFEC00"/>
<path fill-rule="evenodd" clip-rule="evenodd" d="M24.3613 16.8654V16.8577V16.8271C24.3767 16.2611 24.7598 15.7868 25.2733 15.6261L25.3039 15.6185L25.3346 15.6108L25.3575 15.6032H25.3652L25.3882 15.5955H25.3959H25.4035L25.4342 15.5879H25.4572H25.4648H25.4878H25.4955H25.5185H25.5338H25.5568H25.5798C25.5721 15.5955 25.0127 15.9092 24.9131 16.5135C24.8824 16.7047 24.8748 16.9036 24.8748 17.0719C24.6908 17.0031 24.5223 16.9419 24.3613 16.8654Z" fill="#FFCB00"/>
<path fill-rule="evenodd" clip-rule="evenodd" d="M26.9515 16.8652V17.2401C26.5837 17.416 26.1392 17.5155 25.6564 17.5155C25.1736 17.5155 24.7292 17.416 24.3613 17.2401V16.8652C24.7292 17.0412 25.1736 17.1406 25.6564 17.1406C26.1392 17.1406 26.5837 17.0412 26.9515 16.8652Z" fill="#EE7C00"/>
<path fill-rule="evenodd" clip-rule="evenodd" d="M30.5915 13.5223C31.3042 13.5223 31.8866 14.1037 31.8866 14.8151V14.8228C31.5187 14.9987 31.0743 15.0982 30.5915 15.0982C30.1087 15.0982 29.6642 14.9987 29.2964 14.8228V14.8151C29.2964 14.1037 29.8788 13.5223 30.5915 13.5223Z" fill="#FFEC00"/>
<path fill-rule="evenodd" clip-rule="evenodd" d="M29.2964 14.8307V14.823V14.7924C29.3117 14.2264 29.6949 13.7521 30.2083 13.5914L30.239 13.5838L30.2696 13.5761L30.2926 13.5685H30.3003L30.3233 13.5608H30.3309L30.3616 13.5532L30.3846 13.5455H30.3922H30.4152H30.4229H30.4459H30.4612H30.4842H30.5072C30.4995 13.5532 29.9401 13.8668 29.8405 14.4711C29.8098 14.6624 29.8022 14.8613 29.8022 15.0296C29.6259 14.9607 29.4573 14.8995 29.2964 14.8307Z" fill="#FFCB00"/>
<path fill-rule="evenodd" clip-rule="evenodd" d="M31.8866 14.8305V15.2053C31.5187 15.3813 31.0743 15.4807 30.5915 15.4807C30.1087 15.4807 29.6642 15.3813 29.2964 15.2053V14.8305C29.6642 15.0064 30.1087 15.1059 30.5915 15.1059C31.0743 15.1059 31.5187 14.9988 31.8866 14.8305Z" fill="#EE7C00"/>
<path fill-rule="evenodd" clip-rule="evenodd" d="M1.41785 13.8513C2.9505 12.9945 5.64796 12.2831 9.03511 11.5946C9.60219 11.4875 10.1693 11.3728 10.721 11.2657V11.2963C10.7134 11.6329 10.7134 11.9848 10.7134 12.3213C10.9433 13.53 13.6101 14.2414 17.1352 14.4021C17.5183 14.425 17.9168 14.4403 18.3153 14.448C13.748 14.4709 10.2995 14.6086 2.65929 16.827C1.00403 15.932 0.36032 14.9146 1.41785 13.8513Z" fill="#4FA26C"/>
<path fill-rule="evenodd" clip-rule="evenodd" d="M18.729 20.6289C9.21122 20.6289 1.35639 17.9362 0.160928 16.0391C0.0689692 15.8785 0.0229897 15.7408 0.00766324 15.626C0.00766324 15.6031 0 15.5801 0 15.5648C0 14.9222 0.505774 14.3638 1.4177 13.8589C-1.66292 16.9341 9.64802 19.6957 18.729 19.6957C27.8176 19.6957 39.1285 16.9265 36.0402 13.8513C36.9522 14.3562 37.4579 14.9222 37.4579 15.5572C37.4579 15.5801 37.4579 15.6031 37.4503 15.6184C37.4349 15.7331 37.389 15.8708 37.297 16.0315C36.1092 17.9362 28.2467 20.6289 18.729 20.6289Z" fill="#006126"/>
<path fill-rule="evenodd" clip-rule="evenodd" d="M6.65202 13.5223C7.3647 13.5223 7.94711 14.1037 7.94711 14.8151V14.8228C7.57927 14.9987 7.13481 15.0982 6.65202 15.0982C6.16924 15.0982 5.72477 14.9987 5.35693 14.8228V14.8151C5.35693 14.1037 5.93934 13.5223 6.65202 13.5223Z" fill="#FFEC00"/>
<path fill-rule="evenodd" clip-rule="evenodd" d="M5.35693 14.8311V14.8235V14.7929C5.37226 14.2268 5.75542 13.7525 6.26886 13.5919L6.29951 13.5842L6.33017 13.5766L6.35315 13.5689H6.36082L6.38381 13.5613H6.39147H6.39913L6.42979 13.5536L6.45278 13.546H6.46044H6.48343H6.49109H6.51408H6.52941H6.5524H6.57539C6.56773 13.5536 6.00831 13.8672 5.90869 14.4716C5.87803 14.6628 5.87037 14.8617 5.87037 15.03C5.68645 14.9612 5.5102 14.9 5.35693 14.8311Z" fill="#FFCB00"/>
<path fill-rule="evenodd" clip-rule="evenodd" d="M7.94711 14.8305V15.2053C7.57927 15.3813 7.13481 15.4807 6.65202 15.4807C6.16924 15.4807 5.72477 15.3813 5.35693 15.2053V14.8305C5.72477 15.0064 6.16924 15.1059 6.65202 15.1059C7.12714 15.1059 7.57927 14.9988 7.94711 14.8305Z" fill="#EE7C00"/>
</svg>