<svg width="577" height="222" viewBox="0 0 577 222" fill="none" xmlns="http://www.w3.org/2000/svg">
<g filter="url(#filter0_f_3447_742)">
<path d="M356.52 82.0696C365.307 82.0696 372.43 74.9467 372.43 66.1602C372.43 57.3738 365.307 50.2509 356.52 50.2509C347.734 50.2509 340.611 57.3738 340.611 66.1602C340.611 74.9467 347.734 82.0696 356.52 82.0696Z" fill="#69E3C6"/>
</g>
<path d="M356.52 82.0696C365.307 82.0696 372.43 74.9467 372.43 66.1602C372.43 57.3738 365.307 50.2509 356.52 50.2509C347.734 50.2509 340.611 57.3738 340.611 66.1602C340.611 74.9467 347.734 82.0696 356.52 82.0696Z" fill="#69E3C6"/>
<path d="M300.594 92.1595H277.975V187.717H300.594V144.262C300.594 140.099 301.597 135.953 303.344 132.111C306.12 126.004 310.903 121.031 316.897 118.02C322.336 115.289 328.475 114.321 334.461 115.225V92.3443C324.932 91.5404 315.317 93.3716 306.693 97.7022C304.571 98.7692 302.535 99.973 300.594 101.305V92.1595Z" fill="white"/>
<path fill-rule="evenodd" clip-rule="evenodd" d="M244.204 187.717H266.823V92.1595H244.204V94.7821C235.611 88.7643 225.148 85.2334 213.861 85.2334C184.609 85.2334 160.897 108.945 160.897 138.196C160.897 167.447 184.609 191.159 213.861 191.159C225.148 191.159 235.611 187.628 244.204 181.61V187.717ZM213.861 167.817C230.218 167.817 243.481 154.554 243.481 138.196C243.481 121.838 230.218 108.576 213.861 108.576C197.502 108.576 184.24 121.838 184.24 138.196C184.24 154.554 197.502 167.817 213.861 167.817Z" fill="white"/>
<path fill-rule="evenodd" clip-rule="evenodd" d="M481.195 138.196C481.195 167.447 457.483 191.159 428.233 191.159C398.982 191.159 375.27 167.447 375.27 138.196C375.27 108.945 398.982 85.2334 428.233 85.2334C457.483 85.2334 481.195 108.945 481.195 138.196ZM428.232 167.817C444.591 167.817 457.853 154.554 457.853 138.196C457.853 121.838 444.591 108.576 428.232 108.576C411.874 108.576 398.612 121.838 398.612 138.196C398.612 154.554 411.874 167.817 428.232 167.817Z" fill="white"/>
<path d="M367.754 92.1595H345.135V192.007C345.135 193.813 344.418 195.544 343.141 196.822C341.863 198.099 340.132 198.816 338.326 198.816C336.52 198.816 334.788 198.099 333.511 196.822C332.234 195.544 331.517 193.813 331.517 192.007H308.898C308.898 199.812 311.999 207.296 317.518 212.815C323.036 218.334 330.521 221.435 338.326 221.435C346.131 221.435 353.616 218.334 359.134 212.815C364.623 207.328 367.719 199.895 367.754 192.138C367.754 192.109 367.754 192.08 367.754 192.051V192.007V92.1595Z" fill="white"/>
<path d="M539.751 86.5552C529.341 86.5552 519.055 90.8096 511.835 97.77V92.3662H489.266V187.717H511.835V128.497C511.835 116.175 521.824 106.187 534.146 106.187C546.468 106.187 556.456 116.175 556.456 128.497V187.717H577V121.213C577 102.071 558.891 86.5552 539.751 86.5552Z" fill="white"/>
<path d="M117.137 87.9113C115.532 87.715 113.896 87.6148 112.237 87.6148H107.881C94.0894 87.6148 81.9234 94.5826 74.7144 105.191C69.2563 94.7445 58.3191 87.6148 45.7167 87.6148C36.6995 87.6148 28.5342 91.2647 22.6188 97.1687V92.2816H0V187.717H22.6188V131.921C22.6188 130.452 22.7681 129.019 23.051 127.633C25.0346 117.939 33.6113 110.648 43.8918 110.648C54.214 110.648 62.8199 118.001 64.7565 127.754C65.0238 129.102 65.1637 130.495 65.1637 131.921V187.717H88.7868V131.021C88.7868 128.209 89.3569 125.528 90.3873 123.091C93.4807 115.778 100.721 110.648 109.16 110.648C111.991 110.648 114.688 111.225 117.137 112.269V87.9113Z" fill="white"/>
<path d="M129.534 156.797V187.717H152.309V127.687C152.309 111.773 143.032 98.0248 129.591 91.5571V156.797H129.534Z" fill="white"/>
<defs>
<filter id="filter0_f_3447_742" x="290.611" y="0.250908" width="131.819" height="131.819" filterUnits="userSpaceOnUse" color-interpolation-filters="sRGB">
<feFlood flood-opacity="0" result="BackgroundImageFix"/>
<feBlend mode="normal" in="SourceGraphic" in2="BackgroundImageFix" result="shape"/>
<feGaussianBlur stdDeviation="25" result="effect1_foregroundBlur_3447_742"/>
</filter>
</defs>
</svg>
