<svg xmlns:xlink="http://www.w3.org/1999/xlink" xmlns="http://www.w3.org/2000/svg" width="83" height="30" viewBox="0 0 83 30" fill="none">
<path d="M28.5514 15.3804L14.2754 0.948761L-0.000630828 15.3804L14.2754 29.8119L28.5514 15.3804Z" fill="white"/>
<path d="M22.9605 12.2376L22.3398 12.865L22.9605 13.4925L23.5812 12.865L22.9605 12.2376Z" fill="#FF0000"/>
<path d="M22.3375 11.6098L21.7168 12.2372L22.3375 12.8647L22.9582 12.2372L22.3375 11.6098Z" fill="#FF0000"/>
<path d="M21.7242 10.9826L21.1035 11.61L21.7242 12.2375L22.3449 11.61L21.7242 10.9826Z" fill="#FF0000"/>
<path d="M21.0973 10.3553L20.4766 10.9828L21.0973 11.6102L21.718 10.9828L21.0973 10.3553Z" fill="#FF0000"/>
<path d="M20.4801 9.72117L19.8594 10.3486L20.4801 10.9761L21.1008 10.3486L20.4801 9.72117Z" fill="#FF0000"/>
<path d="M19.8609 9.10087L19.2402 9.72833L19.8609 10.3558L20.4816 9.72833L19.8609 9.10087Z" fill="#FF0000"/>
<path d="M16.1344 5.33653L15.5137 5.96399L16.1344 6.59145L16.7551 5.96399L16.1344 5.33653Z" fill="black"/>
<path d="M16.7594 5.96391L16.1387 6.59137L16.7594 7.21883L17.3801 6.59137L16.7594 5.96391Z" fill="black"/>
<path d="M17.3726 6.59132L16.752 7.21878L17.3726 7.84624L17.9933 7.21878L17.3726 6.59132Z" fill="black"/>
<path fill-rule="evenodd" clip-rule="evenodd" d="M16.7578 9.7286L17.3723 9.09758L17.9965 8.47642L18.6207 7.8454L19.2352 8.47642L18.6207 9.09758L17.9965 9.7286L17.3723 10.3498L16.7578 9.7286Z" fill="black"/>
<path d="M17.9976 7.21855L17.377 7.84601L17.9976 8.47347L18.6183 7.84601L17.9976 7.21855Z" fill="black"/>
<path d="M15.5152 4.7024L14.8945 5.32986L15.5152 5.95733L16.1359 5.32986L15.5152 4.7024Z" fill="black"/>
<path d="M14.8961 4.08189L14.2754 4.70935L14.8961 5.33681L15.5168 4.70935L14.8961 4.08189Z" fill="black"/>
<path fill-rule="evenodd" clip-rule="evenodd" d="M0.626953 14.7472L1.86563 13.495L2.48985 12.864L3.10432 12.233L3.72853 11.6118L4.343 10.9808L4.96722 10.3498L5.59143 9.72861L6.2059 9.09759L6.83012 8.47643L7.45433 7.84541L8.0688 7.21439L8.69301 6.59323L9.30748 5.96221L9.9317 5.33119L10.5559 4.71003L11.1704 4.07901L11.7946 3.45785L12.4188 2.82683L13.6575 1.57465L14.272 2.19581L13.0333 3.45785L12.4188 4.07901L11.7946 4.71003L11.1704 5.33119L10.5559 5.96221L9.9317 6.59323L9.30748 7.21439L8.69301 7.84541L8.0688 8.47643L7.45433 9.09759L6.83012 9.72861L6.2059 10.3498L5.59143 10.9808L4.96722 11.6118L4.343 12.233L3.72853 12.864L3.10432 13.495L2.48985 14.1162L1.24142 15.3683L0.626953 14.7472Z" fill="black"/>
<path d="M13.6578 5.33342L13.0371 5.96088L13.6578 6.58834L14.2785 5.96088L13.6578 5.33342Z" fill="black"/>
<path fill-rule="evenodd" clip-rule="evenodd" d="M13.6586 4.07899L14.2731 3.45782L14.8973 4.07899L14.2731 4.71L13.6586 5.33116L13.0344 5.96219L12.4102 5.33116L13.0344 4.71L13.6586 4.07899Z" fill="black"/>
<path d="M14.275 5.96687L13.6543 6.59433L14.275 7.22179L14.8957 6.59433L14.275 5.96687Z" fill="black"/>
<path d="M14.8941 6.58717L14.2734 7.21463L14.8941 7.84209L15.5148 7.21463L14.8941 6.58717Z" fill="black"/>
<path d="M15.5172 7.21458L14.8965 7.84204L15.5172 8.4695L16.1379 7.84204L15.5172 7.21458Z" fill="black"/>
<path d="M16.1363 7.84874L15.5156 8.4762L16.1363 9.10366L16.757 8.4762L16.1363 7.84874Z" fill="black"/>
<path d="M21.1031 12.8681L20.4824 13.4955L21.1031 14.123L21.7238 13.4955L21.1031 12.8681Z" fill="black"/>
<path d="M20.484 12.2332L19.8633 12.8607L20.484 13.4881L21.1047 12.8607L20.484 12.2332Z" fill="black"/>
<path d="M19.857 11.6069L19.2363 12.2344L19.857 12.8619L20.4777 12.2344L19.857 11.6069Z" fill="black"/>
<path d="M19.2398 10.986L18.6191 11.6135L19.2398 12.241L19.8605 11.6135L19.2398 10.986Z" fill="black"/>
<path d="M18.6207 10.3517L18 10.9792L18.6207 11.6066L19.2414 10.9792L18.6207 10.3517Z" fill="black"/>
<path d="M21.7223 13.4892L21.1016 14.1166L21.7223 14.7441L22.343 14.1166L21.7223 13.4892Z" fill="black"/>
<path d="M22.3394 14.1216L21.7188 14.7491L22.3394 15.3765L22.9601 14.7491L22.3394 14.1216Z" fill="black"/>
<path d="M21.0973 15.3747L20.4766 16.0022L21.0973 16.6296L21.718 16.0022L21.0973 15.3747Z" fill="black"/>
<path d="M19.8609 14.1189L19.2402 14.7463L19.8609 15.3738L20.4816 14.7463L19.8609 14.1189Z" fill="black"/>
<path d="M19.2359 13.4926L18.6152 14.12L19.2359 14.7475L19.8566 14.12L19.2359 13.4926Z" fill="black"/>
<path d="M18.6246 12.8639L18.0039 13.4913L18.6246 14.1188L19.2453 13.4913L18.6246 12.8639Z" fill="black"/>
<path d="M17.9976 12.2373L17.377 12.8648L17.9976 13.4923L18.6183 12.8648L17.9976 12.2373Z" fill="black"/>
<path d="M17.3726 11.61L16.752 12.2374L17.3726 12.8649L17.9933 12.2374L17.3726 11.61Z" fill="black"/>
<path d="M16.7594 10.9827L16.1387 11.6102L16.7594 12.2377L17.3801 11.6102L16.7594 10.9827Z" fill="black"/>
<path d="M16.1344 10.3556L15.5137 10.9831L16.1344 11.6105L16.7551 10.9831L16.1344 10.3556Z" fill="black"/>
<path d="M14.2711 8.47264L13.6504 9.1001L14.2711 9.72756L14.8918 9.1001L14.2711 8.47264Z" fill="black"/>
<path d="M14.8961 9.09993L14.2754 9.72739L14.8961 10.3548L15.5168 9.72739L14.8961 9.09993Z" fill="black"/>
<path d="M15.5152 9.7202L14.8945 10.3477L15.5152 10.9751L16.1359 10.3477L15.5152 9.7202Z" fill="black"/>
<path d="M13.6598 7.84587L13.0391 8.47333L13.6598 9.10079L14.2805 8.47333L13.6598 7.84587Z" fill="black"/>
<path d="M13.0328 7.2191L12.4121 7.84656L13.0328 8.47402L13.6535 7.84656L13.0328 7.2191Z" fill="black"/>
<path d="M12.4059 6.59053L11.7852 7.21799L12.4059 7.84545L13.0265 7.21799L12.4059 6.59053Z" fill="black"/>
<path d="M11.7965 5.96373L11.1758 6.59119L11.7965 7.21865L12.4172 6.59119L11.7965 5.96373Z" fill="black"/>
<path d="M11.7906 8.46959L11.1699 9.09705L11.7906 9.72451L12.4113 9.09705L11.7906 8.46959Z" fill="black"/>
<path d="M11.1734 7.84925L10.5527 8.47672L11.1734 9.10418L11.7941 8.47672L11.1734 7.84925Z" fill="black"/>
<path d="M9.9332 9.10066L9.3125 9.72812L9.9332 10.3556L10.5539 9.72812L9.9332 9.10066Z" fill="black"/>
<path d="M10.5504 9.72108L9.92969 10.3485L10.5504 10.976L11.1711 10.3485L10.5504 9.72108Z" fill="black"/>
<path fill-rule="evenodd" clip-rule="evenodd" d="M9.93204 7.84541L10.5563 7.21439L11.1707 7.84541L10.5563 8.47643L9.93204 9.09759L9.30782 9.72861L8.69336 9.09759L9.30782 8.47643L9.93204 7.84541Z" fill="black"/>
<path d="M12.4117 9.10377L11.791 9.73123L12.4117 10.3587L13.0324 9.73123L12.4117 9.10377Z" fill="black"/>
<path d="M13.0309 9.72416L12.4102 10.3516L13.0309 10.9791L13.6515 10.3516L13.0309 9.72416Z" fill="black"/>
<path d="M13.6539 10.3515L13.0332 10.9789L13.6539 11.6064L14.2746 10.9789L13.6539 10.3515Z" fill="black"/>
<path d="M14.275 10.9858L13.6543 11.6133L14.275 12.2407L14.8957 11.6133L14.275 10.9858Z" fill="black"/>
<path d="M14.8941 11.6061L14.2734 12.2336L14.8941 12.861L15.5148 12.2336L14.8941 11.6061Z" fill="black"/>
<path d="M22.3375 16.6274L21.7168 17.2548L22.3375 17.8823L22.9582 17.2548L22.3375 16.6274Z" fill="black"/>
<path d="M21.1031 17.8867L20.4824 18.5142L21.1031 19.1416L21.7238 18.5142L21.1031 17.8867Z" fill="black"/>
<path fill-rule="evenodd" clip-rule="evenodd" d="M19.8613 20.3968L20.4855 19.7658L21.1 19.1348L21.7242 18.5136L22.3387 17.8826L22.9629 17.2516L23.5871 17.8826L22.9629 18.5136L22.3387 19.1348L21.7242 19.7658L21.1 20.3968L20.4855 21.018L19.8613 20.3968Z" fill="black"/>
<path d="M19.8609 19.1383L19.2402 19.7658L19.8609 20.3932L20.4816 19.7658L19.8609 19.1383Z" fill="black"/>
<path d="M19.234 18.5104L18.6133 19.1379L19.234 19.7653L19.8547 19.1379L19.234 18.5104Z" fill="black"/>
<path d="M18.6246 17.8822L18.0039 18.5097L18.6246 19.1371L19.2453 18.5097L18.6246 17.8822Z" fill="black"/>
<path d="M17.9976 17.2568L17.377 17.8842L17.9976 18.5117L18.6183 17.8842L17.9976 17.2568Z" fill="black"/>
<path fill-rule="evenodd" clip-rule="evenodd" d="M17.9965 15.9994L18.6207 15.3684L19.2352 15.9994L18.6207 16.6304L17.9965 17.2516L17.3723 17.8826L16.7578 17.2516L17.3723 16.6304L17.9965 15.9994Z" fill="black"/>
<path d="M17.9996 14.7502L17.3789 15.3777L17.9996 16.0051L18.6203 15.3777L17.9996 14.7502Z" fill="black"/>
<path fill-rule="evenodd" clip-rule="evenodd" d="M15.5215 15.9994L16.1359 15.3683L16.7602 14.7472L17.3746 14.1161L17.9988 14.7472L17.3746 15.3683L16.7602 15.9994L16.1359 16.6304L15.5215 15.9994Z" fill="black"/>
<path d="M15.523 14.7466L14.9023 15.374L15.523 16.0015L16.1437 15.374L15.523 14.7466Z" fill="black"/>
<path d="M11.7965 10.9828L11.1758 11.6103L11.7965 12.2378L12.4172 11.6103L11.7965 10.9828Z" fill="black"/>
<path d="M12.4059 11.6102L11.7852 12.2377L12.4059 12.8652L13.0265 12.2377L12.4059 11.6102Z" fill="black"/>
<path d="M13.0328 12.2376L12.4121 12.8651L13.0328 13.4925L13.6535 12.8651L13.0328 12.2376Z" fill="black"/>
<path d="M13.6598 12.865L13.0391 13.4924L13.6598 14.1199L14.2805 13.4924L13.6598 12.865Z" fill="black"/>
<path d="M14.2711 13.4923L13.6504 14.1198L14.2711 14.7472L14.8918 14.1198L14.2711 13.4923Z" fill="black"/>
<path fill-rule="evenodd" clip-rule="evenodd" d="M15.5199 13.495L16.1344 12.864L16.7586 13.495L16.1344 14.1162L15.5199 14.7472L14.8957 15.3684L14.2715 14.7472L14.8957 14.1162L15.5199 13.495Z" fill="black"/>
<path d="M19.857 16.6247L19.2363 17.2522L19.857 17.8797L20.4777 17.2522L19.857 16.6247Z" fill="#FF0000"/>
<path d="M23.5855 15.3714L22.9648 15.9988L23.5855 16.6263L24.2062 15.9988L23.5855 15.3714Z" fill="black"/>
<path fill-rule="evenodd" clip-rule="evenodd" d="M24.8246 15.3683L25.4488 14.7472L26.0633 15.3683L25.4488 15.9993L24.8246 16.6304L24.2004 17.2515L23.5859 16.6304L24.2004 15.9993L24.8246 15.3683Z" fill="black"/>
<path fill-rule="evenodd" clip-rule="evenodd" d="M20.4844 22.2702L19.8602 22.9012L19.236 23.5322L18.6215 24.1534L17.9973 24.7844L17.3828 25.4055L16.7586 26.0366L16.1344 26.6676L15.5199 27.2887L14.2715 28.5508L14.8957 29.1719L16.1344 27.9198L16.7586 27.2887L17.3828 26.6676L17.9973 26.0366L18.6215 25.4055L19.236 24.7844L19.8602 24.1534L20.4844 23.5322L21.0989 22.9012L21.7231 22.2702L22.3473 21.649L22.9618 21.018L23.586 20.387L24.2004 19.7658L24.8247 19.1348L25.4489 18.5136L26.0633 17.8826L26.6876 17.2516L27.9262 15.9994L27.3118 15.3684L26.0633 16.6304L25.4489 17.2516L24.8247 17.8826L24.2004 18.5136L23.586 19.1348L22.9618 19.7658L22.3473 20.387L21.7231 21.018L21.0989 21.649L20.4844 22.2702Z" fill="black"/>
<path fill-rule="evenodd" clip-rule="evenodd" d="M19.8614 6.59323L19.2371 5.96221L18.6227 5.33119L17.9985 4.71003L17.384 4.07901L16.7598 3.45785L16.1356 2.82683L15.5211 2.19581L14.8969 1.57465L14.2727 0.943634L13.6582 1.57465L14.2727 2.19581L14.8969 2.82683L15.5211 3.45785L16.1356 4.07901L16.7598 4.71003L17.384 5.33119L17.9985 5.96221L18.6227 6.59323L19.2371 7.21439L19.8614 7.84541L20.4856 8.47643L21.1 9.09759L21.7243 9.72861L22.3485 10.3498L22.9629 10.9808L23.5872 11.6118L24.2016 12.233L24.8258 12.864L27.9274 15.9994L28.5516 15.3684L25.4501 12.233L24.8258 11.6118L24.2016 10.9808L23.5872 10.3498L22.9629 9.72861L22.3485 9.09759L21.7243 8.47643L21.1 7.84541L20.4856 7.21439L19.8614 6.59323Z" fill="black"/>
<path fill-rule="evenodd" clip-rule="evenodd" d="M6.20512 20.3869L5.59065 19.7658L4.96643 19.1348L4.34222 18.5136L3.72775 17.8826L3.10353 17.2516L2.48907 16.6304L1.86485 15.9994L1.24063 15.3684L0.626171 14.7472L0.00195312 15.3684L0.626171 15.9994L1.24063 16.6304L1.86485 17.2516L2.48907 17.8826L3.10353 18.5136L3.72775 19.1348L4.34222 19.7658L4.96643 20.3869L5.59065 21.018L6.20512 21.649L6.82933 22.2701L7.45355 22.9012L8.06802 23.5322L8.69223 24.1533L9.3067 24.7844L9.93091 25.4055L10.5551 26.0365L11.1696 26.6676L14.2712 29.8029L14.8954 29.1719L11.7938 26.0365L11.1696 25.4055L10.5551 24.7844L9.93091 24.1533L9.3067 23.5322L8.69223 22.9012L8.06802 22.2701L7.45355 21.649L6.82933 21.018L6.20512 20.3869Z" fill="black"/>
<path d="M24.8258 14.119L24.2051 14.7465L24.8258 15.374L25.4465 14.7465L24.8258 14.119Z" fill="black"/>
<path fill-rule="evenodd" clip-rule="evenodd" d="M23.5848 14.1162L24.1992 13.495L24.8235 14.1162L24.1992 14.7472L23.5848 15.3684L22.9606 15.9994L22.3363 16.6304L21.7219 17.2516L21.0977 16.6304L21.7219 15.9994L22.3363 15.3684L22.9606 14.7472L23.5848 14.1162Z" fill="black"/>
<path d="M5.58945 17.2521L4.96875 17.8796L5.58945 18.5071L6.21014 17.8796L5.58945 17.2521Z" fill="#FF0000"/>
<path d="M6.20859 17.8861L5.58789 18.5135L6.20859 19.141L6.82928 18.5135L6.20859 17.8861Z" fill="#FF0000"/>
<path d="M6.82773 18.5066L6.20703 19.134L6.82773 19.7615L7.44842 19.134L6.82773 18.5066Z" fill="#FF0000"/>
<path d="M7.44492 19.141L6.82422 19.7684L7.44492 20.3959L8.06561 19.7684L7.44492 19.141Z" fill="#FF0000"/>
<path d="M8.07187 19.7684L7.45117 20.3958L8.07187 21.0233L8.69256 20.3958L8.07187 19.7684Z" fill="#FF0000"/>
<path d="M8.69101 20.3888L8.07031 21.0163L8.69101 21.6438L9.31171 21.0163L8.69101 20.3888Z" fill="#FF0000"/>
<path d="M12.4117 24.1596L11.791 24.7871L12.4117 25.4146L13.0324 24.7871L12.4117 24.1596Z" fill="black"/>
<path d="M11.7906 23.5252L11.1699 24.1527L11.7906 24.7802L12.4113 24.1527L11.7906 23.5252Z" fill="black"/>
<path d="M11.1734 22.905L10.5527 23.5325L11.1734 24.1599L11.7941 23.5325L11.1734 22.905Z" fill="black"/>
<path fill-rule="evenodd" clip-rule="evenodd" d="M11.7938 21.018L11.1695 21.649L10.5551 22.2702L9.93086 22.9012L9.30664 22.2702L9.93086 21.649L10.5551 21.018L11.1695 20.3968L11.7938 21.018Z" fill="black"/>
<path d="M10.5543 22.2706L9.93359 22.8981L10.5543 23.5256L11.175 22.8981L10.5543 22.2706Z" fill="black"/>
<path d="M13.0367 24.7873L12.416 25.4147L13.0367 26.0422L13.6574 25.4147L13.0367 24.7873Z" fill="black"/>
<path d="M13.6539 25.4073L13.0332 26.0348L13.6539 26.6622L14.2746 26.0348L13.6539 25.4073Z" fill="black"/>
<path d="M14.8961 24.1571L14.2754 24.7845L14.8961 25.412L15.5168 24.7845L14.8961 24.1571Z" fill="black"/>
<path fill-rule="evenodd" clip-rule="evenodd" d="M14.8969 26.6675L14.2727 27.2887L13.6582 26.6675L14.2727 26.0365L14.8969 25.4154L15.5211 24.7843L16.1356 25.4154L15.5211 26.0365L14.8969 26.6675Z" fill="black"/>
<path d="M14.2711 23.5281L13.6504 24.1555L14.2711 24.783L14.8918 24.1555L14.2711 23.5281Z" fill="black"/>
<path d="M13.6598 22.9007L13.0391 23.5282L13.6598 24.1557L14.2805 23.5282L13.6598 22.9007Z" fill="black"/>
<path d="M13.0328 22.2733L12.4121 22.9008L13.0328 23.5282L13.6535 22.9008L13.0328 22.2733Z" fill="black"/>
<path d="M12.4059 21.646L11.7852 22.2735L12.4059 22.901L13.0265 22.2735L12.4059 21.646Z" fill="black"/>
<path d="M7.44296 16.6282L6.82227 17.2556L7.44296 17.8831L8.06366 17.2556L7.44296 16.6282Z" fill="black"/>
<path d="M8.06992 17.255L7.44922 17.8825L8.06992 18.51L8.69061 17.8825L8.06992 17.255Z" fill="black"/>
<path d="M8.69296 17.8833L8.07227 18.5107L8.69296 19.1382L9.31366 18.5107L8.69296 17.8833Z" fill="black"/>
<path d="M9.30624 18.5101L8.68555 19.1376L9.30624 19.765L9.92694 19.1376L9.30624 18.5101Z" fill="black"/>
<path d="M9.9332 19.1375L9.3125 19.765L9.9332 20.3924L10.5539 19.765L9.9332 19.1375Z" fill="black"/>
<path d="M6.82968 16.0013L6.20898 16.6288L6.82968 17.2562L7.45038 16.6288L6.82968 16.0013Z" fill="black"/>
<path d="M6.20663 15.3728L5.58594 16.0003L6.20663 16.6278L6.82733 16.0003L6.20663 15.3728Z" fill="black"/>
<path d="M7.44492 14.1228L6.82422 14.7502L7.44492 15.3777L8.06561 14.7502L7.44492 14.1228Z" fill="black"/>
<path d="M8.69101 15.3699L8.07031 15.9973L8.69101 16.6248L9.31171 15.9973L8.69101 15.3699Z" fill="black"/>
<path d="M9.3082 16.0049L8.6875 16.6324L9.3082 17.2598L9.92889 16.6324L9.3082 16.0049Z" fill="black"/>
<path d="M9.92734 16.6241L9.30664 17.2516L9.92734 17.879L10.548 17.2516L9.92734 16.6241Z" fill="black"/>
<path d="M10.5543 17.2523L9.93359 17.8798L10.5543 18.5072L11.175 17.8798L10.5543 17.2523Z" fill="black"/>
<path d="M11.1734 17.8866L10.5527 18.514L11.1734 19.1415L11.7941 18.514L11.1734 17.8866Z" fill="black"/>
<path d="M11.7906 18.507L11.1699 19.1344L11.7906 19.7619L12.4113 19.1344L11.7906 18.507Z" fill="black"/>
<path d="M12.4117 19.1415L11.791 19.7689L12.4117 20.3964L13.0324 19.7689L12.4117 19.1415Z" fill="black"/>
<path d="M14.275 21.0222L13.6543 21.6497L14.275 22.2772L14.8957 21.6497L14.275 21.0222Z" fill="black"/>
<path d="M13.6539 20.388L13.0332 21.0154L13.6539 21.6429L14.2746 21.0154L13.6539 20.388Z" fill="black"/>
<path d="M13.0367 19.7676L12.416 20.3951L13.0367 21.0225L13.6574 20.395L13.0367 19.7676Z" fill="black"/>
<path d="M14.8941 21.6434L14.2734 22.2708L14.8941 22.8983L15.5148 22.2708L14.8941 21.6434Z" fill="black"/>
<path d="M15.5172 22.2719L14.8965 22.8993L15.5172 23.5268L16.1379 22.8993L15.5172 22.2719Z" fill="black"/>
<path d="M16.1363 22.904L15.5156 23.5314L16.1363 24.1589L16.757 23.5314L16.1363 22.904Z" fill="black"/>
<path d="M16.7574 23.5255L16.1367 24.1529L16.7574 24.7804L17.3781 24.1529L16.7574 23.5255Z" fill="black"/>
<path d="M16.7613 21.0196L16.1406 21.6471L16.7613 22.2746L17.382 21.6471L16.7613 21.0196Z" fill="black"/>
<path d="M17.3707 21.647L16.75 22.2745L17.3707 22.902L17.9914 22.2745L17.3707 21.647Z" fill="black"/>
<path d="M18.6187 20.3895L17.998 21.017L18.6187 21.6444L19.2394 21.017L18.6187 20.3895Z" fill="black"/>
<path d="M17.9996 19.7691L17.3789 20.3966L17.9996 21.0241L18.6203 20.3966L17.9996 19.7691Z" fill="black"/>
<path fill-rule="evenodd" clip-rule="evenodd" d="M18.6215 22.9011L17.9973 23.5321L17.373 22.9011L17.9973 22.2701L18.6215 21.6489L19.2359 21.0179L19.8602 21.6489L19.2359 22.2701L18.6215 22.9011Z" fill="black"/>
<path d="M16.1344 20.3921L15.5137 21.0195L16.1344 21.647L16.7551 21.0195L16.1344 20.3921Z" fill="black"/>
<path d="M15.5211 19.7647L14.9004 20.3922L15.5211 21.0196L16.1418 20.3922L15.5211 19.7647Z" fill="black"/>
<path d="M14.8961 19.1375L14.2754 19.7649L14.8961 20.3924L15.5168 19.7649L14.8961 19.1375Z" fill="black"/>
<path d="M14.2711 18.5101L13.6504 19.1375L14.2711 19.765L14.8918 19.1375L14.2711 18.5101Z" fill="black"/>
<path d="M13.6598 17.8827L13.0391 18.5102L13.6598 19.1377L14.2805 18.5102L13.6598 17.8827Z" fill="black"/>
<path d="M6.20859 12.8671L5.58789 13.4945L6.20859 14.122L6.82928 13.4945L6.20859 12.8671Z" fill="black"/>
<path d="M7.44296 11.6096L6.82227 12.237L7.44296 12.8645L8.06366 12.237L7.44296 11.6096Z" fill="black"/>
<path fill-rule="evenodd" clip-rule="evenodd" d="M8.6926 10.3498L8.06838 10.9808L7.44416 11.6118L6.8297 12.233L6.20548 12.864L5.59101 13.495L4.9668 12.864L5.59101 12.233L6.20548 11.6118L6.8297 10.9808L7.44416 10.3498L8.06838 9.72861L8.6926 10.3498Z" fill="black"/>
<path d="M8.69101 10.3518L8.07031 10.9792L8.69101 11.6067L9.31171 10.9792L8.69101 10.3518Z" fill="black"/>
<path d="M9.3082 10.9858L8.6875 11.6133L9.3082 12.2407L9.92889 11.6133L9.3082 10.9858Z" fill="black"/>
<path d="M9.92734 11.6056L9.30664 12.2331L9.92734 12.8605L10.548 12.2331L9.92734 11.6056Z" fill="black"/>
<path d="M10.5543 12.2342L9.93359 12.8616L10.5543 13.4891L11.175 12.8616L10.5543 12.2342Z" fill="black"/>
<path fill-rule="evenodd" clip-rule="evenodd" d="M10.5551 14.7472L9.93086 15.3782L9.30664 14.7472L9.93086 14.1161L10.5551 13.495L11.1695 12.864L11.7938 13.495L11.1695 14.1161L10.5551 14.7472Z" fill="black"/>
<path d="M10.5562 14.7464L9.93555 15.3739L10.5562 16.0014L11.1769 15.3739L10.5562 14.7464Z" fill="black"/>
<path fill-rule="evenodd" clip-rule="evenodd" d="M13.0321 14.7472L12.4078 15.3782L11.7934 15.9994L11.1692 16.6304L10.5547 15.9994L11.1692 15.3782L11.7934 14.7472L12.4078 14.1161L13.0321 14.7472Z" fill="black"/>
<path d="M13.0367 14.75L12.416 15.3775L13.0367 16.005L13.6574 15.3775L13.0367 14.75Z" fill="black"/>
<path d="M16.7574 18.5076L16.1367 19.135L16.7574 19.7625L17.3781 19.135L16.7574 18.5076Z" fill="black"/>
<path d="M16.1363 17.8872L15.5156 18.5146L16.1363 19.1421L16.757 18.5146L16.1363 17.8872Z" fill="black"/>
<path d="M15.5172 17.253L14.8965 17.8804L15.5172 18.5079L16.1379 17.8804L15.5172 17.253Z" fill="black"/>
<path d="M14.8941 16.6256L14.2734 17.253L14.8941 17.8805L15.5148 17.253L14.8941 16.6256Z" fill="black"/>
<path d="M14.273 16.0052L13.6523 16.6327L14.273 17.2601L14.8937 16.6327L14.273 16.0052Z" fill="black"/>
<path fill-rule="evenodd" clip-rule="evenodd" d="M13.0336 17.2516L12.4094 17.8826L11.7949 17.2516L12.4094 16.6304L13.0336 15.9994L13.6578 15.3782L14.2723 15.9994L13.6578 16.6304L13.0336 17.2516Z" fill="black"/>
<path d="M8.69296 12.8641L8.07227 13.4915L8.69296 14.119L9.31366 13.4915L8.69296 12.8641Z" fill="#FF0000"/>
<path d="M4.9664 14.1192L4.3457 14.7467L4.9664 15.3741L5.5871 14.7467L4.9664 14.1192Z" fill="black"/>
<path fill-rule="evenodd" clip-rule="evenodd" d="M3.72695 15.3782L3.10273 15.9994L2.47852 15.3782L3.10273 14.7472L3.72695 14.1162L4.34141 13.495L4.96563 14.1162L4.34141 14.7472L3.72695 15.3782Z" fill="black"/>
<path d="M3.72617 15.3698L3.10547 15.9972L3.72617 16.6247L4.34686 15.9972L3.72617 15.3698Z" fill="black"/>
<path fill-rule="evenodd" clip-rule="evenodd" d="M4.96915 16.6304L4.34493 17.2516L3.73047 16.6304L4.34493 15.9994L4.96915 15.3782L5.59337 14.7472L6.20783 14.1162L6.83205 13.495L7.44651 14.1162L6.83205 14.7472L6.20783 15.3782L5.59337 15.9994L4.96915 16.6304Z" fill="black"/>
<path d="M42.0968 12.3435C42.0968 10.5095 42.1307 8.45275 42.1646 7.23582H42.0968C41.6051 9.42973 40.5369 13.012 39.5196 16.3714H37.5698C36.7898 13.4405 35.6877 9.36118 35.2299 7.21868H35.1621C35.2469 8.48704 35.2978 10.6981 35.2978 12.5321V16.3714H33.1953V5.62466H36.6203C37.4511 8.43562 38.3836 11.9493 38.6888 13.5605H38.7057C38.9601 12.155 40.13 8.3842 41.0117 5.62466H44.301V16.3714H42.0968V12.3435Z" fill="white"/>
<path d="M49.0305 5.62469V12.0179C49.0305 14.0747 50.0817 14.6917 51.2177 14.6917C52.5402 14.6917 53.3541 13.9719 53.3541 12.0179V5.62469H55.66V11.9151C55.66 15.583 53.5406 16.5257 51.1838 16.5257C48.7931 16.5257 46.7246 15.5487 46.7246 11.9665V5.64184H49.0305V5.62469Z" fill="white"/>
<path d="M58.084 16.3714V5.62466H60.9325C62.255 8.0414 64.7135 12.3949 65.2052 13.5605H65.2391C65.1204 12.4464 65.1204 10.5781 65.1204 8.8127V5.62466H67.2059V16.3714H64.51C63.374 14.2803 60.6442 9.27548 60.1186 8.0414H60.0847C60.1695 8.9841 60.1864 11.1951 60.1864 13.1148V16.3886H58.084V16.3714Z" fill="white"/>
<path d="M72.0364 5.62466V16.3714H69.7305V5.62466H72.0364Z" fill="#FF0000"/>
<path d="M76.8357 12.0693V16.3714H74.5977V5.62466H79.2603C81.5832 5.62466 82.8209 6.91016 82.8209 8.57274C82.8209 10.0125 82.041 10.8009 81.278 11.1095C81.8036 11.298 82.6005 11.8636 82.6005 13.7833V14.3146C82.6005 15.0345 82.6005 15.8572 82.7531 16.3543H80.5828C80.3963 15.8915 80.3624 15.0859 80.3624 13.9375V13.7833C80.3624 12.6006 80.0742 12.0521 78.3617 12.0521H76.8357V12.0693ZM76.8357 10.2182H78.7686C80.0233 10.2182 80.515 9.73825 80.515 8.82983C80.515 7.9557 79.9555 7.45864 78.8195 7.45864H76.8357V10.2182Z" fill="white"/>
<path d="M72.0383 2.21393V4.52782H69.7324V2.21393H72.0383Z" fill="#FF0000"/>
<path d="M38.5023 22.4562C38.5023 21.445 38.5192 20.4166 38.5362 19.8338H38.5192C38.248 20.7251 37.2476 23.0733 36.5355 24.7873H35.7895C35.2469 23.3818 34.2126 20.7594 33.9244 19.8338H33.9074C33.9583 20.468 33.9753 21.6849 33.9753 22.6105V24.7873H33.1953V19.3196H34.433C35.1282 21.0165 35.9929 23.2104 36.2133 23.896H36.2303C36.3829 23.3646 37.4002 20.965 38.1293 19.3196H39.3161V24.7873H38.5023V22.4562Z" fill="white"/>
<path d="M44.7401 23.1418L44.0789 24.7873H43.248L45.4692 19.3196H46.4865L48.7924 24.7873H47.9107L47.2156 23.1418H44.7401ZM47.0121 22.5248C46.4187 21.085 46.0965 20.3309 45.9609 19.9024H45.9439C45.7913 20.3651 45.4353 21.2907 44.9436 22.5248H47.0121Z" fill="white"/>
<path d="M53.5443 22.3877V24.7873H52.7305V19.3196H55.1551C56.4267 19.3196 57.1049 19.9366 57.1049 20.7765C57.1049 21.4792 56.6471 21.9249 56.0537 22.062C56.5623 22.182 57.0032 22.5076 57.0032 23.4675V23.7074C57.0032 24.0845 56.9862 24.5644 57.088 24.7873H56.2911C56.1724 24.5473 56.1893 24.1188 56.1893 23.6046V23.4846C56.1893 22.7133 55.935 22.3705 54.8329 22.3705H53.5443V22.3877ZM53.5443 21.7706H54.9007C55.8502 21.7706 56.2741 21.4621 56.2741 20.8451C56.2741 20.2623 55.8502 19.9366 55.0025 19.9366H53.5443V21.7706Z" fill="white"/>
<path d="M61.4421 19.3196H62.256V21.9934C62.7138 21.5649 64.2906 20.1937 65.274 19.3196H66.2913L63.6124 21.6164L66.41 24.7701H65.4096L63.0189 22.0791L62.2221 22.7133V24.7701H61.4082V19.3196H61.4421Z" fill="white"/>
<path d="M74.0716 22.2334H70.9857V24.1702H74.3768L74.275 24.7873H70.1719V19.3196H74.2242V19.9366H70.9857V21.5992H74.0716V22.2334Z" fill="white"/>
<path d="M79.9753 19.9366H77.9746V19.3196H82.8238V19.9366H80.8061V24.7873H79.9753V19.9366Z" fill="white"/>
</svg>