<svg xmlns:xlink="http://www.w3.org/1999/xlink" xmlns="http://www.w3.org/2000/svg" width="131" height="36" viewBox="0 0 131 36" fill="none">
<g opacity="0.75">
<path d="M40.8516 29.1832C40.8516 28.7608 40.9802 28.4286 41.2374 28.1867C41.4982 27.9448 41.7988 27.8238 42.1394 27.8238C42.3314 27.8238 42.5034 27.8545 42.6556 27.9159C42.8077 27.9737 42.9291 28.0531 43.0196 28.1542C43.1138 28.2553 43.1917 28.3708 43.2533 28.5008C43.3149 28.6308 43.3475 28.7662 43.3511 28.907C43.3583 29.0442 43.3511 29.1832 43.3294 29.324H41.1613C41.1794 29.6345 41.2989 29.8692 41.5199 30.0281C41.7409 30.1833 42.0108 30.261 42.3295 30.261C42.6556 30.261 42.9399 30.1905 43.1826 30.0497V30.353C42.9472 30.4794 42.6483 30.5426 42.2861 30.5426C41.8767 30.5426 41.5344 30.427 41.2591 30.196C40.9874 29.9649 40.8516 29.6273 40.8516 29.1832ZM43.0577 29.0532C43.083 28.8257 43.0214 28.6109 42.8729 28.4087C42.728 28.2065 42.4907 28.1054 42.1611 28.1054C41.893 28.1054 41.663 28.1903 41.471 28.36C41.279 28.5261 41.1758 28.7571 41.1613 29.0532H43.0577Z" fill="white"/>
<path d="M45.3294 31.2033H45.0306V30.2068H45.3729C45.5395 29.8891 45.6609 29.5497 45.737 29.1886C45.813 28.8239 45.8493 28.3889 45.8456 27.8834H47.7094V30.2068H48.0898V31.2033H47.7855V30.483H45.3294V31.2033ZM46.1391 28.1596C46.1282 28.9395 45.9833 29.6219 45.7044 30.2068H47.4051V28.1596H46.1391Z" fill="white"/>
<path d="M50.318 30.483H50.0518V27.8834H50.3615V29.9902L52.1274 27.8834H52.3937V30.483H52.0894V28.3762L50.318 30.483Z" fill="white"/>
<path d="M54.9091 30.483H54.5993V27.8834H54.9091V29.0424H56.6044V27.8834H56.9087V30.483H56.6044V29.324H54.9091V30.483Z" fill="white"/>
<path d="M61.1636 30.0118C61.1636 30.1635 61.2415 30.2393 61.3972 30.2393C61.4552 30.2393 61.5222 30.2267 61.5983 30.2014V30.4505C61.5005 30.4866 61.4063 30.5047 61.3157 30.5047C61.0404 30.5047 60.8901 30.3711 60.8647 30.1039C60.5931 30.3964 60.2362 30.5426 59.7943 30.5426C59.5443 30.5426 59.3306 30.4776 59.1531 30.3476C58.9756 30.214 58.8869 30.0227 58.8869 29.7735C58.8869 29.4775 58.9992 29.2626 59.2237 29.129C59.4483 28.9918 59.72 28.9232 60.0388 28.9232C60.3177 28.9232 60.5912 28.9611 60.8593 29.037V28.8637C60.8593 28.6326 60.7869 28.4484 60.642 28.3112C60.4971 28.174 60.2924 28.1054 60.0279 28.1054C59.6947 28.1054 59.3831 28.1668 59.0933 28.2896V27.9863C59.4013 27.878 59.7237 27.8238 60.0605 27.8238C60.4083 27.8238 60.6782 27.9177 60.8702 28.1054C61.0658 28.2932 61.1636 28.5586 61.1636 28.9016V30.0118ZM59.202 29.7573C59.202 29.927 59.2654 30.057 59.3922 30.1472C59.519 30.2339 59.6729 30.2772 59.8541 30.2772C60.0533 30.2772 60.2417 30.2339 60.4192 30.1472C60.5967 30.057 60.7434 29.9306 60.8593 29.7681V29.2915C60.584 29.2193 60.325 29.1832 60.0823 29.1832C59.8359 29.1832 59.6277 29.2301 59.4574 29.324C59.2871 29.4143 59.202 29.5587 59.202 29.7573Z" fill="white"/>
<path d="M63.5593 30.483H63.1953L63.9723 29.4865C63.7658 29.4359 63.6046 29.3403 63.4887 29.1994C63.3728 29.0586 63.3148 28.8925 63.3148 28.7012C63.3148 28.4665 63.4018 28.2715 63.5756 28.1163C63.7495 27.961 63.9868 27.8834 64.2875 27.8834H65.5318V30.483H65.2221V29.519H64.3038L63.5593 30.483ZM63.8039 28.3058C63.6843 28.4033 63.6245 28.5351 63.6245 28.7012C63.6245 28.8673 63.6861 28.9991 63.8093 29.0965C63.9325 29.194 64.1009 29.2428 64.3146 29.2428H65.2275V28.1596H64.3146C64.0973 28.1596 63.927 28.2083 63.8039 28.3058Z" fill="white"/>
<path d="M73.0133 29.2644C73.0133 29.6544 72.8919 29.9649 72.6492 30.196C72.4065 30.427 72.0877 30.5426 71.6929 30.5426C71.2908 30.5426 70.9647 30.4072 70.7148 30.1364C70.4685 29.8656 70.3453 29.5009 70.3453 29.0424C70.3453 28.6308 70.4195 28.2715 70.5681 27.9646C70.7202 27.6541 70.9176 27.423 71.1603 27.2714C71.3668 27.145 71.5806 27.053 71.8015 26.9952C72.0261 26.9374 72.2181 26.8887 72.3775 26.849C72.5369 26.8056 72.6673 26.7334 72.7687 26.6323V26.9573C72.6673 27.0367 72.5423 27.0963 72.3938 27.136C72.2489 27.1721 72.0805 27.2154 71.8885 27.266C71.7001 27.3165 71.5172 27.3942 71.3397 27.4989C71.0028 27.7047 70.7746 28.0766 70.655 28.6145C70.7528 28.4232 70.8995 28.2715 71.0951 28.1596C71.2908 28.0477 71.5045 27.9917 71.7363 27.9917C72.095 27.9917 72.3974 28.1109 72.6438 28.3492C72.8901 28.5838 73.0133 28.8889 73.0133 29.2644ZM70.655 29.1994C70.655 29.5027 70.7492 29.7537 70.9376 29.9523C71.1296 30.1508 71.3795 30.2501 71.6874 30.2501C71.999 30.2501 72.2471 30.1599 72.4318 29.9793C72.6166 29.7952 72.709 29.5587 72.709 29.2699C72.709 28.981 72.6166 28.7445 72.4318 28.5604C72.2471 28.3762 72.0026 28.2842 71.6983 28.2842C71.423 28.2842 71.1875 28.3708 70.9919 28.5441C70.7963 28.7138 70.684 28.9323 70.655 29.1994Z" fill="white"/>
<path d="M74.8603 29.1832C74.8603 28.7608 74.9889 28.4286 75.2461 28.1867C75.5069 27.9448 75.8075 27.8238 76.1481 27.8238C76.34 27.8238 76.5121 27.8545 76.6643 27.9159C76.8164 27.9737 76.9378 28.0531 77.0283 28.1542C77.1225 28.2553 77.2004 28.3708 77.262 28.5008C77.3236 28.6308 77.3562 28.7662 77.3598 28.907C77.367 29.0442 77.3598 29.1832 77.3381 29.324H75.17C75.1881 29.6345 75.3076 29.8692 75.5286 30.0281C75.7496 30.1833 76.0195 30.261 76.3382 30.261C76.6643 30.261 76.9486 30.1905 77.1913 30.0497V30.353C76.9559 30.4794 76.657 30.5426 76.2948 30.5426C75.8854 30.5426 75.5431 30.427 75.2678 30.196C74.9961 29.9649 74.8603 29.6273 74.8603 29.1832ZM77.0664 29.0532C77.0917 28.8257 77.0301 28.6109 76.8816 28.4087C76.7367 28.2065 76.4994 28.1054 76.1698 28.1054C75.9017 28.1054 75.6717 28.1903 75.4797 28.36C75.2877 28.5261 75.1845 28.7571 75.17 29.0532H77.0664Z" fill="white"/>
<path d="M81.2389 29.7898C81.2389 30.0353 81.1357 30.223 80.9292 30.353C80.7227 30.4794 80.4474 30.5426 80.1033 30.5426C79.741 30.5426 79.4259 30.4776 79.1578 30.3476V30.0552C79.4223 30.1924 79.7265 30.261 80.0707 30.261C80.643 30.261 80.9292 30.0931 80.9292 29.7573C80.9292 29.5984 80.8676 29.4829 80.7445 29.4107C80.6213 29.3385 80.4782 29.3023 80.3152 29.3023H79.7066V29.0207H80.3152C80.6883 29.0027 80.8749 28.8619 80.8749 28.5983C80.8749 28.4358 80.8006 28.313 80.6521 28.23C80.5072 28.147 80.317 28.1054 80.0815 28.1054C79.77 28.1054 79.4748 28.1704 79.1958 28.3004V28.0134C79.4929 27.8834 79.799 27.8184 80.1142 27.8184C80.4474 27.8184 80.7082 27.8852 80.8966 28.0188C81.0886 28.1488 81.1846 28.3293 81.1846 28.5604C81.1846 28.7156 81.1393 28.8456 81.0488 28.9503C80.9618 29.0514 80.8405 29.1182 80.6847 29.1507C80.8405 29.1904 80.9709 29.2662 81.0759 29.3782C81.1846 29.4901 81.2389 29.6273 81.2389 29.7898Z" fill="white"/>
<path d="M83.5032 30.1797C83.2351 29.9342 83.1011 29.602 83.1011 29.1832C83.1011 28.7644 83.2351 28.434 83.5032 28.1921C83.7749 27.9466 84.0973 27.8238 84.4704 27.8238C84.8471 27.8238 85.1695 27.9466 85.4376 28.1921C85.7093 28.434 85.8451 28.7644 85.8451 29.1832C85.8451 29.602 85.7093 29.9342 85.4376 30.1797C85.1695 30.4216 84.8471 30.5426 84.4704 30.5426C84.0973 30.5426 83.7749 30.4216 83.5032 30.1797ZM85.2311 29.9631C85.434 29.7717 85.5354 29.5118 85.5354 29.1832C85.5354 28.8546 85.434 28.5947 85.2311 28.4033C85.0283 28.212 84.7765 28.1163 84.4758 28.1163C84.1752 28.1163 83.9216 28.212 83.7151 28.4033C83.5122 28.5947 83.4108 28.8546 83.4108 29.1832C83.4108 29.5118 83.5122 29.7717 83.7151 29.9631C83.9216 30.1544 84.1752 30.2501 84.4758 30.2501C84.7765 30.2501 85.0283 30.1544 85.2311 29.9631Z" fill="white"/>
<path d="M88.1802 30.483H87.8704V27.8834H90.1798V30.483H89.8755V28.1704H88.1802V30.483Z" fill="white"/>
<path d="M94.4347 30.0118C94.4347 30.1635 94.5126 30.2393 94.6684 30.2393C94.7263 30.2393 94.7933 30.2267 94.8694 30.2014V30.4505C94.7716 30.4866 94.6774 30.5047 94.5869 30.5047C94.3116 30.5047 94.1612 30.3711 94.1359 30.1039C93.8642 30.3964 93.5074 30.5426 93.0654 30.5426C92.8155 30.5426 92.6017 30.4776 92.4242 30.3476C92.2467 30.214 92.158 30.0227 92.158 29.7735C92.158 29.4775 92.2703 29.2626 92.4949 29.129C92.7195 28.9918 92.9911 28.9232 93.3099 28.9232C93.5889 28.9232 93.8624 28.9611 94.1304 29.037V28.8637C94.1304 28.6326 94.058 28.4484 93.9131 28.3112C93.7682 28.174 93.5635 28.1054 93.2991 28.1054C92.9658 28.1054 92.6543 28.1668 92.3645 28.2896V27.9863C92.6724 27.878 92.9948 27.8238 93.3317 27.8238C93.6794 27.8238 93.9493 27.9177 94.1413 28.1054C94.3369 28.2932 94.4347 28.5586 94.4347 28.9016V30.0118ZM92.4731 29.7573C92.4731 29.927 92.5365 30.057 92.6633 30.1472C92.7901 30.2339 92.9441 30.2772 93.1252 30.2772C93.3244 30.2772 93.5128 30.2339 93.6903 30.1472C93.8678 30.057 94.0145 29.9306 94.1304 29.7681V29.2915C93.8551 29.2193 93.5961 29.1832 93.3534 29.1832C93.1071 29.1832 92.8988 29.2301 92.7285 29.324C92.5583 29.4143 92.4731 29.5587 92.4731 29.7573Z" fill="white"/>
<path d="M96.5316 29.1994C96.5316 28.8962 96.6022 28.638 96.7435 28.425C96.8884 28.2083 97.0641 28.0549 97.2706 27.9646C97.4771 27.8708 97.6998 27.8238 97.9389 27.8238C98.2577 27.8238 98.5203 27.8942 98.7268 28.035V28.3329C98.524 28.1813 98.274 28.1054 97.977 28.1054C97.6654 28.1054 97.3974 28.1975 97.1728 28.3816C96.9518 28.5658 96.8413 28.8366 96.8413 29.194C96.8413 29.537 96.9482 29.8006 97.1619 29.9847C97.3793 30.1689 97.6401 30.261 97.9444 30.261C98.245 30.261 98.5149 30.1905 98.754 30.0497V30.3584C98.5077 30.4812 98.2233 30.5426 97.9009 30.5426C97.5314 30.5426 97.2108 30.427 96.9391 30.196C96.6674 29.9649 96.5316 29.6327 96.5316 29.1994Z" fill="white"/>
<path d="M101.085 30.483H100.776V27.8834H101.085V29.0424H102.781V27.8834H103.085V30.483H102.781V29.324H101.085V30.483Z" fill="white"/>
<path d="M107.34 30.0118C107.34 30.1635 107.418 30.2393 107.574 30.2393C107.631 30.2393 107.699 30.2267 107.775 30.2014V30.4505C107.677 30.4866 107.583 30.5047 107.492 30.5047C107.217 30.5047 107.066 30.3711 107.041 30.1039C106.769 30.3964 106.413 30.5426 105.971 30.5426C105.721 30.5426 105.507 30.4776 105.329 30.3476C105.152 30.214 105.063 30.0227 105.063 29.7735C105.063 29.4775 105.175 29.2626 105.4 29.129C105.625 28.9918 105.896 28.9232 106.215 28.9232C106.494 28.9232 106.768 28.9611 107.036 29.037V28.8637C107.036 28.6326 106.963 28.4484 106.818 28.3112C106.673 28.174 106.469 28.1054 106.204 28.1054C105.871 28.1054 105.559 28.1668 105.27 28.2896V27.9863C105.578 27.878 105.9 27.8238 106.237 27.8238C106.585 27.8238 106.854 27.9177 107.046 28.1054C107.242 28.2932 107.34 28.5586 107.34 28.9016V30.0118ZM105.378 29.7573C105.378 29.927 105.442 30.057 105.568 30.1472C105.695 30.2339 105.849 30.2772 106.03 30.2772C106.23 30.2772 106.418 30.2339 106.595 30.1472C106.773 30.057 106.92 29.9306 107.036 29.7681V29.2915C106.76 29.2193 106.501 29.1832 106.259 29.1832C106.012 29.1832 105.804 29.2301 105.634 29.324C105.463 29.4143 105.378 29.5587 105.378 29.7573Z" fill="white"/>
<path d="M109.736 30.483H109.372L110.149 29.4865C109.942 29.4359 109.781 29.3403 109.665 29.1994C109.549 29.0586 109.491 28.8925 109.491 28.7012C109.491 28.4665 109.578 28.2715 109.752 28.1163C109.926 27.961 110.163 27.8834 110.464 27.8834H111.708V30.483H111.398V29.519H110.48L109.736 30.483ZM109.98 28.3058C109.861 28.4033 109.801 28.5351 109.801 28.7012C109.801 28.8673 109.862 28.9991 109.986 29.0965C110.109 29.194 110.277 29.2428 110.491 29.2428H111.404V28.1596H110.491C110.274 28.1596 110.103 28.2083 109.98 28.3058Z" fill="white"/>
<path d="M116.489 29.1994C116.489 28.8962 116.56 28.638 116.701 28.425C116.846 28.2083 117.021 28.0549 117.228 27.9646C117.434 27.8708 117.657 27.8238 117.896 27.8238C118.215 27.8238 118.478 27.8942 118.684 28.035V28.3329C118.481 28.1813 118.231 28.1054 117.934 28.1054C117.623 28.1054 117.355 28.1975 117.13 28.3816C116.909 28.5658 116.799 28.8366 116.799 29.194C116.799 29.537 116.906 29.8006 117.119 29.9847C117.337 30.1689 117.597 30.261 117.902 30.261C118.202 30.261 118.472 30.1905 118.711 30.0497V30.3584C118.465 30.4812 118.181 30.5426 117.858 30.5426C117.489 30.5426 117.168 30.427 116.896 30.196C116.625 29.9649 116.489 29.6327 116.489 29.1994Z" fill="white"/>
<path d="M120.495 29.1832C120.495 28.7608 120.624 28.4286 120.881 28.1867C121.142 27.9448 121.443 27.8238 121.783 27.8238C121.975 27.8238 122.147 27.8545 122.299 27.9159C122.451 27.9737 122.573 28.0531 122.663 28.1542C122.758 28.2553 122.835 28.3708 122.897 28.5008C122.959 28.6308 122.991 28.7662 122.995 28.907C123.002 29.0442 122.995 29.1832 122.973 29.324H120.805C120.823 29.6345 120.943 29.8692 121.164 30.0281C121.385 30.1833 121.654 30.261 121.973 30.261C122.299 30.261 122.584 30.1905 122.826 30.0497V30.353C122.591 30.4794 122.292 30.5426 121.93 30.5426C121.52 30.5426 121.178 30.427 120.903 30.196C120.631 29.9649 120.495 29.6273 120.495 29.1832ZM122.701 29.0532C122.727 28.8257 122.665 28.6109 122.517 28.4087C122.372 28.2065 122.134 28.1054 121.805 28.1054C121.537 28.1054 121.307 28.1903 121.115 28.36C120.923 28.5261 120.82 28.7571 120.805 29.0532H122.701Z" fill="white"/>
<path d="M125.93 30.483H125.62V28.1704H124.609V27.8834H126.94V28.1704H125.93V30.483Z" fill="white"/>
<path d="M130.005 30.483H128.809V27.8834H129.119V28.8312H130.005C130.305 28.8312 130.546 28.9088 130.727 29.064C130.909 29.2193 130.999 29.4161 130.999 29.6544C130.999 29.8963 130.909 30.0949 130.727 30.2501C130.546 30.4054 130.305 30.483 130.005 30.483ZM129.114 29.1074V30.2068H129.961C130.186 30.2068 130.362 30.1581 130.488 30.0606C130.619 29.9631 130.684 29.8277 130.684 29.6544C130.684 29.4811 130.619 29.3475 130.488 29.2536C130.358 29.1561 130.182 29.1074 129.961 29.1074H129.114Z" fill="white"/>
</g>
<path d="M41.4264 18.2512C41.0432 17.1884 40.8516 16.0675 40.8516 14.8885C40.8516 13.7094 41.0432 12.5885 41.4264 11.5257C41.8262 10.4629 42.3927 9.50805 43.1258 8.66113C43.8589 7.79761 44.8252 7.11675 46.0248 6.61856C47.2244 6.10377 48.5656 5.84637 50.0485 5.84637C51.5313 5.84637 52.8642 6.10377 54.0471 6.61856C55.2467 7.11675 56.2131 7.79761 56.9462 8.66113C57.6959 9.50805 58.2624 10.4629 58.6456 11.5257C59.0455 12.5885 59.2454 13.7094 59.2454 14.8885C59.2454 16.0675 59.0455 17.1884 58.6456 18.2512C58.2624 19.314 57.6959 20.2772 56.9462 21.1407C56.2131 21.9876 55.2467 22.6685 54.0471 23.1833C52.8642 23.6815 51.5313 23.9306 50.0485 23.9306C48.5656 23.9306 47.2244 23.6815 46.0248 23.1833C44.8252 22.6685 43.8589 21.9876 43.1258 21.1407C42.3927 20.2772 41.8262 19.314 41.4264 18.2512ZM54.6969 19.422C55.7965 18.1931 56.3464 16.6819 56.3464 14.8885C56.3464 13.095 55.7965 11.5838 54.6969 10.355C53.6139 9.12611 52.0645 8.51168 50.0485 8.51168C48.0491 8.51168 46.4997 9.12611 45.4 10.355C44.3004 11.5838 43.7506 13.095 43.7506 14.8885C43.7506 16.6819 44.3004 18.1931 45.4 19.422C46.4997 20.6508 48.0491 21.2653 50.0485 21.2653C52.0645 21.2653 53.6139 20.6508 54.6969 19.422Z" fill="white"/>
<path d="M64.1818 13.2943C65.2814 11.9824 66.6726 11.3264 68.3554 11.3264C69.8549 11.3264 71.0545 11.7831 71.9542 12.6964C72.8539 13.5932 73.3037 14.7639 73.3037 16.2087V23.6067H70.6296V16.5574C70.6296 15.6274 70.3714 14.9217 69.8549 14.4401C69.3384 13.9419 68.6636 13.6928 67.8306 13.6928C66.5144 13.6928 65.3981 14.3571 64.4817 15.6856V23.6067H61.8076V11.6503H64.1818V13.2943Z" fill="white"/>
<path d="M75.7502 17.6285C75.7502 16.5989 75.9335 15.669 76.3 14.8386C76.6666 13.9917 77.1497 13.3275 77.7495 12.8459C78.3493 12.3477 78.9991 11.9741 79.6989 11.725C80.3986 11.4593 81.1067 11.3264 81.8232 11.3264C82.7395 11.3264 83.5642 11.4676 84.2973 11.7499C85.0471 12.0322 85.6469 12.4141 86.0967 12.8957C86.5466 13.3773 86.9131 13.9336 87.1963 14.5646C87.4796 15.1957 87.6295 15.8599 87.6462 16.5574C87.6629 17.2382 87.6045 17.9274 87.4713 18.6249H78.4493C78.5826 19.6378 79.0824 20.4017 79.9488 20.9165C80.8152 21.4147 81.8481 21.6638 83.0477 21.6638C84.414 21.6638 85.6802 21.3815 86.8465 20.8169V23.1085C85.6969 23.6566 84.264 23.9306 82.5479 23.9306C80.5986 23.9306 78.9741 23.3826 77.6745 22.2865C76.3916 21.1905 75.7502 19.6378 75.7502 17.6285ZM85.0721 16.6321C85.172 15.9513 84.9638 15.2704 84.4473 14.5896C83.9474 13.8921 83.1144 13.5434 81.9481 13.5434C80.9984 13.5434 80.182 13.8174 79.4989 14.3654C78.8325 14.9134 78.4743 15.669 78.4243 16.6321H85.0721Z" fill="white"/>
<path d="M93.4905 23.6067H90.6415V6.1702H93.3156L102.737 18.9238C102.721 18.5252 102.712 17.8859 102.712 17.0058V6.1702H105.561V23.6067H102.887L93.4655 10.8532C93.4822 11.2517 93.4905 11.8827 93.4905 12.7463V23.6067Z" fill="white"/>
<path d="M108.308 17.6285C108.308 16.5989 108.491 15.669 108.857 14.8386C109.224 13.9917 109.707 13.3275 110.307 12.8459C110.907 12.3477 111.557 11.9741 112.256 11.725C112.956 11.4593 113.664 11.3264 114.381 11.3264C115.297 11.3264 116.122 11.4676 116.855 11.7499C117.604 12.0322 118.204 12.4141 118.654 12.8957C119.104 13.3773 119.471 13.9336 119.754 14.5646C120.037 15.1957 120.187 15.8599 120.204 16.5574C120.22 17.2382 120.162 17.9274 120.029 18.6249H111.007C111.14 19.6378 111.64 20.4017 112.506 20.9165C113.373 21.4147 114.406 21.6638 115.605 21.6638C116.971 21.6638 118.238 21.3815 119.404 20.8169V23.1085C118.254 23.6566 116.821 23.9306 115.105 23.9306C113.156 23.9306 111.532 23.3826 110.232 22.2865C108.949 21.1905 108.308 19.6378 108.308 17.6285ZM117.629 16.6321C117.729 15.9513 117.521 15.2704 117.005 14.5896C116.505 13.8921 115.672 13.5434 114.506 13.5434C113.556 13.5434 112.739 13.8174 112.056 14.3654C111.39 14.9134 111.032 15.669 110.982 16.6321H117.629Z" fill="white"/>
<path d="M123.624 8.0384L126.273 7.39075V11.6503H130.621V13.9917H126.273V19.4718C126.273 20.2357 126.448 20.7754 126.798 21.0909C127.164 21.4064 127.747 21.5642 128.547 21.5642C129.364 21.5642 130.172 21.4064 130.971 21.0909V23.3826C130.005 23.7313 128.93 23.9056 127.747 23.9056C126.514 23.9056 125.515 23.5818 124.748 22.9342C123.999 22.2865 123.624 21.2985 123.624 19.97V13.9917H121.474V11.6503H123.624V8.0384Z" fill="white"/>
<ellipse cx="17.1249" cy="34.4801" rx="1.02331" ry="1.01994" fill="#FF3E2D"/>
<path fill-rule="evenodd" clip-rule="evenodd" d="M13.4653 31.2056C13.0795 31.2056 12.7666 31.5097 12.5042 31.7926C12.2877 32.0258 11.978 32.1719 11.6341 32.1719C10.9797 32.1719 10.4492 31.6431 10.4492 30.9909C10.4492 30.3386 10.9797 29.8099 11.6341 29.8099C11.978 29.8099 12.2877 29.9559 12.5041 30.1892C12.7666 30.472 13.0795 30.7761 13.4653 30.7761C13.8511 30.7761 14.1641 30.472 14.4265 30.1892C14.643 29.956 14.9526 29.8099 15.2965 29.8099C15.6404 29.8099 15.9501 29.9559 16.1665 30.1892C16.429 30.472 16.7419 30.7761 17.1278 30.7761C17.5136 30.7761 17.8265 30.472 18.089 30.1892C18.3054 29.9559 18.6151 29.8099 18.959 29.8099C19.3029 29.8099 19.6127 29.956 19.8291 30.1893C20.0915 30.4721 20.4043 30.7761 20.79 30.7761C21.1757 30.7761 21.4886 30.4721 21.7509 30.1893C21.9674 29.956 22.2771 29.8099 22.6211 29.8099C23.2754 29.8099 23.8059 30.3387 23.8059 30.9909C23.8059 31.6432 23.2754 32.1719 22.6211 32.1719C22.2771 32.1719 21.9673 32.0258 21.7508 31.7924C21.4885 31.5097 21.1757 31.2056 20.79 31.2056C20.4043 31.2056 20.0915 31.5097 19.8292 31.7924C19.6128 32.0258 19.303 32.1719 18.959 32.1719C18.6151 32.1719 18.3054 32.0258 18.0889 31.7926C17.8265 31.5098 17.5136 31.2056 17.1278 31.2056C16.7419 31.2056 16.429 31.5098 16.1666 31.7926C15.9502 32.0258 15.6405 32.1719 15.2965 32.1719C14.9526 32.1719 14.6429 32.0258 14.4264 31.7926C14.164 31.5098 13.8511 31.2056 13.4653 31.2056Z" fill="#FF3E2D"/>
<path fill-rule="evenodd" clip-rule="evenodd" d="M9.88356 27.3945C9.26845 27.3945 8.76704 27.9205 8.26457 28.2753C8.04496 28.4304 7.7767 28.5215 7.48708 28.5215C6.74345 28.5215 6.14062 27.9207 6.14062 27.1795C6.14062 26.4383 6.74345 25.8375 7.48708 25.8375C7.77688 25.8375 8.0453 25.9287 8.26499 26.084C8.7673 26.439 9.26866 26.9651 9.88374 26.965C10.4988 26.965 11 26.439 11.5023 26.084C11.722 25.9288 11.9904 25.8375 12.2802 25.8375C12.5698 25.8375 12.8381 25.9286 13.0577 26.0837C13.5603 26.4386 14.0619 26.9649 14.6772 26.9648C15.2924 26.9648 15.7938 26.4386 16.2964 26.0838C16.516 25.9287 16.7843 25.8375 17.0739 25.8375C17.3635 25.8375 17.6318 25.9286 17.8514 26.0837C18.3539 26.4386 18.8554 26.9647 19.4706 26.9646C20.0857 26.9646 20.5871 26.4386 21.0895 26.0838C21.3091 25.9287 21.5774 25.8375 21.8671 25.8375C22.1565 25.8375 22.4246 25.9285 22.6442 26.0834C23.147 26.4382 23.6486 26.9645 24.264 26.9644C24.8792 26.9644 25.3808 26.4383 25.8835 26.0835C26.1031 25.9286 26.3712 25.8375 26.6607 25.8375C27.4043 25.8375 28.0072 26.4383 28.0072 27.1795C28.0072 27.9207 27.4043 28.5215 26.6607 28.5215C26.371 28.5215 26.1026 28.4303 25.8829 28.2751C25.3805 27.9201 24.879 27.3939 24.2638 27.3939C23.6487 27.3939 23.1473 27.9201 22.6449 28.2751C22.4252 28.4303 22.1568 28.5215 21.8671 28.5215C21.5773 28.5215 21.3089 28.4303 21.0892 28.2751C20.5869 27.9202 20.0855 27.3941 19.4704 27.3941C18.8554 27.3941 18.3541 27.9201 17.8518 28.2751C17.6321 28.4303 17.3637 28.5215 17.0739 28.5215C16.7843 28.5215 16.5161 28.4304 16.2965 28.2754C15.7939 27.9205 15.2923 27.3943 14.677 27.3943C14.0617 27.3943 13.5603 27.9205 13.0577 28.2754C12.8381 28.4304 12.5698 28.5215 12.2802 28.5215C11.9906 28.5215 11.7224 28.4304 11.5028 28.2754C11.0002 27.9206 10.4987 27.3945 9.88356 27.3945Z" fill="#FF3E2D"/>
<path fill-rule="evenodd" clip-rule="evenodd" d="M22.11 23.3144C21.4973 23.3144 21.002 23.8319 20.5279 24.2201C20.2769 24.4256 19.9556 24.549 19.6054 24.549C19.2552 24.549 18.9338 24.4256 18.6828 24.2199C18.2089 23.8318 17.7137 23.3144 17.1012 23.3144C16.4886 23.3144 15.9934 23.8318 15.5195 24.2199C15.2685 24.4256 14.9472 24.549 14.5969 24.549C14.2466 24.549 13.9252 24.4256 13.6742 24.2199C13.2003 23.8318 12.7051 23.3144 12.0926 23.3144C11.48 23.3144 10.9848 23.8318 10.511 24.2199C10.2599 24.4256 9.93858 24.549 9.5883 24.549C9.2381 24.549 8.91681 24.4256 8.6658 24.2201C8.19177 23.8319 7.69647 23.3144 7.08379 23.3144C6.47106 23.3144 5.97575 23.832 5.50169 24.2202C5.25068 24.4257 4.92939 24.5491 4.57917 24.5491C3.77606 24.5491 3.125 23.9002 3.125 23.0997C3.125 22.2993 3.77606 21.6503 4.57917 21.6503C4.92936 21.6503 5.25063 21.7737 5.50162 21.9792C5.97568 22.3674 6.47099 22.8849 7.08369 22.8849C7.69642 22.8849 8.19175 22.3673 8.66583 21.9791C8.91683 21.7736 9.23811 21.6502 9.5883 21.6502C9.93861 21.6502 10.26 21.7737 10.511 21.9793C10.9849 22.3675 11.48 22.8849 12.0926 22.8849C12.7051 22.8849 13.2003 22.3675 13.6741 21.9793C13.9252 21.7737 14.2466 21.6502 14.5969 21.6502C14.9472 21.6502 15.2686 21.7737 15.5196 21.9793C15.9934 22.3675 16.4886 22.8849 17.1012 22.8849C17.7137 22.8849 18.2089 22.3675 18.6827 21.9793C18.9338 21.7737 19.2551 21.6502 19.6054 21.6502C19.9557 21.6502 20.277 21.7736 20.528 21.9792C21.002 22.3674 21.4973 22.8849 22.11 22.8849C22.7227 22.8849 23.218 22.3674 23.692 21.9792C23.943 21.7736 24.2643 21.6502 24.6145 21.6502C24.9648 21.6502 25.2861 21.7736 25.5371 21.9792C26.0111 22.3674 26.5064 22.8849 27.1191 22.8849C27.7317 22.8849 28.227 22.3674 28.701 21.9792C28.952 21.7736 29.2734 21.6502 29.6236 21.6502C30.4267 21.6502 31.0778 22.2992 31.0778 23.0996C31.0778 23.9001 30.4267 24.549 29.6236 24.549C29.2734 24.549 28.9521 24.4256 28.7011 24.2201C28.2271 23.8319 27.7318 23.3144 27.1191 23.3144C26.5064 23.3144 26.0111 23.8319 25.537 24.2201C25.286 24.4256 24.9647 24.549 24.6145 24.549C24.2644 24.549 23.9431 24.4256 23.6921 24.2201C23.218 23.8319 22.7227 23.3144 22.11 23.3144Z" fill="#FF3E2D"/>
<path fill-rule="evenodd" clip-rule="evenodd" d="M6.43643 18.9663C5.33366 18.9663 4.36827 20.0515 3.29747 20.3151C3.17295 20.3458 3.04274 20.3621 2.90872 20.3621C2.01636 20.3621 1.29297 19.6411 1.29297 18.7516C1.29297 17.8622 2.01636 17.1412 2.90872 17.1412C3.04267 17.1412 3.17282 17.1575 3.29728 17.1881C4.36821 17.4516 5.33372 18.5369 6.43659 18.5369C7.53941 18.5369 8.50485 17.4517 9.57572 17.1882C9.70019 17.1576 9.83035 17.1413 9.96431 17.1413C10.0983 17.1413 10.2286 17.1576 10.3531 17.1882C11.4238 17.4519 12.3891 18.5369 13.4918 18.5369C14.5945 18.5369 15.5599 17.4519 16.6306 17.1882C16.7551 17.1576 16.8853 17.1413 17.0194 17.1413C17.1533 17.1413 17.2835 17.1576 17.4079 17.1882C18.4788 17.4517 19.4443 18.5369 20.5471 18.5369C21.6499 18.5369 22.6154 17.4517 23.6862 17.1882C23.8107 17.1576 23.9409 17.1413 24.0748 17.1413C24.2086 17.1413 24.3386 17.1575 24.463 17.1881C25.5342 17.4514 26.4999 18.5369 27.603 18.5369C28.7061 18.5369 29.6718 17.4514 30.743 17.1881C30.8674 17.1575 30.9974 17.1413 31.1312 17.1413C32.0235 17.1413 32.7469 17.8623 32.7469 18.7518C32.7469 19.6412 32.0235 20.3622 31.1312 20.3622C30.9973 20.3622 30.8672 20.3459 30.7427 20.3153C29.6717 20.0519 28.706 18.9663 27.603 18.9663C26.5 18.9663 25.5343 20.0519 24.4633 20.3153C24.3388 20.3459 24.2087 20.3622 24.0748 20.3622C23.9408 20.3622 23.8105 20.3459 23.686 20.3152C22.6152 20.0515 21.6498 18.9663 20.5471 18.9663C19.4443 18.9663 18.479 20.0515 17.4082 20.3152C17.2837 20.3459 17.1534 20.3622 17.0194 20.3622C16.8852 20.3622 16.7549 20.3459 16.6303 20.3152C15.5597 20.0514 14.5945 18.9663 13.4918 18.9663C12.3892 18.9663 11.424 20.0514 10.3534 20.3152C10.2288 20.3459 10.0984 20.3622 9.96431 20.3622C9.8303 20.3622 9.7001 20.3459 9.57559 20.3153C8.50472 20.0517 7.53927 18.9663 6.43643 18.9663Z" fill="#FF3E2D"/>
<path fill-rule="evenodd" clip-rule="evenodd" d="M6.68521 14.2425C5.17036 14.2425 3.72493 15.8528 2.21009 15.8528C1.19875 15.8528 0.378906 15.0356 0.378906 14.0276C0.378906 13.0196 1.19875 12.2025 2.21009 12.2025C3.72504 12.2025 5.17058 13.813 6.68553 13.813H7.64461C9.15954 13.813 10.6051 12.2025 12.12 12.2025C13.6349 12.2025 15.0805 13.813 16.5954 13.813H17.555C19.0699 13.813 20.5154 12.2025 22.0304 12.2025C22.0573 12.2025 22.0841 12.2031 22.1108 12.2042C22.1375 12.2031 22.1643 12.2025 22.1913 12.2025C23.7062 12.2025 25.1517 13.813 26.6667 13.813H27.4645C28.9794 13.813 30.425 12.2025 31.9399 12.2025C32.9512 12.2025 33.7711 13.0197 33.7711 14.0277C33.7711 15.0357 32.9512 15.8528 31.9399 15.8528C30.425 15.8528 28.9796 14.2425 27.4647 14.2425H26.6664C25.1516 14.2425 23.7061 15.8528 22.1913 15.8528C22.1643 15.8528 22.1375 15.8522 22.1108 15.8511C22.0841 15.8522 22.0573 15.8528 22.0304 15.8528C20.5155 15.8528 19.0701 14.2425 17.5552 14.2425H16.5952C15.0803 14.2425 13.6349 15.8528 12.12 15.8528C10.6051 15.8528 9.15969 14.2425 7.64483 14.2425H6.68521Z" fill="#FF3E2D"/>
<path fill-rule="evenodd" clip-rule="evenodd" d="M26.0435 7.16153C26.7231 7.76366 27.4482 8.55223 28.3562 8.55223C29.2642 8.55223 29.9892 7.76366 30.6689 7.16153C31.0494 6.82446 31.5505 6.61972 32.0996 6.61972C33.2894 6.61972 34.2539 7.58107 34.2539 8.76696C34.2539 9.95285 33.2894 10.9142 32.0996 10.9142C31.5505 10.9142 31.0494 10.7095 30.6689 10.3724C29.9892 9.77024 29.2642 8.98168 28.3562 8.98168C27.4482 8.98168 26.7232 9.77024 26.0435 10.3724C25.663 10.7095 25.1619 10.9142 24.6128 10.9142C24.0636 10.9142 23.5623 10.7093 23.1818 10.3721C22.5025 9.76996 21.7777 8.98168 20.8699 8.98168C19.9621 8.98168 19.2373 9.76996 18.558 10.3721C18.1775 10.7093 17.6762 10.9142 17.127 10.9142C16.5778 10.9142 16.0767 10.7094 15.6962 10.3723C15.0166 9.77012 14.2917 8.98168 13.3838 8.98168C12.4759 8.98168 11.751 9.77012 11.0714 10.3723C10.691 10.7094 10.1898 10.9142 9.64062 10.9142C9.09145 10.9142 8.59027 10.7094 8.20978 10.3722C7.53028 9.7701 6.80538 8.98168 5.89749 8.98168C4.98959 8.98168 4.26469 9.77011 3.58518 10.3722C3.20469 10.7094 2.70351 10.9142 2.15433 10.9142C0.964527 10.9142 0 9.95287 0 8.76698C0 7.5811 0.964527 6.61974 2.15433 6.61974C2.70349 6.61974 3.20466 6.82454 3.58514 7.16169C4.26466 7.76381 4.98957 8.55223 5.89747 8.55223C6.80538 8.55223 7.53029 7.76379 8.20981 7.16167C8.5903 6.82452 9.09146 6.61972 9.64062 6.61972C10.1898 6.61972 10.6909 6.82451 11.0714 7.16166C11.751 7.76378 12.4759 8.55223 13.3838 8.55223C14.2917 8.55223 15.0166 7.76378 15.6962 7.16166C16.0767 6.82451 16.5778 6.61972 17.127 6.61972C17.6762 6.61972 18.1775 6.82459 18.558 7.16183C19.2373 7.76394 19.9621 8.55223 20.8699 8.55223C21.7777 8.55223 22.5025 7.76394 23.1818 7.16183C23.5623 6.82459 24.0636 6.61972 24.6128 6.61972C25.1619 6.61972 25.663 6.82446 26.0435 7.16153Z" fill="#FF3E2D"/>
<path fill-rule="evenodd" clip-rule="evenodd" d="M31.1304 2.91564C31.1304 4.24977 30.0454 5.33129 28.7068 5.33129C27.9588 5.33129 27.2899 4.99353 26.8453 4.46267C26.313 3.82707 25.6569 3.13042 24.8278 3.13042C23.9988 3.13042 23.3426 3.82707 22.8103 4.46267C22.3657 4.99353 21.6969 5.33129 20.9488 5.33129C20.2009 5.33129 19.5321 4.9936 19.0875 4.46284C18.5551 3.82718 17.8988 3.13042 17.0696 3.13042C16.2405 3.13042 15.5842 3.82718 15.0518 4.46284C14.6072 4.9936 13.9384 5.33129 13.1904 5.33129C12.2045 5.33129 11.3561 4.74451 10.9775 3.90221C10.7916 3.48858 10.4285 3.13042 9.97503 3.13042C9.52152 3.13042 9.15844 3.48861 8.97254 3.90226C8.59399 4.74461 7.74553 5.33143 6.75956 5.33143C5.42103 5.33143 4.33594 4.24991 4.33594 2.91578C4.33594 1.58166 5.42103 0.500139 6.75956 0.500139C7.74548 0.500139 8.59391 1.08691 8.97249 1.92919C9.1584 2.34282 9.52148 2.70098 9.97497 2.70098C10.4285 2.70098 10.7916 2.34279 10.9775 1.92914C11.356 1.08681 12.2045 0.5 13.1904 0.5C13.9384 0.5 14.6073 0.837732 15.0519 1.36855C15.5842 2.00421 16.2405 2.70098 17.0696 2.70098C17.8988 2.70098 18.555 2.00421 19.0874 1.36855C19.532 0.837732 20.2009 0.5 20.9488 0.5C21.6969 0.5 22.3658 0.837801 22.8104 1.36871C23.3427 2.00433 23.9988 2.70098 24.8278 2.70098C25.6569 2.70098 26.313 2.00433 26.8453 1.36871C27.2898 0.837801 27.9588 0.5 28.7068 0.5C30.0454 0.5 31.1304 1.58152 31.1304 2.91564Z" fill="#FF3E2D"/>
</svg>