<svg xmlns:xlink="http://www.w3.org/1999/xlink" xmlns="http://www.w3.org/2000/svg" width="1290" height="415" viewBox="0 0 1290 415" fill="none">
<path d="M462.011 359.456C464.897 351.805 473.413 348.15 481.168 350.74C488.717 353.261 496.429 355.116 504.515 355.116C515.662 355.116 525.216 353.046 533.178 348.906C548.616 341.781 554.334 323.67 560.887 309.254L483.348 102.484C480.645 95.2768 485.973 87.5886 493.67 87.5886H539.831C546.134 87.5886 551.736 91.6073 553.755 97.5782L594.328 217.531L634.9 97.5783C636.919 91.6073 642.521 87.5886 648.824 87.5886H692.042C699.76 87.5886 705.09 95.3156 702.347 102.53L614.87 332.663C604.678 358.779 591.302 378.843 574.741 392.857C558.18 407.189 536.363 414.355 509.292 414.355C493.335 414.355 477.724 411.437 462.739 406.359C453.557 403.247 449.373 392.961 452.795 383.889L462.011 359.456Z" fill="#FCFCFC"/>
<path d="M389.566 289.668C372.703 306.53 351.293 311.269 327.217 311.165C284.431 310.98 248.86 290.012 234.782 249.538C224.152 218.979 223.927 182.133 234.782 151.604C249.044 111.491 284.395 87.5886 327.461 87.5886C350.596 87.5886 372.207 90.8643 389.566 106.22V102.288C389.566 94.1698 396.147 87.5887 404.265 87.5887H456.595V311.165H404.265C396.147 311.165 389.566 304.584 389.566 296.466V289.668ZM380.489 241.417C389.088 230.27 393.387 216.257 393.387 199.377C393.387 180.268 388.61 165.777 379.056 155.904C360.356 135.914 324.538 135.594 307.396 157.815C289.923 180.664 290.371 219.205 307.874 241.895C325.397 263.961 363.288 263.714 380.489 241.417Z" fill="#FCFCFC"/>
<path d="M109.202 1.59766H47.3181C30.8533 1.59766 22.6209 1.59766 16.3322 4.80192C10.8005 7.62046 6.30308 12.1179 3.48453 17.6496C0.280273 23.9383 0.280273 32.1707 0.280273 48.6355V58.925H103.469C118.757 58.925 130.541 62.9061 138.821 70.8682C139.896 71.8236 140.904 72.8139 141.844 73.8391C148.428 81.0149 151.72 89.8977 151.72 100.487C151.72 101.284 151.704 102.072 151.673 102.852C151.207 114.552 147.241 124.433 139.777 132.495C138.821 133.57 137.799 134.578 136.709 135.518C129.08 142.102 118.16 145.394 103.947 145.394H0.280273V264.127C0.280273 280.592 0.280273 288.825 3.48453 295.113C6.30308 300.645 10.8005 305.142 16.3322 307.961C22.6209 311.165 30.8533 311.165 47.3181 311.165H64.1121V200.332H110.635C126.56 200.332 141.051 198.103 154.109 193.644C167.485 189.185 178.95 182.657 188.505 174.057C198.06 165.14 205.385 154.152 210.481 141.094C215.895 127.718 218.602 112.431 218.602 95.2323C218.602 80.9005 216.054 68.0018 210.958 56.5363C205.862 45.0709 198.537 35.3571 188.983 27.3949C179.428 19.1143 167.804 12.7446 154.109 8.28585C140.732 3.82705 125.763 1.59766 109.202 1.59766Z" fill="#FCFCFC"/>
<path d="M1068.7 102.933C1065.6 95.6614 1070.94 87.5894 1078.84 87.5894H1125.62C1131.71 87.5894 1137.17 91.346 1139.35 97.0347L1180.16 203.677L1220.52 97.0841C1222.68 91.3695 1228.16 87.5894 1234.27 87.5894H1278.08C1286 87.5894 1291.33 95.6933 1288.2 102.97L1201.66 304.185C1199.34 309.581 1194.03 313.077 1188.16 313.077H1167.91C1162.01 313.077 1156.69 309.558 1154.38 304.137L1068.7 102.933Z" fill="#22BDA6"/>
<path d="M951.181 258.138C959.462 258.138 966.628 256.546 972.679 253.361C979.049 250.176 984.304 246.036 988.444 240.94C992.903 235.526 996.088 229.315 997.999 222.309C1000.23 214.984 1001.34 207.34 1001.34 199.378C1001.34 191.416 1000.23 183.931 997.999 176.925C996.088 169.599 992.903 163.389 988.444 158.293C984.304 152.879 979.049 148.579 972.679 145.395C966.628 142.21 959.462 140.617 951.181 140.617C942.901 140.617 935.575 142.21 929.206 145.395C923.155 148.579 917.899 152.879 913.441 158.293C909.3 163.389 906.116 169.599 903.886 176.925C901.657 183.931 900.542 191.416 900.542 199.378C900.542 207.34 901.657 214.984 903.886 222.309C906.116 229.315 909.3 235.526 913.441 240.94C917.899 246.036 923.155 250.176 929.206 253.361C935.575 256.546 942.901 258.138 951.181 258.138ZM951.181 318.332C933.028 318.332 916.626 315.306 901.975 309.255C887.643 302.885 875.223 294.446 864.713 283.936C854.521 273.107 846.718 260.527 841.304 246.195C835.89 231.545 833.182 215.939 833.182 199.378C833.182 182.817 835.89 167.37 841.304 153.038C846.718 138.706 854.521 126.126 864.713 115.298C875.223 104.469 887.643 96.0293 901.975 89.9781C916.626 83.6084 933.028 80.4235 951.181 80.4235C969.335 80.4235 985.578 83.6084 999.91 89.9781C1014.56 96.0293 1026.98 104.469 1037.17 115.298C1047.68 126.126 1055.64 138.706 1061.06 153.038C1066.47 167.37 1069.18 182.817 1069.18 199.378C1069.18 215.939 1066.47 231.545 1061.06 246.195C1055.64 260.527 1047.68 273.107 1037.17 283.936C1026.98 294.446 1014.56 302.885 999.91 309.255C985.578 315.306 969.335 318.332 951.181 318.332Z" fill="#22BDA6"/>
<path d="M732.573 29.674C732.573 13.4376 745.735 0.275391 761.972 0.275391H803.277V311.166H761.972C745.735 311.166 732.573 298.004 732.573 281.767V29.674Z" fill="#22BDA6"/>
<circle cx="106.348" cy="102.356" r="20.2472" fill="#FA8231"/>
</svg>