<svg xmlns:xlink="http://www.w3.org/1999/xlink" xmlns="http://www.w3.org/2000/svg" width="130" height="28" viewBox="0 0 130 28" fill="none">
<path d="M42.3257 21.8618C41.2525 21.8618 40.2822 21.6781 39.4149 21.3105C38.5622 20.943 37.8859 20.4138 37.3861 19.7228C36.8862 19.0318 36.629 18.2159 36.6143 17.275H39.9221C39.9662 17.9072 40.1867 18.407 40.5836 18.7746C40.9953 19.1421 41.5539 19.3259 42.2596 19.3259C42.9799 19.3259 43.5459 19.1568 43.9576 18.8187C44.3692 18.4658 44.575 18.0101 44.575 17.4514C44.575 16.9957 44.4354 16.6208 44.156 16.3268C43.8767 16.0328 43.5239 15.8049 43.0975 15.6432C42.6859 15.4668 42.1126 15.2756 41.3775 15.0698C40.3778 14.7758 39.5619 14.4891 38.9297 14.2098C38.3123 13.9158 37.7757 13.4821 37.3199 12.9087C36.8789 12.3207 36.6584 11.5415 36.6584 10.5712C36.6584 9.65973 36.8862 8.86585 37.342 8.18959C37.7977 7.51333 38.4372 6.99879 39.2605 6.64595C40.0838 6.27842 41.0247 6.09465 42.0832 6.09465C43.6709 6.09465 44.9573 6.48424 45.9423 7.26341C46.9419 8.02788 47.4932 9.10108 47.5962 10.483H44.2001C44.1707 9.95375 43.9429 9.52006 43.5165 9.18193C43.1049 8.8291 42.5536 8.65269 41.8626 8.65269C41.2599 8.65269 40.7747 8.80705 40.4072 9.11578C40.0544 9.42451 39.878 9.8729 39.878 10.4609C39.878 10.8726 40.0103 11.2181 40.2749 11.4974C40.5542 11.762 40.8923 11.9825 41.2893 12.159C41.7009 12.3207 42.2743 12.5118 43.0093 12.7323C44.009 13.0263 44.825 13.3204 45.4571 13.6144C46.0893 13.9084 46.6332 14.3495 47.089 14.9375C47.5447 15.5256 47.7726 16.2974 47.7726 17.253C47.7726 18.0762 47.5594 18.8407 47.1331 19.5464C46.7067 20.252 46.0819 20.818 45.2586 21.2444C44.4354 21.656 43.4577 21.8618 42.3257 21.8618Z" fill="white"/>
<path d="M60.9238 6.31517V8.80705H56.8222V21.7075H53.7349V8.80705H49.6332V6.31517H60.9238Z" fill="white"/>
<path d="M74.5332 15.3344C74.5332 15.7755 74.5038 16.1724 74.445 16.5252H65.5139C65.5874 17.4073 65.8962 18.0983 66.4401 18.5981C66.9841 19.098 67.653 19.3479 68.4468 19.3479C69.5935 19.3479 70.4095 18.8554 70.8946 17.8704H74.2245C73.8716 19.0465 73.1954 20.0168 72.1957 20.7813C71.196 21.5311 69.9684 21.9059 68.513 21.9059C67.3369 21.9059 66.2784 21.6487 65.3375 21.1341C64.4113 20.6049 63.6836 19.8625 63.1544 18.9069C62.6398 17.9513 62.3825 16.8487 62.3825 15.5991C62.3825 14.3348 62.6398 13.2248 63.1544 12.2692C63.6689 11.3136 64.3893 10.5786 65.3155 10.064C66.2416 9.54947 67.3075 9.29219 68.513 9.29219C69.6744 9.29219 70.7108 9.54212 71.6223 10.042C72.5485 10.5418 73.2615 11.2548 73.7614 12.181C74.2759 13.0925 74.5332 14.1436 74.5332 15.3344ZM71.3356 14.4524C71.3209 13.6585 71.0343 13.0263 70.4756 12.5559C69.917 12.0707 69.2334 11.8282 68.4248 11.8282C67.6603 11.8282 67.0135 12.0634 66.4842 12.5338C65.9697 12.9896 65.6536 13.6291 65.536 14.4524H71.3356Z" fill="white"/>
<path d="M81.4616 21.9059C80.462 21.9059 79.5652 21.7295 78.7713 21.3767C77.9774 21.0092 77.3453 20.5167 76.8748 19.8992C76.4191 19.2817 76.1692 18.5981 76.1251 17.8484H79.2344C79.2932 18.3188 79.5211 18.7084 79.918 19.0171C80.3296 19.3259 80.8368 19.4802 81.4396 19.4802C82.0276 19.4802 82.4834 19.3626 82.8068 19.1274C83.1449 18.8922 83.314 18.5908 83.314 18.2233C83.314 17.8263 83.1082 17.5323 82.6966 17.3412C82.2996 17.1354 81.6601 16.9148 80.778 16.6796C79.8666 16.4591 79.1168 16.2312 78.5287 15.996C77.9554 15.7608 77.4555 15.4006 77.0292 14.9155C76.6176 14.4303 76.4117 13.7761 76.4117 12.9528C76.4117 12.2766 76.6029 11.6591 76.9851 11.1005C77.382 10.5418 77.9407 10.1008 78.661 9.77734C79.3961 9.45391 80.2561 9.29219 81.2411 9.29219C82.6966 9.29219 83.858 9.65973 84.7253 10.3948C85.5927 11.1152 86.0705 12.0928 86.1587 13.3277H83.2038C83.1597 12.8426 82.9538 12.4603 82.5863 12.181C82.2335 11.887 81.7557 11.74 81.1529 11.74C80.5943 11.74 80.1606 11.8429 79.8519 12.0487C79.5578 12.2545 79.4108 12.5412 79.4108 12.9087C79.4108 13.3204 79.6166 13.6364 80.0283 13.857C80.4399 14.0628 81.0794 14.2759 81.9468 14.4965C82.8289 14.717 83.5566 14.9449 84.1299 15.1801C84.7033 15.4153 85.1958 15.7828 85.6074 16.2827C86.0338 16.7678 86.2543 17.4147 86.269 18.2233C86.269 18.9289 86.0705 19.5611 85.6736 20.1197C85.2913 20.6784 84.7327 21.1194 83.9976 21.4428C83.2773 21.7516 82.4319 21.9059 81.4616 21.9059Z" fill="white"/>
<path d="M92.3977 12.0266V17.9366C92.3977 18.3482 92.4933 18.6496 92.6844 18.8407C92.8902 19.0171 93.2283 19.1053 93.6988 19.1053H95.1322V21.7075H93.1916C90.5895 21.7075 89.2884 20.4432 89.2884 17.9145V12.0266H87.833V9.49066H89.2884V6.46954H92.3977V9.49066H95.1322V12.0266H92.3977Z" fill="white"/>
<path d="M98.9184 8.03523C98.3744 8.03523 97.9187 7.86616 97.5512 7.52803C97.1983 7.1752 97.0219 6.74151 97.0219 6.22697C97.0219 5.71242 97.1983 5.28608 97.5512 4.94795C97.9187 4.59512 98.3744 4.4187 98.9184 4.4187C99.4623 4.4187 99.9107 4.59512 100.264 4.94795C100.631 5.28608 100.815 5.71242 100.815 6.22697C100.815 6.74151 100.631 7.1752 100.264 7.52803C99.9107 7.86616 99.4623 8.03523 98.9184 8.03523ZM100.44 9.49066V21.7075H97.3527V9.49066H100.44Z" fill="white"/>
<path d="M110.26 9.31425C111.716 9.31425 112.892 9.77734 113.788 10.7035C114.685 11.615 115.134 12.894 115.134 14.5406V21.7075H112.046V14.9596C112.046 13.9893 111.804 13.2469 111.319 12.7323C110.834 12.2031 110.172 11.9384 109.334 11.9384C108.481 11.9384 107.805 12.2031 107.305 12.7323C106.82 13.2469 106.577 13.9893 106.577 14.9596V21.7075H103.49V9.49066H106.577V11.0122C106.989 10.483 107.511 10.0714 108.143 9.77734C108.79 9.46861 109.496 9.31425 110.26 9.31425Z" fill="white"/>
<path d="M122.855 9.29219C123.766 9.29219 124.567 9.47596 125.258 9.84349C125.949 10.1963 126.493 10.6594 126.89 11.2328V9.49066H130V21.7957C130 22.9277 129.772 23.9347 129.316 24.8168C128.86 25.7136 128.177 26.4192 127.265 26.9338C126.354 27.463 125.251 27.7277 123.957 27.7277C122.223 27.7277 120.797 27.3234 119.679 26.5148C118.577 25.7062 117.952 24.6036 117.805 23.207H120.87C121.032 23.7657 121.377 24.2067 121.907 24.5301C122.451 24.8683 123.105 25.0373 123.869 25.0373C124.766 25.0373 125.494 24.7653 126.052 24.2214C126.611 23.6922 126.89 22.8836 126.89 21.7957V19.8992C126.493 20.4726 125.942 20.9504 125.236 21.3326C124.545 21.7148 123.752 21.9059 122.855 21.9059C121.826 21.9059 120.885 21.6413 120.032 21.1121C119.179 20.5828 118.503 19.8404 118.003 18.8848C117.518 17.9145 117.276 16.8046 117.276 15.555C117.276 14.32 117.518 13.2248 118.003 12.2692C118.503 11.3136 119.172 10.5786 120.01 10.064C120.863 9.54947 121.811 9.29219 122.855 9.29219ZM126.89 15.5991C126.89 14.8493 126.743 14.2098 126.449 13.6805C126.155 13.1366 125.758 12.725 125.258 12.4456C124.759 12.1516 124.222 12.0046 123.649 12.0046C123.075 12.0046 122.546 12.1443 122.061 12.4236C121.576 12.7029 121.179 13.1145 120.87 13.6585C120.576 14.1877 120.429 14.8199 120.429 15.555C120.429 16.29 120.576 16.9369 120.87 17.4955C121.179 18.0395 121.576 18.4585 122.061 18.7525C122.561 19.0465 123.09 19.1935 123.649 19.1935C124.222 19.1935 124.759 19.0539 125.258 18.7746C125.758 18.4805 126.155 18.0689 126.449 17.5396C126.743 16.9957 126.89 16.3488 126.89 15.5991Z" fill="white"/>
<path d="M24.4639 4.19735C21.7764 1.50983 18.1314 -4.07758e-07 14.3306 0C10.5299 4.07758e-07 6.88486 1.50983 4.19735 4.19735C1.50983 6.88487 -1.20812e-07 10.5299 0 14.3306C1.20812e-07 18.1314 1.50983 21.7764 4.19735 24.4639L14.3306 14.3306L24.4639 4.19735Z" fill="#7EB2FF"/>
<path d="M16.1943 16.1944H24.8084V24.8085H16.1943V16.1944Z" fill="white"/>
<g filter="url(#filter0_bi_7667_10636)">
<path d="M22.3964 14.1271C22.3964 18.6942 18.694 22.3966 14.1269 22.3966C9.5598 22.3966 5.85742 18.6942 5.85742 14.1271C5.85742 9.55999 9.5598 5.8576 14.1269 5.8576C18.694 5.8576 22.3964 9.55999 22.3964 14.1271Z" fill="#354655" fill-opacity="0.04"/>
</g>
<defs>
<filter id="filter0_bi_7667_10636" x="1.37811" y="1.37829" width="25.4977" height="25.4976" filterUnits="userSpaceOnUse" color-interpolation-filters="sRGB">
<feFlood flood-opacity="0" result="BackgroundImageFix"/>
<feGaussianBlur in="BackgroundImageFix" stdDeviation="2.23966"/>
<feComposite in2="SourceAlpha" operator="in" result="effect1_backgroundBlur_7667_10636"/>
<feBlend mode="normal" in="SourceGraphic" in2="effect1_backgroundBlur_7667_10636" result="shape"/>
<feColorMatrix in="SourceAlpha" type="matrix" values="0 0 0 0 0 0 0 0 0 0 0 0 0 0 0 0 0 0 127 0" result="hardAlpha"/>
<feOffset dx="0.344563" dy="0.344563"/>
<feGaussianBlur stdDeviation="0.344563"/>
<feComposite in2="hardAlpha" operator="arithmetic" k2="-1" k3="1"/>
<feColorMatrix type="matrix" values="0 0 0 0 1 0 0 0 0 1 0 0 0 0 1 0 0 0 0.5 0"/>
<feBlend mode="normal" in2="shape" result="effect2_innerShadow_7667_10636"/>
</filter>
</defs>
</svg>