<svg width="166" height="34" viewBox="0 0 166 34" fill="none" xmlns="http://www.w3.org/2000/svg">
<g clip-path="url(#clip0_7734_11955)">
<path d="M0 0C0 1.00438 0.814633 1.82276 1.81441 1.82276H30.6228C31.6226 1.82276 32.4372 1.00438 32.4372 0H0Z" fill="white"/>
<path d="M2.70312 3.68271C2.70312 4.68709 3.51776 5.50547 4.51753 5.50547V28.8665V29.5733C4.51753 30.0569 4.88782 30.4289 5.3692 30.4289H8.40556C10.22 30.4289 11.9603 30.9869 13.4415 31.9912L16.4038 34L18.7366 32.2516C20.2918 31.0613 22.2173 30.4289 24.1428 30.4289H27.0681C27.5494 30.4289 27.9197 30.0569 27.9197 29.5733V28.8665V5.50547H28.1419C29.1417 5.50547 29.9563 4.68709 29.9563 3.68271H2.70312ZM17.6257 30.8009L16.3297 31.768L14.4412 30.4661C12.6639 29.2385 10.5532 28.6061 8.36853 28.6061H6.29492V22.8775H8.36853C10.1829 22.8775 11.9233 23.4354 13.4044 24.4398L16.3667 26.4486L18.6996 24.7002C20.2548 23.5098 22.1803 22.8775 24.1058 22.8775H26.0683V28.6061H24.1058C21.81 28.6061 19.5142 29.3873 17.6257 30.8009ZM15.3299 15.8468V23.5098L14.4783 22.9147C13.9599 22.5427 13.4044 22.2451 12.812 21.9847V15.8468H15.3299ZM17.1443 15.8468H19.4772V22.1256L19.6993 22.0219C18.9588 22.3567 18.2922 22.7659 17.6257 23.2494L17.1073 23.6214V15.8468H17.1443ZM26.1053 21.0547H24.1428C23.18 21.0547 22.2173 21.2035 21.2916 21.4639V15.884H22.8097C23.8095 15.884 24.6242 15.0656 24.6242 14.0613H7.66498C7.66498 15.0656 8.47961 15.884 9.47939 15.884H10.9976V21.4267C10.1459 21.2035 9.29425 21.0919 8.40556 21.0919H6.33194V5.50547H26.1053V21.0547Z" fill="white"/>
<path d="M10.9236 11.5318H11.8493V8.74187H13.2934V11.5318H14.5895C15.1449 11.5318 15.5892 11.383 15.8855 11.0854C16.1817 10.7878 16.3298 10.3414 16.3298 9.78344V9.56025C16.3298 9.03946 16.1817 8.59307 15.8855 8.29548C15.5892 7.99789 15.1449 7.84909 14.5895 7.84909H13.4045H13.2934H9.92383V8.74187H10.9236V11.5318ZM14.2192 8.74187H14.5524C14.8487 8.74187 15.0338 8.81627 15.1819 8.92786C15.293 9.03946 15.3671 9.26266 15.3671 9.56025V9.78344C15.3671 10.1182 15.293 10.3414 15.1819 10.453C15.0708 10.5646 14.8487 10.639 14.5524 10.639H14.2192V8.74187Z" fill="#D3E7FF"/>
<path d="M17.8476 7.84909H16.9219V11.5318H17.8476V7.84909Z" fill="#D3E7FF"/>
<path d="M18.8469 11.1598C18.995 11.3086 19.1432 11.383 19.3283 11.4574C19.5134 11.5318 19.7356 11.569 19.9578 11.569C20.18 11.569 20.4021 11.5318 20.5873 11.4574C20.7724 11.383 20.9205 11.2714 21.0687 11.1598C21.2168 11.011 21.2908 10.8622 21.3649 10.6762C21.4389 10.4902 21.476 10.267 21.476 10.0438V7.88626H20.5503V10.0438C20.5503 10.3042 20.5132 10.4902 20.4021 10.5646C20.2911 10.6762 20.18 10.7134 19.9948 10.7134C19.8097 10.7134 19.6616 10.6762 19.5875 10.5646C19.4764 10.453 19.4394 10.267 19.4394 10.0438V7.88626H18.5137V10.0438C18.5137 10.267 18.5507 10.4902 18.6248 10.6762C18.6248 10.8622 18.6988 11.011 18.8469 11.1598Z" fill="#D3E7FF"/>
<path d="M42.1016 5.431L41.9535 6.73297H40.2131V12.536H38.5468V6.73297H36.7324V5.431H42.1016Z" fill="#D3E7FF"/>
<path d="M47.8415 6.24942C48.3969 6.8818 48.6932 7.81178 48.6932 9.00215C48.6932 9.78333 48.5821 10.4529 48.3229 11.0109C48.0637 11.5689 47.6934 12.0153 47.212 12.3129C46.7306 12.6105 46.1752 12.7593 45.5087 12.7593C44.8422 12.7593 44.2867 12.6105 43.8054 12.3129C43.324 12.0153 42.9537 11.6061 42.6945 11.0481C42.4353 10.4901 42.3242 9.82053 42.3242 9.03935C42.3242 8.25817 42.4353 7.62578 42.6945 7.0678C42.9537 6.50981 43.324 6.06342 43.8054 5.76583C44.2867 5.46824 44.8422 5.31944 45.5087 5.31944C46.5085 5.28224 47.2861 5.57983 47.8415 6.24942ZM44.3978 7.105C44.1757 7.51419 44.0275 8.14657 44.0275 9.00215C44.0275 9.89493 44.1386 10.5273 44.3978 10.8993C44.62 11.3085 44.9903 11.4945 45.4717 11.4945C45.953 11.4945 46.3233 11.3085 46.5455 10.8993C46.7677 10.4901 46.9158 9.85773 46.9158 9.00215C46.9158 8.14657 46.8047 7.47699 46.5455 7.105C46.3233 6.73301 45.953 6.50981 45.4717 6.50981C44.9903 6.50981 44.657 6.69581 44.3978 7.105Z" fill="#D3E7FF"/>
<path d="M53.5435 5.50547C53.9509 5.65426 54.2841 5.87746 54.6174 6.17505L53.8398 7.10503C53.3584 6.69584 52.84 6.50984 52.2846 6.50984C51.9883 6.50984 51.7662 6.58424 51.581 6.69584C51.3959 6.80744 51.3218 6.99343 51.3218 7.21663C51.3218 7.36542 51.3588 7.51422 51.4329 7.58862C51.507 7.70022 51.6551 7.77461 51.8402 7.88621C52.0254 7.96061 52.3216 8.07221 52.6919 8.221C53.3954 8.4442 53.9509 8.74179 54.2841 9.07658C54.6174 9.41137 54.8025 9.89496 54.8025 10.5273C54.8025 10.9737 54.6914 11.3457 54.4693 11.7177C54.2471 12.0525 53.9138 12.3129 53.5065 12.4989C53.0992 12.6849 52.5808 12.7965 51.9883 12.7965C51.3959 12.7965 50.9145 12.7221 50.4702 12.5361C50.0258 12.3501 49.6555 12.0897 49.3223 11.7921L50.1739 10.8621C50.4331 11.0853 50.7294 11.2713 51.0256 11.3829C51.3218 11.4945 51.6181 11.5689 51.9513 11.5689C52.2846 11.5689 52.5808 11.4945 52.7659 11.3457C52.9511 11.1969 53.0622 10.9737 53.0622 10.7133C53.0622 10.5273 53.0251 10.3786 52.9511 10.267C52.877 10.1554 52.7289 10.0438 52.5808 9.93216C52.3957 9.82057 52.1365 9.74617 51.8032 9.63457C51.0256 9.41137 50.4702 9.11378 50.1369 8.74179C49.8036 8.3698 49.6555 7.96061 49.6555 7.40262C49.6555 6.99343 49.7666 6.62144 49.9888 6.32385C50.211 6.02626 50.5072 5.76586 50.9145 5.61707C51.2848 5.46827 51.7291 5.35667 52.2475 5.35667C52.6919 5.28227 53.1362 5.35667 53.5435 5.50547Z" fill="#D3E7FF"/>
<path d="M59.691 12.5362V9.48583H57.5804V12.5362H55.9141V5.43112H57.5804V8.18386H59.691V5.43112H61.3573V12.5362H59.691Z" fill="#D3E7FF"/>
<path d="M64.5784 5.43112V12.5362H62.9121V5.43112H64.5784ZM68.6146 5.43112L66.3558 8.63025L68.7997 12.5362H66.8742L64.6154 8.74184L66.8742 5.43112H68.6146Z" fill="#D3E7FF"/>
<path d="M73.8734 5.43112L73.6882 6.62149H71.2073V8.33265H73.392V9.52303H71.2073V11.3458H73.8734V12.5734H69.541V5.43112H73.8734Z" fill="#D3E7FF"/>
<path d="M80.537 12.5362H78.3893L76.3527 7.03068C76.4268 7.58867 76.4638 8.03506 76.5008 8.44425C76.5379 8.85344 76.5749 9.33703 76.5749 9.93222V12.5362H75.0938V5.43112H77.1674L79.241 10.9366C79.0929 10.0066 79.0188 9.11384 79.0188 8.29545V5.43112H80.537V12.5362Z" fill="#D3E7FF"/>
<path d="M86.9062 5.43112L86.7581 6.73309H85.0177V12.5362H83.3144V6.73309H81.5V5.43112H86.9062Z" fill="#D3E7FF"/>
<path d="M97.6442 6.2123C98.3107 6.73309 98.644 7.62587 98.644 8.96504C98.644 10.267 98.3107 11.197 97.6812 11.755C97.0147 12.2758 96.1631 12.5734 95.1263 12.5734H93.0156V5.43112H94.9781C96.052 5.43112 96.9407 5.69152 97.6442 6.2123ZM94.6449 6.65869V11.3086H95.2003C95.7558 11.3086 96.1631 11.1226 96.4593 10.7878C96.7555 10.453 96.9036 9.82062 96.9036 8.92784C96.9036 8.33265 96.8296 7.84907 96.6815 7.51427C96.5334 7.17948 96.3482 6.95629 96.089 6.80749C95.8298 6.69589 95.5336 6.62149 95.1633 6.62149H94.6449V6.65869Z" fill="#D3E7FF"/>
<path d="M103.459 12.5362L103.089 11.011H101.015L100.645 12.5362H98.9043L101.052 5.43112H103.089L105.236 12.5362H103.459ZM101.311 9.78342H102.792L102.052 6.65869L101.311 9.78342Z" fill="#D3E7FF"/>
<path d="M111.049 5.43112L109.087 12.5362H107.013L104.977 5.43112H106.754L108.087 11.2342L109.346 5.43112H111.049Z" fill="#D3E7FF"/>
<path d="M113.42 5.43112V11.197H116.16L115.975 12.5362H111.717V5.43112H113.42Z" fill="#D3E7FF"/>
<path d="M120.898 12.5362L120.528 11.011H118.491L118.121 12.5362H116.381L118.529 5.43112H120.565L122.713 12.5362H120.898ZM118.788 9.78342H120.269L119.528 6.65869L118.788 9.78342Z" fill="#D3E7FF"/>
<path d="M127.748 5.431L127.6 6.73297H125.86V12.536H124.193V6.73297H122.379V5.431H127.748Z" fill="#D3E7FF"/>
<path d="M38.9534 17.744V24.8491H37.2871V17.744H38.9534Z" fill="#D3E7FF"/>
<path d="M45.9892 24.5514C46.3225 24.663 46.6187 24.8118 46.9149 25.035L45.9152 26.3742C45.5449 25.9278 45.1376 25.593 44.7302 25.3698C44.3229 25.1466 43.8045 24.9978 43.2121 24.9978C42.5826 24.9978 42.0271 24.849 41.5828 24.5514C41.1384 24.2538 40.7682 23.8446 40.509 23.2867C40.2498 22.7287 40.1387 22.0591 40.1387 21.2779C40.1387 20.4967 40.2498 19.8643 40.509 19.3063C40.7682 18.7484 41.1384 18.302 41.6198 18.0044C42.1012 17.7068 42.6566 17.558 43.3231 17.558C44.3229 17.558 45.1005 17.8928 45.693 18.5252C46.2484 19.1575 46.5446 20.0875 46.5446 21.2779C46.5446 22.7287 45.9892 23.7702 44.8784 24.3654C45.2857 24.4026 45.693 24.4398 45.9892 24.5514ZM42.2493 23.2123C42.4715 23.6214 42.8418 23.8074 43.3231 23.8074C43.8045 23.8074 44.1748 23.6214 44.397 23.2123C44.6192 22.8031 44.7673 22.1707 44.7673 21.3151C44.7673 20.4595 44.6562 19.7899 44.397 19.4179C44.1748 19.0459 43.8045 18.8228 43.3231 18.8228C42.8418 18.8228 42.4715 19.0087 42.2493 19.4179C42.0271 19.8271 41.879 20.4595 41.879 21.3151C41.879 22.1707 42.0271 22.8031 42.2493 23.2123Z" fill="#D3E7FF"/>
<path d="M52.1739 17.744L52.0257 19.046H50.2854V24.8491H48.6191V19.046H46.8047V17.744H52.1739Z" fill="#D3E7FF"/>
<path d="M54.7288 17.744V24.849H53.0625V17.744H54.7288Z" fill="#D3E7FF"/>
<path d="M59.8756 17.7812C60.2829 17.93 60.6162 18.1532 60.9494 18.4508L60.1718 19.3808C59.6904 18.9716 59.172 18.7856 58.6166 18.7856C58.3204 18.7856 58.0982 18.86 57.913 18.9716C57.7279 19.0832 57.6538 19.2692 57.6538 19.4924C57.6538 19.6412 57.6909 19.7899 57.7649 19.8643C57.839 19.9759 57.9871 20.0503 58.1723 20.1619C58.3574 20.2363 58.6536 20.3479 59.0239 20.4967C59.7275 20.7199 60.2829 21.0175 60.6161 21.3523C60.9494 21.6871 61.1346 22.1707 61.1346 22.8031C61.1346 23.2495 61.0235 23.6215 60.8013 23.9934C60.5791 24.3282 60.2459 24.5886 59.8385 24.7746C59.4312 24.9606 58.9128 25.0722 58.3204 25.0722C57.7279 25.0722 57.2465 24.9978 56.8022 24.8118C56.3578 24.6258 55.9876 24.3654 55.6543 24.0678L56.506 23.1379C56.7652 23.3611 57.0614 23.5471 57.3576 23.6587C57.6538 23.7703 57.9501 23.8447 58.2833 23.8447C58.6166 23.8447 58.9128 23.7703 59.098 23.6215C59.2831 23.4727 59.3942 23.2495 59.3942 22.9891C59.3942 22.8031 59.3572 22.6543 59.2831 22.5427C59.2091 22.4311 59.0609 22.3195 58.9128 22.2079C58.7277 22.0963 58.4685 22.0219 58.1352 21.9103C57.3576 21.6871 56.8022 21.3895 56.4689 21.0175C56.1357 20.6455 55.9876 20.2363 55.9876 19.6783C55.9876 19.2692 56.0986 18.8972 56.3208 18.5996C56.543 18.302 56.8392 18.0416 57.2465 17.8928C57.6168 17.744 58.0612 17.6324 58.5796 17.6324C59.0239 17.558 59.5053 17.6324 59.8756 17.7812Z" fill="#D3E7FF"/>
<path d="M67.4665 18.5623C68.0219 19.1947 68.3182 20.1246 68.3182 21.315C68.3182 22.0962 68.2071 22.7658 67.9479 23.3238C67.6887 23.8818 67.3184 24.3281 66.837 24.6257C66.3557 24.9233 65.8002 25.0721 65.1337 25.0721C64.4672 25.0721 63.9117 24.9233 63.4304 24.6257C62.949 24.3281 62.5787 23.919 62.3195 23.361C62.0603 22.803 61.9492 22.1334 61.9492 21.3522C61.9492 20.571 62.0603 19.9386 62.3195 19.3807C62.5787 18.8227 62.949 18.3763 63.4304 18.0787C63.9117 17.7811 64.4672 17.6323 65.1337 17.6323C66.1335 17.5579 66.9111 17.8927 67.4665 18.5623ZM64.0228 19.3807C63.8007 19.7899 63.6525 20.4222 63.6525 21.2778C63.6525 22.1706 63.7636 22.803 64.0228 23.175C64.245 23.5842 64.6153 23.7702 65.0967 23.7702C65.578 23.7702 65.9483 23.5842 66.1705 23.175C66.3927 22.7658 66.5408 22.1334 66.5408 21.2778C66.5408 20.4222 66.4297 19.7527 66.1705 19.3807C65.9483 19.0087 65.578 18.7855 65.0967 18.7855C64.6153 18.7855 64.282 19.0087 64.0228 19.3807Z" fill="#D3E7FF"/>
<path d="M74.1305 18.488C74.7971 19.0088 75.1303 19.9016 75.1303 21.2408C75.1303 22.5427 74.7971 23.4727 74.1676 24.0307C73.5011 24.5515 72.6494 24.8491 71.6126 24.8491H69.502V17.744H71.4645C72.5753 17.744 73.464 18.0044 74.1305 18.488ZM71.1682 18.9716V23.6215H71.7237C72.2791 23.6215 72.6864 23.4355 72.9827 23.1007C73.2789 22.7659 73.427 22.1335 73.427 21.2408C73.427 20.6456 73.3529 20.162 73.2048 19.8272C73.0567 19.4924 72.8716 19.2692 72.6124 19.1204C72.3532 19.0088 72.0569 18.9344 71.6866 18.9344H71.1682V18.9716Z" fill="#D3E7FF"/>
<path d="M78.0257 17.6911V24.7961H76.3594V17.6911H78.0257Z" fill="#D3E7FF"/>
<path d="M84.9807 17.744L82.7219 22.1707V24.8491H81.0556V22.2079L78.7969 17.744H80.6113L81.9073 20.8688L83.2033 17.744H84.9807Z" fill="#D3E7FF"/>
<path d="M90.6091 18.5623C91.1645 19.1947 91.4608 20.1246 91.4608 21.315C91.4608 22.0962 91.3497 22.7658 91.0905 23.3238C90.8313 23.8818 90.461 24.3281 89.9796 24.6257C89.4982 24.9233 88.9428 25.0721 88.2763 25.0721C87.6098 25.0721 87.0543 24.9233 86.5729 24.6257C86.0916 24.3281 85.7213 23.919 85.4621 23.361C85.2029 22.803 85.0918 22.1334 85.0918 21.3522C85.0918 20.571 85.2029 19.9386 85.4621 19.3807C85.7213 18.8227 86.0916 18.3763 86.5729 18.0787C87.0543 17.7811 87.6098 17.6323 88.2763 17.6323C89.2761 17.5579 90.0537 17.8927 90.6091 18.5623ZM87.1654 19.3807C86.9432 19.7899 86.7951 20.4222 86.7951 21.2778C86.7951 22.1706 86.9062 22.803 87.1654 23.175C87.3876 23.5842 87.7579 23.7702 88.2392 23.7702C88.7206 23.7702 89.0909 23.5842 89.3131 23.175C89.5353 22.7658 89.6834 22.1334 89.6834 21.2778C89.6834 20.4222 89.5723 19.7527 89.3131 19.3807C89.0909 19.0087 88.7206 18.7855 88.2392 18.7855C87.7579 18.7855 87.4246 19.0087 87.1654 19.3807Z" fill="#D3E7FF"/>
<path d="M97.127 17.744L96.9789 19.046H95.2385V24.849H93.5722V19.046H91.7578V17.744H97.127Z" fill="#D3E7FF"/>
<path d="M108.642 22.5055C108.642 22.9891 108.531 23.4355 108.346 23.8075C108.124 24.1795 107.828 24.4771 107.42 24.7003C107.013 24.9235 106.495 25.0351 105.902 25.0351C105.014 25.0351 104.31 24.8119 103.866 24.3655C103.384 23.9191 103.162 23.2867 103.162 22.5055V17.744H104.828V22.4311C104.828 22.8775 104.902 23.2123 105.088 23.4355C105.273 23.6587 105.532 23.7703 105.902 23.7703C106.273 23.7703 106.569 23.6587 106.717 23.4355C106.902 23.2123 106.976 22.8775 106.976 22.4311V17.744H108.642V22.5055Z" fill="#D3E7FF"/>
<path d="M115.492 24.849H113.344L111.308 19.3436C111.382 19.9015 111.419 20.3479 111.456 20.7571C111.493 21.1663 111.53 21.6499 111.53 22.2451V24.849H110.049V17.744H112.122L114.196 23.2495C114.048 22.3195 113.974 21.4267 113.974 20.6083V17.744H115.492V24.849Z" fill="#D3E7FF"/>
<path d="M118.678 17.744V24.849H117.012V17.744H118.678Z" fill="#D3E7FF"/>
<path d="M125.491 17.744L123.528 24.8491H121.455L119.418 17.744H121.195L122.528 23.5471L123.787 17.744H125.491Z" fill="#D3E7FF"/>
<path d="M130.526 17.744L130.341 18.9344H127.86V20.6455H130.044V21.8359H127.86V23.6586H130.526V24.8862H126.193V17.744H130.526Z" fill="#D3E7FF"/>
<path d="M134.081 22.1335H133.414V24.8491H131.748V17.744H134.081C135.044 17.744 135.784 17.93 136.266 18.2648C136.747 18.5996 137.006 19.1576 137.006 19.9016C137.006 20.348 136.895 20.7572 136.673 21.0548C136.451 21.3524 136.117 21.6128 135.636 21.836L137.413 24.8491H135.525L134.081 22.1335ZM133.451 20.9804H134.155C134.525 20.9804 134.821 20.906 135.007 20.72C135.192 20.534 135.303 20.2736 135.303 19.9016C135.303 19.5668 135.192 19.3064 135.007 19.1576C134.821 19.0088 134.488 18.9344 134.081 18.9344H133.488V20.9804H133.451Z" fill="#D3E7FF"/>
<path d="M141.819 17.7812C142.226 17.93 142.559 18.1532 142.893 18.4507L142.115 19.3807C141.634 18.9715 141.115 18.7855 140.56 18.7855C140.264 18.7855 140.042 18.8599 139.856 18.9715C139.671 19.0831 139.597 19.2691 139.597 19.4923C139.597 19.6411 139.634 19.7899 139.708 19.8643C139.782 19.9759 139.93 20.0503 140.116 20.1619C140.301 20.2363 140.597 20.3479 140.967 20.4967C141.671 20.7199 142.226 21.0175 142.559 21.3523C142.893 21.6871 143.078 22.1707 143.078 22.803C143.078 23.2494 142.967 23.6214 142.745 23.9934C142.522 24.3282 142.189 24.5886 141.782 24.7746C141.375 24.9606 140.856 25.0722 140.264 25.0722C139.671 25.0722 139.19 24.9978 138.746 24.8118C138.301 24.6258 137.931 24.3654 137.598 24.0678L138.449 23.1378C138.709 23.361 139.005 23.547 139.301 23.6586C139.597 23.7702 139.893 23.8446 140.227 23.8446C140.56 23.8446 140.856 23.7702 141.041 23.6214C141.226 23.4726 141.338 23.2494 141.338 22.989C141.338 22.803 141.301 22.6542 141.226 22.5427C141.152 22.4311 141.004 22.3195 140.856 22.2079C140.671 22.0963 140.412 22.0219 140.079 21.9103C139.301 21.6871 138.746 21.3895 138.412 21.0175C138.079 20.6827 137.931 20.2363 137.931 19.6783C137.931 19.2691 138.042 18.8971 138.264 18.5995C138.486 18.302 138.783 18.0416 139.19 17.8928C139.56 17.744 140.005 17.6324 140.523 17.6324C140.967 17.558 141.412 17.6324 141.819 17.7812Z" fill="#D3E7FF"/>
<path d="M145.856 17.744V24.8491H144.189V17.744H145.856Z" fill="#D3E7FF"/>
<path d="M152.225 17.744L152.077 19.046H150.336V24.849H148.67V19.046H146.855V17.744H152.225Z" fill="#D3E7FF"/>
<path d="M157.409 17.744L157.223 18.9344H154.742V20.6456H156.927V21.836H154.742V23.6587H157.409V24.8863H153.076V17.744H157.409Z" fill="#D3E7FF"/>
<path d="M163.482 17.744L163.334 19.046H161.594V24.8491H159.928V19.046H158.113V17.744H163.482Z" fill="#D3E7FF"/>
<path d="M166 17.744V24.8491H164.334V17.744H166Z" fill="#D3E7FF"/>
</g>
<defs>
<clipPath id="clip0_7734_11955">
<rect width="166" height="34" fill="white"/>
</clipPath>
</defs>
</svg>
