<svg xmlns:xlink="http://www.w3.org/1999/xlink" xmlns="http://www.w3.org/2000/svg" width="71" height="40" viewBox="0 0 71 40" fill="none">
<path d="M18.952 7.00542C19.2853 6.64461 19.6257 6.26057 19.7757 5.77948C20.2484 7.08461 20.0598 8.56479 19.5009 9.81158C21.8161 10.0527 24.1097 10.5052 26.3499 11.1465C26.8139 12.2456 27.1343 13.4025 27.3839 14.5695C28.057 17.7966 28.0471 21.1839 27.2398 24.3854C27.2375 24.4455 27.2416 24.355 27.2398 24.4157L26.3593 27.0998C25.5391 29.0605 24.4454 30.9045 23.1061 32.5448C21.0165 35.1305 18.2731 37.3095 15.4529 39.0531C15.1372 39.2483 14.7383 39.2465 14.4239 39.0493C12.7315 37.9875 11.0716 36.788 9.60032 35.4409C8.11464 34.0845 6.76839 32.5639 5.64886 30.8812L3.74315 27.3552C3.74197 27.4029 3.74432 27.3076 3.74315 27.3552C2.22466 23.7655 1.79466 19.7346 2.40979 15.8853C2.67048 14.2622 3.07002 12.6493 3.72264 11.1405C5.01031 10.7398 6.32902 10.4487 7.65535 10.2141C7.48897 9.68654 7.60965 9.07387 7.98693 8.66959C8.414 8.18135 9.16212 8.02119 9.74151 8.30936C10.2986 8.56837 10.6736 9.17806 10.6554 9.80086C11.9935 9.65677 13.3379 9.59783 14.683 9.57341C16.2812 9.08935 17.7762 8.21231 18.952 7.00542ZM19.7066 6.15637C19.3884 7.1382 18.8963 8.098 18.1166 8.78212C17.713 9.14532 17.2045 9.34597 16.7135 9.55376C15.3784 10.1182 13.9144 10.3123 12.6197 10.9833C11.9437 11.3364 11.2682 11.7306 10.7468 12.3028C10.1123 12.9905 9.6923 13.8562 9.42574 14.7529C8.99984 16.2158 8.93481 17.7662 9.08361 19.278C9.27401 21.0195 9.76201 22.7218 10.4732 24.3163C10.9413 25.3713 11.5535 26.355 12.2395 27.2772C12.8517 28.0858 13.4955 28.8878 14.2946 29.5142C13.1903 28.009 12.3362 26.3115 11.8007 24.514C11.3654 23.0695 11.192 21.5512 11.2401 20.0431C11.2623 19.1362 11.4123 18.23 11.707 17.3732C12.0462 16.3986 12.5834 15.5043 13.2219 14.704C13.8084 13.9479 14.5717 13.3662 15.3233 12.7922C16.5565 11.8651 17.8319 10.9238 18.6995 9.61331C19.4048 8.56479 19.7692 7.29658 19.7728 6.03015C19.7563 6.0617 19.723 6.12482 19.7066 6.15637ZM8.71805 8.41416C8.40815 8.5118 8.13573 8.72615 7.96819 9.00897C7.70456 9.43171 7.70339 10.0033 7.95881 10.4302C8.22302 10.8905 8.76668 11.1626 9.2869 11.0881C9.95475 11.0173 10.5048 10.3683 10.4621 9.68475C10.448 8.82975 9.53002 8.12657 8.71805 8.41416ZM18.5753 11.3126C17.8834 12.1867 17.0269 12.9119 16.1113 13.5311C14.5846 14.5861 13.444 16.1664 12.8218 17.9258C12.2213 19.6221 12.0309 21.4607 12.2055 23.2517C12.4153 25.5256 13.1604 27.7625 14.4399 29.6476C13.8757 29.2987 13.3643 28.8706 12.8681 28.43C11.8968 27.544 11.0286 26.5407 10.3027 25.438C8.75613 23.1106 7.91429 20.2955 8.00685 17.4828C8.03263 16.0979 8.25114 14.6832 8.87974 13.4394C9.27577 12.6451 9.85692 11.9491 10.557 11.415C8.63897 11.643 6.7268 11.9747 4.86502 12.5016C4.07473 14.4736 3.66347 16.5915 3.53927 18.7135C3.36352 21.8299 3.94584 24.9968 5.27979 27.8131C5.82169 28.0138 6.35187 28.2472 6.86506 28.5157C7.60204 28.8837 8.26403 29.3927 9.02679 29.7101C10.2471 30.2477 11.5898 30.5204 12.9202 30.4329C13.1593 30.4204 13.3924 30.3561 13.632 30.3489C12.4949 31.0938 11.1516 31.4725 9.80888 31.5606C9.01683 31.619 8.22419 31.5207 7.44796 31.3653C9.48315 34.0107 12.11 36.1274 14.9373 37.838C15.1634 37.7326 15.3696 37.5897 15.5834 37.4617C17.2162 36.4489 18.7675 35.2932 20.1705 33.9696C21.7716 32.4549 23.1823 30.7151 24.238 28.7628C23.6896 29.1915 23.1893 29.6803 22.6404 30.1078C19.8348 32.3328 16.239 33.5338 12.6783 33.3433C11.4568 33.2641 10.2008 33.0551 9.12755 32.4245C9.14337 32.3811 9.17383 32.2947 9.18965 32.2519C9.57279 32.2668 9.95651 32.265 10.3396 32.2376C12.6853 32.0536 14.949 31.1795 16.9174 29.8863C17.9608 29.1837 18.9789 28.4431 20.0258 27.7452C21.846 26.5235 23.7588 25.3862 25.8602 24.7456C26.6575 21.8251 26.7143 18.7165 26.1255 15.7502C25.9076 14.6594 25.6206 13.5781 25.2034 12.5475C25.1824 12.4653 25.0874 12.4617 25.0248 12.4349C23.0066 11.83 20.9251 11.4525 18.8301 11.2638C18.7452 11.2662 18.6286 11.2161 18.5753 11.3126ZM28.2591 24.4157C26.9949 24.5652 25.7582 24.9182 24.5807 25.4059C22.5227 26.2633 20.6597 27.519 18.8319 28.7908C17.8711 29.4493 16.9391 30.1584 15.9121 30.7104C13.9706 31.7726 11.7913 32.4382 9.57747 32.4567C10.6935 32.9771 11.9337 33.1378 13.1505 33.1777C16.7047 33.2349 20.2514 31.925 22.9656 29.5981C24.6779 28.0953 26.4624 26.6598 28.4279 25.5113C29.2363 25.0474 26.507 25.2969 27.3998 25.0272C26.4971 24.9712 29.1572 24.2966 28.2591 24.4157ZM0.300781 27.263C1.43671 27.6583 2.44142 28.3496 3.41215 29.0527C4.30262 29.7029 5.2089 30.3543 6.23587 30.7645C8.28864 31.6309 10.697 31.5922 12.714 30.6395C10.9964 30.6806 9.27577 30.1959 7.8147 29.2802C6.7725 28.6157 5.64184 28.0924 4.46021 27.7423C3.11396 27.3511 1.70093 27.1463 0.300781 27.263Z" fill="white"/>
<path fill-rule="evenodd" clip-rule="evenodd" d="M13.5595 10.5769H17.9378C17.1896 11.3892 16.2947 12.0616 15.4154 12.7223C15.3844 12.7456 15.3534 12.7689 15.3224 12.7922L15.3137 12.7989C14.5649 13.3707 13.8052 13.9508 13.2211 14.7041C12.5825 15.5043 12.0453 16.3986 11.7061 17.3733C11.4114 18.2301 11.2614 19.1363 11.2392 20.0431C11.1911 21.5512 11.3645 23.0695 11.7998 24.514C12.3353 26.3115 13.1894 28.009 14.2937 29.5142C13.4946 28.8878 12.8508 28.0858 12.2386 27.2773C11.5526 26.355 10.9404 25.3714 10.4723 24.3163C9.76112 22.7218 9.27312 21.0195 9.08272 19.278C8.93392 17.7662 8.99895 16.2158 9.42485 14.7529C9.6914 13.8562 10.1114 12.9905 10.7459 12.3028C11.2673 11.7306 11.9428 11.3364 12.6188 10.9834C12.9243 10.825 13.2391 10.6933 13.5595 10.5769ZM4.35126 27.7113L5.98908 30.6608C6.0703 30.6969 6.15225 30.7315 6.23498 30.7646C8.28774 31.6309 10.6961 31.5922 12.7131 30.6395C10.9955 30.6806 9.27487 30.1959 7.8138 29.2802C6.7716 28.6157 5.64094 28.0924 4.45931 27.7423C4.42334 27.7318 4.38733 27.7215 4.35126 27.7113ZM25.6497 27.3848C24.7264 28.0858 23.8362 28.8333 22.9647 29.5982C20.2505 31.925 16.7038 33.2349 13.1496 33.1777C11.9328 33.1379 10.6926 32.9771 9.57658 32.4567C11.7904 32.4383 13.9698 31.7726 15.9112 30.7104C16.6915 30.291 17.417 29.7809 18.1419 29.2712C18.3711 29.1101 18.6002 28.949 18.831 28.7908C20.6588 27.519 22.5218 26.2633 24.5798 25.4059C25.1802 25.1573 25.7959 24.9436 26.4228 24.7741L25.6497 27.3848ZM16.1104 13.5311C17.0261 12.9119 17.8825 12.1867 18.5744 11.3126C18.6139 11.2412 18.6881 11.2501 18.7585 11.2585C18.7831 11.2615 18.8072 11.2644 18.8292 11.2638C20.9242 11.4525 23.0057 11.83 25.0239 12.435C25.0393 12.4415 25.0567 12.4467 25.0744 12.452C25.1288 12.4683 25.1866 12.4855 25.2025 12.5475C25.6197 13.5781 25.9067 14.6594 26.1246 15.7502C26.7134 18.7165 26.6566 21.8251 25.8593 24.7456C23.7579 25.3863 21.8451 26.5235 20.0249 27.7453C19.4696 28.1154 18.9224 28.4976 18.3752 28.8798C17.8908 29.2181 17.4064 29.5564 16.9165 29.8863C14.9481 31.1796 12.6844 32.0536 10.3387 32.2376C9.95561 32.265 9.57189 32.2668 9.18876 32.2519C9.17976 32.2763 9.16604 32.3147 9.15296 32.3513C9.14303 32.3791 9.13348 32.4058 9.12666 32.4246C10.1999 33.0551 11.4559 33.2641 12.6774 33.3433C16.2381 33.5338 19.834 32.3329 22.6395 30.1078C22.9162 29.8923 23.1806 29.6612 23.445 29.4301C23.7051 29.2027 23.9652 28.9754 24.2371 28.7628C23.1814 30.7151 21.7707 32.4549 20.1696 33.9696C18.7666 35.2932 17.2153 36.4489 15.5826 37.4617C15.5222 37.4978 15.4625 37.5351 15.4027 37.5725C15.2507 37.6674 15.0987 37.7624 14.9364 37.838C12.1091 36.1274 9.48226 34.0107 7.44707 31.3653C8.2233 31.5207 9.01593 31.619 9.80798 31.5606C11.1507 31.4725 12.494 31.0938 13.6311 30.349C13.5054 30.3527 13.3815 30.3722 13.2576 30.3917C13.1453 30.4093 13.033 30.427 12.9194 30.4329C11.5889 30.5204 10.2462 30.2477 9.0259 29.7101C8.58702 29.5275 8.18151 29.2814 7.77588 29.0353C7.47652 28.8536 7.17711 28.672 6.86417 28.5157C6.35097 28.2472 5.82079 28.0138 5.2789 27.8131C3.94495 24.9969 3.36263 21.8299 3.53838 18.7135C3.66258 16.5915 4.07383 14.4736 4.86413 12.5016C6.72591 11.9747 8.63807 11.6431 10.5561 11.415C9.85602 11.9491 9.27487 12.6451 8.87885 13.4394C8.25025 14.6832 8.03173 16.0979 8.00596 17.4828C7.91339 20.2955 8.75524 23.1106 10.3018 25.4381C11.0277 26.5407 11.8959 27.544 12.8672 28.43C13.3634 28.8706 13.8748 29.2987 14.439 29.6476C13.1595 27.7625 12.4144 25.5256 12.2046 23.2517C12.0301 21.4607 12.2205 19.6221 12.8209 17.9258C13.4431 16.1664 14.5837 14.5862 16.1104 13.5311Z" fill="#971837"/>
<path d="M62.3517 10.9375C63.4285 10.3588 64.6581 10.1045 65.872 10.1313C67.2387 10.1474 68.6295 10.5201 69.7443 11.3442C70.1486 11.6502 70.537 11.9926 70.8322 12.4111C70.1122 13.0601 69.4098 13.7282 68.6928 14.3796C68.2692 13.8645 67.739 13.4251 67.1157 13.187C66.1045 12.8119 64.91 12.9083 63.9973 13.5013C63.2867 13.9658 62.8086 14.7499 62.654 15.5882C62.4132 16.8172 62.7003 18.2318 63.6622 19.0779C64.2949 19.6406 65.1531 19.9037 65.9874 19.8615C67.0495 19.8776 68.039 19.278 68.6933 18.4551C69.4081 19.1101 70.1222 19.7662 70.8351 20.4235C70.1257 21.3458 69.121 22.0151 68.0249 22.3634C66.9194 22.7159 65.7355 22.7831 64.5907 22.6265C63.4208 22.4574 62.2814 21.9954 61.3605 21.2357C60.2931 20.3717 59.5584 19.1065 59.2995 17.7478C59.0177 16.2813 59.1958 14.7041 59.9011 13.3834C60.4501 12.3409 61.323 11.4847 62.3517 10.9375Z" fill="white"/>
<path d="M31.6719 10.3683C35.2244 10.3701 38.7769 10.3677 42.3288 10.3695C42.3294 11.2751 42.3294 12.1807 42.3294 13.0863C41.1143 13.0881 39.8999 13.0816 38.6849 13.0893C38.6861 16.2152 38.6861 19.3405 38.6849 22.4664C37.5648 22.4658 36.4441 22.4664 35.3234 22.4664C35.3245 19.3393 35.324 16.2128 35.324 13.0863C34.1066 13.0851 32.8892 13.0869 31.6719 13.0857C31.6719 12.1795 31.6725 11.2739 31.6719 10.3683Z" fill="white"/>
<path d="M43.5742 10.3653C44.4998 10.3659 45.4255 10.3642 46.3511 10.3665C47.7389 12.6964 49.1391 15.0184 50.5275 17.3477C51.889 15.0208 53.2457 12.6904 54.6096 10.3647C55.5305 10.3665 56.4514 10.3647 57.3724 10.3653C57.3893 14.3986 57.4052 18.4325 57.4139 22.4658C56.3799 22.4664 55.346 22.4664 54.312 22.4658C54.3026 20.3342 54.3014 18.2027 54.2833 16.0717C53.2551 17.8002 52.2481 19.5418 51.227 21.2744C50.7255 21.2738 50.2246 21.2756 49.7231 21.2732C48.719 19.5876 47.6944 17.9139 46.6891 16.2283C46.6891 18.3075 46.6885 20.3866 46.6891 22.4658C45.651 22.4664 44.6123 22.4658 43.5742 22.4664C43.5748 18.4325 43.5742 14.3992 43.5742 10.3653Z" fill="white"/>
<path d="M16.3961 14.2259C17.3294 13.5704 18.354 13.0583 19.4138 12.6517C18.8847 15.6615 18.3223 18.6659 17.7851 21.6745C16.7968 22.0585 15.9831 22.8236 15.4277 23.7286C14.7769 24.7998 14.4681 26.0549 14.3949 27.3034C14.3662 27.7958 14.3375 28.2942 14.4101 28.7836C14.3598 27.3886 14.5478 25.9572 15.146 24.6884C15.7207 23.466 16.7312 22.411 18.0107 21.9716C18.4208 19.918 18.8068 17.8585 19.2058 15.802C19.9445 15.5704 20.7172 15.481 21.4806 15.3739C20.835 18.0502 20.1812 20.7248 19.5473 23.4035C18.6041 23.4601 17.6592 23.7453 16.8982 24.3282C15.8905 25.0838 15.2368 26.2311 14.8548 27.4249C14.7335 27.8465 14.5724 28.271 14.5783 28.7163C14.7183 27.8548 15.0323 27.023 15.467 26.2716C15.9784 25.4011 16.7277 24.667 17.6322 24.2305C18.2954 23.9013 19.0306 23.7334 19.767 23.7119C20.2292 21.7799 20.7096 19.8525 21.1777 17.9216C21.9053 17.8871 22.6335 17.9377 23.3594 17.9812C22.6528 20.3872 21.9428 22.7932 21.2416 25.2011C20.0371 24.9313 18.7277 25.0141 17.6211 25.5964C16.1003 26.3812 15.0329 27.8697 14.4301 29.46C13.3838 27.4487 12.6802 25.2356 12.4786 22.9647C12.3369 21.219 12.5495 19.4119 13.3029 17.8216C13.979 16.3599 15.0909 15.1345 16.3961 14.2259Z" fill="white"/>
<path d="M41.0907 25.1046C41.4668 24.7081 42.0327 24.5938 42.5547 24.5777C43.1417 24.5801 43.7434 24.7325 44.2232 25.0874C44.1845 25.1606 44.147 25.2344 44.1089 25.3077C43.4786 24.8486 42.6432 24.7099 41.8974 24.9147C41.6004 25.0052 41.3069 25.1749 41.1476 25.4541C40.9859 25.7161 40.9665 26.0489 41.0444 26.3425C41.1388 26.6491 41.4018 26.8641 41.6836 26.9879C42.3339 27.2779 43.065 27.3207 43.7076 27.6345C43.9672 27.7613 44.2079 27.9566 44.3316 28.2275C44.5436 28.7051 44.4558 29.3177 44.0808 29.6881C43.7112 30.0578 43.1734 30.1817 42.6701 30.2019C41.9168 30.2275 41.1147 30.0036 40.5781 29.4416C40.625 29.3749 40.6736 29.3094 40.7228 29.2451C41.1956 29.7429 41.8921 29.962 42.56 29.9655C42.983 29.9542 43.4305 29.8852 43.7785 29.6214C44.1529 29.3451 44.2923 28.7932 44.0978 28.3669C43.997 28.1198 43.7733 27.9542 43.5424 27.8429C42.7932 27.4892 41.9015 27.5077 41.2108 27.0165C40.6098 26.5926 40.5846 25.6143 41.0907 25.1046Z" fill="white"/>
<path d="M32.5273 24.6146C32.6164 24.614 32.7054 24.614 32.7951 24.6146C32.7951 26.4675 32.7951 28.321 32.7951 30.1745C32.7054 30.1739 32.6164 30.1739 32.5273 30.1745C32.5273 28.321 32.5273 26.4681 32.5273 24.6146Z" fill="white"/>
<path d="M34.7937 30.1745C34.7925 28.321 34.7931 26.4681 34.7931 24.6146C34.8482 24.6146 34.9577 24.6146 35.0122 24.614C36.3016 26.302 37.5957 27.9858 38.8822 29.6762C38.8811 27.9882 38.8822 26.3008 38.8816 24.6134C38.9689 24.6134 39.0568 24.6146 39.1453 24.6158C39.1453 26.4693 39.1447 28.3222 39.1453 30.1757C39.0738 30.1751 39.0035 30.1745 38.9332 30.1751C37.6373 28.4907 36.3514 26.7991 35.0573 25.1141C35.055 26.8009 35.0567 28.4877 35.0562 30.1745C34.9683 30.1745 34.8804 30.1745 34.7937 30.1745Z" fill="white"/>
<path d="M44.8168 24.614C46.2398 24.6146 47.6628 24.614 49.0858 24.6146C49.0852 24.6962 49.0847 24.7783 49.0852 24.8605C48.418 24.8605 47.7501 24.8599 47.0829 24.8611C47.0764 26.6319 47.0823 28.4032 47.0799 30.1745C46.9926 30.1739 46.9059 30.1739 46.8204 30.1745C46.8186 28.4032 46.8227 26.6313 46.8181 24.8599C46.1508 24.8617 45.4835 24.8599 44.8168 24.8605C44.8163 24.7783 44.8163 24.6962 44.8168 24.614Z" fill="white"/>
<path d="M50.1133 24.6146C50.2029 24.614 50.2931 24.614 50.3839 24.6146C50.3845 26.4675 50.3839 28.321 50.3839 30.1739C50.2931 30.1739 50.2029 30.1739 50.1133 30.1751C50.1133 28.3216 50.1133 26.4681 50.1133 24.6146Z" fill="white"/>
<path d="M51.4221 24.8605C51.4215 24.7777 51.4221 24.6962 51.4233 24.614C52.8457 24.6146 54.2687 24.614 55.6911 24.6146C55.6899 24.6962 55.6899 24.7783 55.6905 24.8605C55.0215 24.8605 54.3525 24.8605 53.6834 24.8605C53.6834 26.6318 53.6834 28.4032 53.6834 30.1745C53.5973 30.1739 53.5124 30.1739 53.428 30.1745C53.4268 28.4032 53.4309 26.6318 53.4263 24.8605C52.7578 24.8605 52.09 24.8605 51.4221 24.8605Z" fill="white"/>
<path d="M56.543 24.614C56.6303 24.614 56.7181 24.6146 56.8066 24.6152C56.8078 25.6732 56.806 26.7313 56.8078 27.7893C56.8113 28.3091 56.8886 28.8569 57.1932 29.2898C57.4475 29.6595 57.8763 29.8738 58.3104 29.9268C58.8201 29.9953 59.3743 29.9483 59.8154 29.6583C60.2208 29.3934 60.4511 28.92 60.526 28.4472C60.5975 28.0918 60.5799 27.728 60.5817 27.3678C60.5817 26.4497 60.5817 25.5321 60.5823 24.6146C60.6672 24.614 60.7528 24.6146 60.8395 24.6152C60.8395 25.5327 60.8395 26.4502 60.8395 27.3684C60.8412 27.8286 60.8547 28.2978 60.7287 28.745C60.6086 29.2076 60.3339 29.6399 59.9267 29.8899C59.4305 30.1954 58.8207 30.2507 58.2565 30.1721C57.7756 30.1037 57.304 29.8733 57.0058 29.4761C56.6683 29.0319 56.5523 28.4586 56.5436 27.9084C56.543 26.8099 56.5436 25.7119 56.543 24.614Z" fill="white"/>
<path d="M61.7041 24.6146C63.1265 24.614 64.5495 24.6152 65.9731 24.614C65.9725 24.6956 65.9731 24.7777 65.9749 24.8599C65.307 24.8617 64.6397 24.8599 63.9725 24.8611C63.969 26.6318 63.9725 28.4032 63.9707 30.1745C63.884 30.1739 63.7979 30.1745 63.7135 30.1751C63.7135 28.4038 63.7129 26.6318 63.7135 24.8605C63.0433 24.8599 62.3731 24.8623 61.7035 24.8593C61.7029 24.7772 61.7029 24.6956 61.7041 24.6146Z" fill="white"/>
<path d="M67.0119 30.1763C67.0037 28.3222 67.0107 26.4681 67.0084 24.614C68.2023 24.6152 69.3963 24.614 70.5902 24.6146C70.5896 24.6962 70.5896 24.7777 70.5913 24.8599C69.6446 24.8611 68.6979 24.8605 67.7512 24.8605C67.589 24.8623 67.4243 24.8456 67.2662 24.8855C67.2767 25.6643 67.2703 26.4431 67.2697 27.2213C68.2597 27.2338 69.2504 27.2237 70.241 27.2267C70.241 27.2868 70.2416 27.4077 70.2422 27.4684C69.2515 27.469 68.2615 27.4672 67.2709 27.469C67.2714 28.2853 67.2709 29.101 67.2714 29.9167C68.4138 29.9239 69.5562 29.9173 70.6991 29.9203C70.6986 30.0048 70.6991 30.0894 70.7003 30.1751C69.4707 30.1751 68.2416 30.1727 67.0119 30.1763Z" fill="white"/>
<path d="M19.5392 0.330322C19.8239 0.699475 20.1116 1.06744 20.3863 1.44552C20.6968 1.39967 21.0097 1.37705 21.3231 1.35978C21.2001 1.63664 21.0495 1.89981 20.9077 2.16715C21.0513 2.55714 21.1743 2.95428 21.292 3.35261C21.0319 3.21924 20.7701 3.08944 20.5129 2.9513C20.3875 3.61995 20.1122 4.2475 19.9042 4.89293C19.8825 4.22309 19.8462 3.55445 19.7876 2.887C19.2879 2.92511 18.7882 2.86378 18.2891 2.84711C18.6816 2.42973 19.1286 2.06891 19.5838 1.72536C19.5662 1.26035 19.5633 0.79474 19.5392 0.330322Z" fill="white"/>
<path d="M19.707 6.15638C19.7234 6.12482 19.7568 6.06171 19.7732 6.03015C19.7697 7.29658 19.4053 8.5648 18.7 9.61331C17.8324 10.9238 16.557 11.8651 15.3238 12.7922C14.5722 13.3662 13.8088 13.9479 13.2224 14.704C12.5839 15.5043 12.0467 16.3986 11.7075 17.3732C11.4128 18.23 11.2628 19.1362 11.2405 20.043C11.1925 21.5512 11.3659 23.0695 11.8012 24.514C12.3366 26.3115 13.1908 28.009 14.2951 29.5142C13.496 28.8878 12.8522 28.0858 12.24 27.2772C11.554 26.3549 10.9418 25.3713 10.4737 24.3163C9.76249 22.7218 9.27449 21.0195 9.08409 19.2779C8.93529 17.7662 9.00032 16.2158 9.42622 14.7529C9.69277 13.8562 10.1128 12.9905 10.7473 12.3028C11.2687 11.7306 11.9441 11.3364 12.6202 10.9833C13.9149 10.3123 15.3789 10.1182 16.714 9.55377C17.2049 9.34597 17.7134 9.14532 18.1171 8.78212C18.8968 8.098 19.3889 7.1382 19.707 6.15638Z" fill="#971837"/>
<path d="M11.1511 9.65944C11.1363 8.99821 10.7779 8.42122 10.2956 8.06362C9.81116 7.70443 9.14927 7.5295 8.50271 7.755C8.03757 7.90382 7.63139 8.22389 7.37833 8.64827C6.98048 9.29051 6.98064 10.1393 7.36353 10.7826C7.76329 11.4752 8.57449 11.887 9.37223 11.7768C10.3946 11.6631 11.2096 10.6971 11.1511 9.65944Z" fill="#971837" stroke="white"/>
<path d="M28.2598 24.4157C29.1579 24.2966 30.0665 24.299 30.9693 24.355C30.0765 24.6247 29.237 25.0474 28.4285 25.5113C26.4631 26.6598 24.6786 28.0953 22.9662 29.5981C20.252 31.925 16.7054 33.2349 13.1511 33.1777C11.9344 33.1378 10.6941 32.9771 9.57812 32.4567C11.792 32.4382 13.9713 31.7726 15.9128 30.7104C16.9397 30.1584 17.8718 29.4493 18.8326 28.7908C20.6604 27.519 22.5233 26.2633 24.5814 25.4059C25.7589 24.9182 26.9956 24.5652 28.2598 24.4157Z" fill="white"/>
<path d="M0.300781 27.263C1.70093 27.1463 3.11396 27.3511 4.46021 27.7423C5.64183 28.0924 6.77249 28.6157 7.81469 29.2802C9.27576 30.1959 10.9964 30.6806 12.714 30.6395C10.697 31.5921 8.28863 31.6309 6.23587 30.7645C5.2089 30.3543 4.30262 29.7029 3.41215 29.0528C2.44142 28.3496 1.43671 27.6583 0.300781 27.263Z" fill="white"/>
<path d="M42.0938 32.9741C42.9673 32.5597 44.0282 32.6573 44.8789 33.0872C44.798 33.3248 44.7002 33.5558 44.6035 33.7874C44.0505 33.5028 43.4002 33.3409 42.7892 33.5094C42.5086 33.5796 42.2526 33.841 42.2947 34.153C42.3111 34.4191 42.566 34.5704 42.788 34.6502C43.4114 34.8681 44.1144 34.8913 44.6703 35.2837C45.0329 35.5296 45.1759 36.0107 45.0962 36.4334C45.037 36.7996 44.8062 37.1265 44.4946 37.3158C44.0435 37.6022 43.494 37.6653 42.9731 37.6445C42.3826 37.6141 41.7839 37.4706 41.2812 37.1449C41.3832 36.9145 41.4869 36.6841 41.5871 36.4531C42.1178 36.7865 42.7505 36.9633 43.375 36.9115C43.6439 36.8841 43.9568 36.8168 44.1085 36.5632C44.2532 36.3465 44.1835 36.0279 43.9685 35.8874C43.665 35.6784 43.2913 35.6284 42.9439 35.5379C42.4289 35.4063 41.8308 35.2718 41.5191 34.7895C41.1418 34.1631 41.4424 33.2724 42.0938 32.9741Z" fill="#ED720E"/>
<path d="M31.7348 32.8044C33.0822 32.805 34.429 32.805 35.7764 32.8044C35.7776 33.0521 35.777 33.2992 35.7782 33.5469C35.2597 33.5469 34.7419 33.5469 34.224 33.5475C34.2228 34.8854 34.2251 36.2233 34.2228 37.5611C33.91 37.5629 33.5971 37.5617 33.2843 37.5617C33.2843 36.225 33.2814 34.8878 33.2861 33.5511C32.7688 33.5415 32.2521 33.5499 31.7353 33.5463C31.7342 33.2992 31.7342 33.0515 31.7348 32.8044Z" fill="#ED720E"/>
<path d="M37.8299 32.805C38.1609 32.8056 38.4913 32.8014 38.8223 32.8074C39.5159 34.3936 40.2143 35.9773 40.9126 37.5617C40.5868 37.5629 40.2617 37.5605 39.9366 37.5635C39.7936 37.2146 39.6495 36.8663 39.5142 36.5144C38.7174 36.4995 37.9207 36.5126 37.124 36.5078C36.9775 36.8579 36.8369 37.2104 36.6922 37.5617C36.3765 37.5623 36.0613 37.5623 35.7461 37.5611C36.4391 35.975 37.1345 34.39 37.8299 32.805ZM38.3173 33.5969C38.0115 34.3352 37.7116 35.0759 37.4134 35.8178C38.0162 35.8166 38.619 35.8196 39.2218 35.816C38.9213 35.0759 38.6261 34.3334 38.3173 33.5969Z" fill="#ED720E"/>
<path d="M46.0747 32.8044C46.3882 32.805 46.7016 32.8032 47.0156 32.8062C47.015 33.4528 47.015 34.0988 47.0156 34.7454C47.8112 34.7609 48.6067 34.7496 49.4029 34.7562C49.4111 34.1066 49.3994 33.4564 49.4087 32.8068C49.7233 32.8032 50.0385 32.8038 50.3537 32.8062C50.3478 34.3918 50.3719 35.9785 50.3414 37.5635C50.0291 37.5605 49.7175 37.5629 49.4064 37.5617C49.4046 36.8865 49.4058 36.2113 49.4052 35.5361C48.6091 35.5367 47.8123 35.5355 47.0162 35.5367C47.0086 36.2119 47.0273 36.8877 47.0062 37.5629C46.6957 37.5611 46.3858 37.5623 46.0759 37.5623C46.073 35.9761 46.0747 34.3906 46.0747 32.8044Z" fill="#ED720E"/>
<path d="M51.6848 32.805C51.9964 32.8044 52.3075 32.8044 52.6192 32.805C52.6203 33.6213 52.6174 34.4376 52.6209 35.2539C53.3819 34.4477 54.1289 33.6267 54.8946 32.8252C55.222 32.7758 55.5671 32.8181 55.9022 32.8056C55.2619 33.5076 54.6157 34.2048 53.9818 34.9127C54.6696 35.7945 55.3568 36.6769 56.0416 37.5617C55.6837 37.5629 55.3257 37.5611 54.9678 37.5623C54.4394 36.8966 53.9033 36.2375 53.3767 35.5706C53.1166 35.8279 52.8728 36.1023 52.6203 36.3673C52.6186 36.7638 52.6186 37.161 52.6203 37.5581C52.3081 37.5659 51.9964 37.5605 51.6842 37.5617C51.6836 35.9761 51.683 34.3906 51.6848 32.805Z" fill="#ED720E"/>
<path d="M56.8131 32.805C57.9754 32.8038 59.1383 32.8056 60.3018 32.8038C60.3012 33.0455 60.3012 33.2867 60.3012 33.5284C59.45 33.5296 58.5993 33.5284 57.7481 33.529C57.747 33.9529 57.7475 34.3769 57.7475 34.8014C58.5003 34.802 59.2531 34.8008 60.0059 34.802C60.0059 35.0342 60.0059 35.267 60.0053 35.5004C59.2531 35.4998 58.5009 35.5004 57.7487 35.4998C57.7464 35.9434 57.7481 36.3876 57.7475 36.8317C58.6304 36.8335 59.5132 36.8299 60.3961 36.8335C60.3961 37.077 60.4014 37.3206 60.3896 37.5647C59.1975 37.5587 58.0053 37.5641 56.8137 37.5617C56.8114 35.9761 56.8131 34.3906 56.8131 32.805Z" fill="#ED720E"/>
<path d="M61.489 32.8044C61.7521 32.8044 62.0157 32.8044 62.2793 32.8044C63.1294 33.8589 63.9748 34.9175 64.8248 35.972C64.8254 34.9163 64.8242 33.8606 64.826 32.8044C65.1347 32.8044 65.4435 32.805 65.7528 32.8038C65.7522 34.39 65.7551 35.9755 65.7516 37.5617C65.4927 37.5623 65.2349 37.5605 64.9771 37.5641C64.1159 36.5126 63.2706 35.4474 62.4158 34.3912C62.4123 35.448 62.417 36.5049 62.4135 37.5617C62.1053 37.5623 61.7978 37.5617 61.4902 37.5623C61.4867 35.9761 61.489 34.3906 61.489 32.8044Z" fill="#ED720E"/>
<path d="M66.5363 32.805C67.8861 32.805 69.2359 32.8032 70.5856 32.8062C70.5845 33.0533 70.5862 33.301 70.5827 33.5487C70.0637 33.5457 69.5452 33.5475 69.0261 33.5475C69.0244 34.8854 69.0279 36.2232 69.0244 37.5611C68.7121 37.5629 68.4005 37.5617 68.0888 37.5617C68.087 36.2238 68.0882 34.886 68.0876 33.5481C67.5703 33.5451 67.053 33.5481 66.5357 33.5469C66.5352 33.2992 66.5346 33.0521 66.5363 32.805Z" fill="#ED720E"/>
</svg>