<svg xmlns:xlink="http://www.w3.org/1999/xlink" xmlns="http://www.w3.org/2000/svg" width="115" height="52" viewBox="0 0 115 52" fill="none">
<path fill-rule="evenodd" clip-rule="evenodd" d="M115 26.1544L108.235 26.1865L102.831 34.1805C101.563 33.5168 98.4448 27.9638 96.9463 26.1863L90.207 26.1747C90.8186 27.3137 91.5097 27.7166 92.2534 28.472L92.3631 44.4972L96.9385 44.5169L97.0282 34.0981C98.0118 35.2697 98.8302 36.6089 99.7352 37.9076C100.584 39.1254 101.52 40.8238 102.453 41.5888C103.993 41.0104 106.519 35.3 108.155 34.1589L108.314 44.5171L112.852 44.4656L112.976 28.5443L115 26.1544Z" fill="#F62559"/>
<path fill-rule="evenodd" clip-rule="evenodd" d="M59.5932 22.7732C61.4516 22.2941 94.059 22.5843 98.8734 22.5843C109.811 22.5843 108.965 21.5763 109.4 25.1073L112.787 25.0416C113.542 17.0219 108.295 18.7828 101.627 18.7836L66.6573 18.7821C60.0234 18.7821 55.1125 17.0575 55.7871 25.073L59.1642 25.0876L59.5932 22.7732Z" fill="#F62559"/>
<path fill-rule="evenodd" clip-rule="evenodd" d="M66.9329 51.836H101.903C108.057 51.836 113.87 53.4251 112.761 45.5794L109.433 45.5378L109.018 47.8774C107.251 48.2779 61.0304 48.2333 59.4678 47.8689L59.1392 45.5428L55.8061 45.6283C54.8791 53.5895 60.5366 51.836 66.9329 51.836Z" fill="#F62559"/>
<path fill-rule="evenodd" clip-rule="evenodd" d="M40.5308 34.8396L40.4378 30.1389C43.0835 30.0413 47.8645 29.224 47.9137 32.4055C47.9653 35.7387 43.3496 34.8286 40.5308 34.8396ZM48.1711 37.9527C50.1952 36.8614 51.7724 36.3432 52.4226 33.8765C53.1179 31.2395 51.7981 29.0352 50.4552 27.9211C48.3979 26.2139 46.9749 26.1571 43.8028 26.1714C41.1495 26.1835 38.4175 26.0944 35.7603 26.1899L35.7871 44.5153L40.4426 44.3753L40.4547 38.4798L43.2514 38.5444C46.5455 44.1778 47.2822 44.6973 52.5689 44.4727L52.5665 40.2249C50.1921 40.0676 48.706 40.0195 48.1711 37.9527Z" fill="#F62559"/>
<path fill-rule="evenodd" clip-rule="evenodd" d="M71.2249 26.2002C70.8078 28.1118 71.095 34.208 71.0941 36.5656C71.0928 40.4422 71.5094 42.223 74.1498 43.7302C78.2148 46.0509 87.0124 45.2513 87.0213 38.5075C87.0267 34.3924 87.1605 30.2659 86.8947 26.1588L82.4024 26.1529L82.3502 37.6887C82.284 42.3701 77.112 40.6164 76.5637 40.1591C75.641 39.3895 75.8208 37.8116 75.8207 36.5656L75.6586 26.1514L71.2249 26.2002Z" fill="#F62559"/>
<path fill-rule="evenodd" clip-rule="evenodd" d="M5.06143 30.2527C7.64227 29.7039 12.3185 29.486 12.1033 32.6542C11.9218 35.328 7.69216 35.2049 5.10187 34.728L5.06143 30.2527ZM5.11098 38.7518C8.68295 38.7698 11.4526 39.1556 14.0811 37.4286C15.832 36.2783 17.6892 33.5823 16.4058 30.3176C14.3541 25.0982 6.78791 25.9355 0.381348 26.1835L0.447816 44.5187L5.07886 44.4244L5.11098 38.7518Z" fill="#F62559"/>
<path fill-rule="evenodd" clip-rule="evenodd" d="M22.1891 38.8581C22.434 37.709 22.7277 37.0753 23.113 35.9629L23.8604 33.9381C24.1459 33.4616 24.0273 33.6979 24.3223 33.4085L26.1515 38.8089L22.1891 38.8581ZM20.8379 26.1828C21.4537 28.7655 22.0542 28.1444 20.9974 30.7724C19.7738 33.815 16.3029 42.4439 15.752 44.6224L20.0576 44.5624L20.9477 42.1519L27.4648 42.2285L28.383 44.6062L32.5671 44.6308C32.1968 42.6962 25.9703 26.866 25.5238 26.154L20.8379 26.1828Z" fill="#F62559"/>
<path fill-rule="evenodd" clip-rule="evenodd" d="M60.4406 30.2184L68.2592 30.1279L68.1339 26.1657L55.7324 26.2273L55.7824 44.5195L60.4335 44.4L60.4583 37.7728L65.6441 37.7309L65.6771 33.8227L60.4414 33.6499L60.4406 30.2184Z" fill="#F62559"/>
<path fill-rule="evenodd" clip-rule="evenodd" d="M96.2456 3.55505C99.3805 2.29641 100.721 7.26508 97.9724 8.20729C96.2718 8.79016 95.0046 7.87472 94.6327 6.69845C94.0824 4.95774 95.0332 4.04174 96.2456 3.55505ZM91.5069 0.468412C89.5958 1.24237 90.0547 2.84499 90.0526 5.2179C90.051 6.93267 89.7078 10.0384 90.717 10.9437C91.5917 11.7284 101.117 11.83 102.673 11.2737C104.369 10.6677 103.96 8.15051 103.959 6.32759C103.959 4.50349 104.372 1.53686 103.115 0.666614C102.293 0.0974338 92.5625 0.040998 91.5069 0.468412Z" fill="#F62559"/>
<path fill-rule="evenodd" clip-rule="evenodd" d="M31.7568 14.4837L34.8683 14.4895C35.393 12.4183 33.9356 6.95874 36.4249 6.67399C39.0114 6.37804 38.0746 12.4823 38.0708 14.4112L41.3606 14.4749C41.3844 6.54524 42.2428 2.66818 35.0262 4.92587L35.0103 0L31.7987 0.0154152L31.7568 14.4837Z" fill="#F62559"/>
<path fill-rule="evenodd" clip-rule="evenodd" d="M43.5161 14.419L46.8348 14.4857C46.8297 13.0575 46.6187 11.5679 47.1817 10.5833L49.7859 14.4877L53.4829 14.464L49.6388 8.57282C50.1959 7.90512 50.6309 7.27916 51.261 6.60863C52.1665 5.64465 52.4483 5.54552 53.0531 4.29345L49.2462 4.31971C48.7382 5.37058 47.6687 6.83132 46.8998 7.7029L46.8079 0.0165752L43.5717 0.00210571L43.5161 14.419Z" fill="#F62559"/>
<path fill-rule="evenodd" clip-rule="evenodd" d="M87.4373 17.9839L106.595 17.9695L106.56 13.8303L87.4355 13.9468L87.4373 17.9839Z" fill="#F62559"/>
<path fill-rule="evenodd" clip-rule="evenodd" d="M68.0071 5.17522C67.3169 4.40149 68.365 4.206 64.7666 4.39764L64.7919 14.396L68.0754 14.4843C68.0807 12.6201 68.0092 10.6257 68.0777 8.81372C68.1491 6.92317 69.6292 5.80797 70.8704 7.37424C71.6943 9.28756 70.8176 12.2379 71.2639 14.4265L74.2423 14.5005C74.6764 13.1043 74.5824 7.36172 74.0316 6.10703C73.0409 3.85084 69.7525 3.43668 68.0071 5.17522Z" fill="#F62559"/>
<path fill-rule="evenodd" clip-rule="evenodd" d="M15.3785 6.60633L16.224 6.2924L17.1907 6.50018C18.9545 8.66364 18.9962 12.21 15.5294 12.21C14.3239 11.8846 13.9763 8.2183 15.3785 6.60633ZM15.089 4.1604C8.67942 5.59554 10.2053 16.0104 17.5142 14.5231C23.9289 13.2177 22.4106 2.52099 15.089 4.1604Z" fill="#F62559"/>
<path fill-rule="evenodd" clip-rule="evenodd" d="M56.8741 8.14109C56.9414 5.81527 60.1245 5.45932 60.023 8.1821L56.8741 8.14109ZM62.631 14.084L62.2642 11.897C59.6863 12.2801 57.5493 12.9337 56.7682 10.4661L63.0209 10.3758C64.6247 3.80778 56.7821 2.05777 54.2995 6.63726C52.7024 9.58324 53.0389 16.418 62.631 14.084Z" fill="#F62559"/>
<path fill-rule="evenodd" clip-rule="evenodd" d="M0 3.24618L3.61127 3.29242L3.6499 14.4048L6.90384 14.4752L6.90186 3.29766L10.5143 3.27701L10.5172 0.575653L0.0876608 0.583056L0 3.24618Z" fill="#F62559"/>
<path fill-rule="evenodd" clip-rule="evenodd" d="M77.2283 2.50355L76.968 4.21933L75.6558 4.66304L75.6621 6.32767L77.0322 6.88238C77.1232 12.0867 76.2051 15.4302 82.5094 14.4125L82.4418 12.0685L80.4849 11.9065L80.2809 6.61683L82.647 6.60976L82.6619 4.33771L80.3136 4.23992L80.2681 1.802L77.2283 2.50355Z" fill="#F62559"/>
<path fill-rule="evenodd" clip-rule="evenodd" d="M26.9694 11.8758C25.7548 12.7548 24.3032 12.1145 23.1779 11.6949L22.5225 14.0092C25.3219 14.7938 29.0482 15.0334 30.0269 12.4269C30.5762 10.9641 29.8509 9.6133 29.0339 9.00015C28.4548 8.56539 27.92 8.39307 27.3794 8.18318C26.1291 7.6976 26.1593 7.87231 25.8845 6.7669C27.2051 6.01003 27.7348 6.48598 29.2462 6.89292L29.8101 4.67118C23.5357 2.4568 20.8948 7.58394 24.1992 9.70325C25.5331 10.5587 26.8975 10.3029 26.9694 11.8758Z" fill="#F62559"/>
<path fill-rule="evenodd" clip-rule="evenodd" d="M91.7145 13.3657C93.5161 13.3657 102.66 13.7568 103.863 12.9855L103.921 12.0398C101.767 11.8943 91.203 11.4964 90.4258 11.9874C89.1153 12.8154 90.6068 13.3657 91.7145 13.3657Z" fill="#F62559"/>
</svg>