<svg xmlns:xlink="http://www.w3.org/1999/xlink" xmlns="http://www.w3.org/2000/svg" width="76" height="32" viewBox="0 0 76 32" fill="none">
<g clip-path="url(#clip0_8438_12745)">
<path fill-rule="evenodd" clip-rule="evenodd" d="M42.4656 30.7254C44.2477 31.5754 46.3017 31.9999 48.6265 31.9999C51.9432 31.9999 54.609 30.9616 56.6242 28.8849C58.0159 27.4506 58.9271 25.5805 59.3574 23.2759L59.2904 23.2414C58.8164 22.9946 58.3747 22.7101 57.9647 22.3872C57.6991 24.2191 57.0741 25.6692 56.0895 26.7375C54.7411 28.2007 52.8732 28.9325 50.4864 28.9325C48.2236 28.9325 46.4796 28.2558 45.2552 26.9027C44.0309 25.5496 43.4187 23.3471 43.4187 20.2949V18.3749H36.7695V19.3981C36.7695 22.4188 37.2733 24.8496 38.2805 26.6901C39.288 28.5308 40.683 29.8762 42.4656 30.7254ZM58.1121 3.77556V6.48825C58.5908 6.12062 59.1021 5.80296 59.6465 5.53622V3.72884C59.6465 3.0997 59.7552 2.56425 59.9722 2.1237C60.189 1.68347 60.5919 1.40048 61.181 1.27454L62.4829 0.99155V0H55.322V0.99155L56.438 1.22718C57.0583 1.35287 57.4921 1.65231 57.74 2.1237C57.9881 2.5958 58.1121 3.14642 58.1121 3.77556ZM36.7695 8.9678V10.1478L43.4187 10.1478V8.9439C43.4187 7.16635 43.4344 5.39651 43.4651 3.63452C43.4651 2.34398 44.0541 1.55734 45.2319 1.27454L46.534 0.99155V0H33.9795V0.99155L35.0026 1.22718C36.1493 1.54172 36.7106 2.31281 36.7229 3.53999C36.7277 4.00963 36.7331 4.47821 36.7385 4.94576C36.7541 6.29502 36.7695 7.63563 36.7695 8.9678ZM58.6697 22.095C59.9429 22.7573 61.3717 23.089 62.9549 23.089C63.951 23.089 64.873 22.9812 65.7218 22.7661C66.5708 22.5502 67.3462 22.2439 68.0482 21.8465L68.1463 18.2673H67.485L66.5543 20.5287C66.424 20.86 66.2689 21.1544 66.0892 21.4115C65.9097 21.6679 65.6568 21.8627 65.3303 21.9954C65.0528 22.1112 64.7751 22.2025 64.4976 22.269C64.2203 22.335 63.8609 22.3684 63.4202 22.3684C62.4572 22.3684 61.5919 22.124 60.8246 21.635C60.0574 21.1463 59.4493 20.3218 59.0004 19.1618C58.5517 18.002 58.3272 16.4364 58.3272 14.4643C58.3272 12.4759 58.5636 10.9062 59.0371 9.75444C59.5104 8.60298 60.1432 7.77842 60.9349 7.28153C61.7265 6.78419 62.6041 6.53587 63.5672 6.53587C64.1221 6.53587 64.6035 6.63524 65.0117 6.83378C65.3058 6.95003 65.5464 7.14022 65.7342 7.4055C65.922 7.67089 66.0973 7.9688 66.2607 8.30048L67.289 10.2641H67.9503L67.8521 7.00797C67.1342 6.61044 66.3832 6.30795 65.5995 6.10087C64.8161 5.89405 63.9754 5.79028 63.0775 5.79028C61.9186 5.79028 60.8246 5.97652 59.7959 6.34919C58.7676 6.72192 57.8576 7.27732 57.0659 8.01443C56.2742 8.75193 55.654 9.65903 55.2049 10.7364C54.7561 11.813 54.5317 13.0476 54.5317 14.4395C54.5317 16.2952 54.903 17.8696 55.6458 19.1618C56.3884 20.4542 57.3963 21.4319 58.6697 22.095Z" fill="url(#paint0_linear_8438_12745)"/>
<path d="M3.26878 17.2587C2.74993 17.2587 2.29349 17.1642 1.89903 16.9746C1.49427 16.7849 1.18307 16.4795 0.965181 16.0687C0.736743 15.6576 0.622649 15.1203 0.622649 14.4462V13.3087C0.622649 12.9192 0.622649 12.5186 0.622649 12.1187C0.622649 11.7183 0.622649 11.318 0.612288 10.9071C0.612288 10.6333 0.487771 10.4649 0.22825 10.3907L0 10.3385V10.1172H2.80179V10.3385L2.51132 10.4015C2.25173 10.4649 2.11692 10.6438 2.11692 10.9282C2.10649 11.318 2.10649 11.7183 2.10649 12.1081C2.10649 12.5083 2.10649 12.9086 2.10649 13.3087V14.6464C2.10649 15.3311 2.24137 15.8157 2.52168 16.1213C2.79137 16.4267 3.17541 16.574 3.68396 16.574C4.21324 16.574 4.63853 16.4056 4.93937 16.0792C5.24046 15.7527 5.3857 15.2681 5.3857 14.6254V10.9598C5.3857 10.8231 5.3548 10.6965 5.30268 10.5912C5.25082 10.4859 5.14709 10.4225 5.01221 10.3907L4.76324 10.3385V10.1172H6.36124V10.3385L6.07076 10.4015C5.93569 10.4331 5.85268 10.4967 5.80082 10.5912C5.74895 10.686 5.72823 10.8124 5.72823 10.9492V14.5624C5.72823 15.4366 5.49998 16.1002 5.05371 16.5635C4.60745 17.0268 4.00552 17.2587 3.26878 17.2587L3.26878 17.2587Z" fill="#FEFEFE"/>
<path d="M6.18457 17.0795V16.8476L9.00727 12.2972H7.56468C7.38855 12.2972 7.25348 12.3499 7.16011 12.4449C7.05619 12.5394 6.96301 12.6765 6.88006 12.8345L6.5271 13.5297L6.25716 13.5088L6.33 12.0234H10.4393V12.2343L7.67903 16.7954H9.18366C9.39112 16.7954 9.54691 16.7423 9.65071 16.6372C9.74402 16.5422 9.83739 16.4053 9.92059 16.2264L10.2837 15.4572H10.5534L10.46 17.0795H6.18457V17.0795Z" fill="#FEFEFE"/>
<path d="M12.4734 17.2159L10.7715 17.079V16.8787L10.8752 16.8577C11.145 16.795 11.28 16.6157 11.28 16.331V10.8538C11.28 10.7171 11.2593 10.6008 11.2074 10.5274C11.1553 10.4537 11.0518 10.3901 10.917 10.3589L10.7818 10.3273V10.1375L12.5564 9.68457L12.6913 9.77954L12.6498 11.2647V12.3705C13.1376 12.0335 13.6668 11.8651 14.2376 11.8651C14.8185 11.8651 15.2959 12.0759 15.68 12.5076C16.064 12.9395 16.2507 13.6137 16.2507 14.5089C16.2507 15.1093 16.1574 15.6044 15.9601 16.0046C15.763 16.4154 15.5036 16.7208 15.182 16.9211C14.86 17.1214 14.497 17.2265 14.1026 17.2265C13.8434 17.2265 13.5838 17.1946 13.3245 17.1214C13.065 17.0472 12.8264 16.9421 12.629 16.795L12.4734 17.2159L12.4734 17.2159ZM13.615 16.7632C13.8434 16.7632 14.0403 16.6997 14.2168 16.5628C14.3932 16.426 14.5281 16.2046 14.6214 15.8782C14.715 15.5518 14.7669 15.1093 14.7669 14.5508C14.7669 13.993 14.7254 13.5503 14.6318 13.2344C14.5385 12.9185 14.4139 12.6971 14.248 12.5708C14.0714 12.4444 13.8743 12.3813 13.6357 12.3813C13.3245 12.3813 13.0025 12.4758 12.6809 12.655V16.4997C12.961 16.6787 13.2724 16.7632 13.615 16.7632Z" fill="#FEFEFE"/>
<path d="M19.1455 11.8652C19.5814 11.8652 19.9549 11.9598 20.2663 12.1388C20.5776 12.318 20.8164 12.5709 20.9927 12.8869C21.1587 13.2135 21.2417 13.582 21.2417 13.9931C21.2417 14.0877 21.2417 14.1721 21.2313 14.2456C21.2209 14.3301 21.2106 14.4035 21.1898 14.4775H18.0663C18.0766 15.2045 18.2115 15.7204 18.4711 16.0363C18.7304 16.3522 19.1041 16.5102 19.6022 16.5102C19.9446 16.5102 20.2249 16.4474 20.4427 16.3311C20.6605 16.2153 20.8579 16.0576 21.0342 15.8465L21.2002 16.0047C20.9927 16.3945 20.7124 16.6894 20.3597 16.9C19.9964 17.1215 19.5711 17.2266 19.0833 17.2266C18.5955 17.2266 18.1596 17.1215 17.7861 16.9105C17.4125 16.6999 17.1218 16.3945 16.9143 15.9942C16.6965 15.6046 16.5928 15.1305 16.5928 14.5724C16.5928 13.9931 16.7172 13.5086 16.9662 13.1082C17.205 12.7076 17.5266 12.4025 17.9208 12.1811C18.3049 11.9703 18.72 11.8652 19.1455 11.8652ZM19.0937 12.1706C18.8964 12.1706 18.72 12.2232 18.5748 12.3393C18.4191 12.4551 18.3049 12.6655 18.2219 12.9502C18.1285 13.2451 18.0766 13.656 18.0663 14.1826H19.9238C19.9964 13.4769 19.9756 12.9608 19.8408 12.6449C19.706 12.3285 19.4568 12.1706 19.0937 12.1706Z" fill="#FEFEFE"/>
<path d="M21.4072 17.079V16.8787L21.5631 16.8263C21.8016 16.7526 21.9158 16.5841 21.9158 16.3104V10.8538C21.9158 10.7171 21.8846 10.6008 21.8328 10.5274C21.7809 10.4537 21.6772 10.4008 21.5423 10.3692L21.4072 10.3273V10.127L23.2233 9.68457L23.3581 9.77954L23.3166 11.2647V16.3104C23.3166 16.5946 23.4308 16.7631 23.6696 16.8366L23.8148 16.8787V17.079H21.4072V17.079ZM25.2053 17.079L23.327 14.4455L25.1638 12.7182C25.2574 12.6447 25.3093 12.5497 25.3196 12.4549C25.33 12.36 25.2781 12.2968 25.1431 12.265L24.9771 12.2231V12.023H26.596V12.2231L26.295 12.2968C26.1394 12.3391 26.0147 12.3918 25.9213 12.4657C25.8282 12.5389 25.7138 12.6447 25.579 12.7606L24.4376 13.8453L26.2016 16.2996C26.3157 16.4472 26.4093 16.5628 26.5026 16.6368C26.596 16.7208 26.7101 16.795 26.8658 16.8472L26.9695 16.8787V17.079H25.2053L25.2053 17.079Z" fill="#FEFEFE"/>
<path d="M28.2979 11.2854C28.0695 11.2854 27.8724 11.2119 27.7168 11.0645C27.5609 10.9166 27.478 10.7271 27.478 10.5062C27.478 10.2743 27.5609 10.0846 27.7168 9.93734C27.8724 9.80043 28.0695 9.72656 28.2979 9.72656C28.5261 9.72656 28.7232 9.80043 28.8791 9.93734C29.0347 10.0846 29.1177 10.2743 29.1177 10.5062C29.1177 10.7271 29.0347 10.9166 28.8791 11.0645C28.7232 11.2119 28.5261 11.2854 28.2979 11.2854ZM27.1045 17.0789V16.8786L27.2601 16.8365C27.395 16.7948 27.4883 16.7312 27.5402 16.6467C27.5921 16.5627 27.613 16.4471 27.6232 16.3102V14.3719C27.6232 14.1508 27.6232 13.9505 27.6232 13.7607C27.6232 13.5817 27.6232 13.392 27.613 13.1921C27.613 13.055 27.5921 12.9394 27.5402 12.8549C27.4883 12.7813 27.3846 12.7286 27.2497 12.697L27.1045 12.6652V12.4757L28.9206 11.8649L29.045 11.9807L29.0137 13.4766V16.3203C29.0137 16.4577 29.045 16.5732 29.0969 16.6577C29.1488 16.7417 29.2318 16.8051 29.3666 16.847L29.4807 16.8786V17.0789H27.1045Z" fill="#FEFEFE"/>
<path d="M31.5044 17.2266C31.1722 17.2266 30.8714 17.1948 30.6119 17.1215C30.3421 17.0371 30.0828 16.9423 29.844 16.8054V15.5625H30.1243L30.4357 16.1627C30.5703 16.4262 30.7158 16.6159 30.8922 16.742C31.0584 16.8684 31.2762 16.9318 31.5357 16.9318C31.8573 16.9318 32.1167 16.8578 32.314 16.7107C32.5109 16.5735 32.6044 16.3733 32.6044 16.1313C32.6044 15.91 32.5318 15.7204 32.3864 15.5836C32.2411 15.4464 31.9818 15.3096 31.6081 15.1937L31.1517 15.0463C30.7469 14.9197 30.4253 14.7304 30.1865 14.467C29.9479 14.214 29.8232 13.8979 29.8232 13.5086C29.8232 13.2029 29.9064 12.9292 30.062 12.6763C30.2176 12.4341 30.4564 12.234 30.7573 12.0866C31.0584 11.9387 31.4318 11.8652 31.8677 11.8652C32.1478 11.8652 32.4177 11.8968 32.6563 11.9598C32.8949 12.0337 33.1234 12.1285 33.3515 12.2445L33.2893 13.3712H33.0194L32.6978 12.7712C32.5837 12.5499 32.48 12.392 32.3658 12.297C32.2515 12.2129 32.0752 12.1706 31.8365 12.1706C31.5874 12.1706 31.3696 12.234 31.1828 12.3601C30.9857 12.4971 30.8922 12.6763 30.8922 12.9081C30.8922 13.1293 30.9754 13.298 31.1308 13.4348C31.2866 13.5715 31.5459 13.7084 31.8988 13.8244L32.3451 13.9613C32.8534 14.1193 33.2064 14.3406 33.4242 14.6039C33.6423 14.8673 33.746 15.1937 33.746 15.5625C33.746 16.0576 33.5486 16.458 33.1649 16.7633C32.7704 17.0684 32.2204 17.2266 31.5044 17.2266V17.2266Z" fill="#FEFEFE"/>
<path d="M35.9463 17.2263C35.521 17.2263 35.1785 17.1212 34.9397 16.8997C34.6907 16.6891 34.5662 16.3413 34.5662 15.857C34.5662 15.6883 34.5662 15.5306 34.5766 15.3726C34.5766 15.2253 34.5766 15.046 34.5766 14.846V12.3493H33.8398V12.1179L34.1199 12.0758C34.317 12.0442 34.4936 11.9807 34.6388 11.886C34.7737 11.791 34.9085 11.6647 35.0228 11.5067L35.6971 10.5586H36.0086L35.9774 12.0229H37.1605V12.3493H35.9671V15.9415C35.9671 16.194 36.0189 16.3835 36.133 16.5099C36.237 16.6366 36.3719 16.6996 36.5275 16.6996C36.6625 16.6996 36.787 16.6684 36.9012 16.5945C37.0152 16.5312 37.119 16.4471 37.2331 16.3308L37.368 16.4892C37.2331 16.7206 37.0568 16.8997 36.8179 17.026C36.5795 17.1634 36.2887 17.2263 35.9463 17.2263V17.2263Z" fill="#FEFEFE"/>
<path d="M38.9865 17.2266C38.5921 17.2266 38.2601 17.1108 37.9902 16.8789C37.7101 16.658 37.5752 16.3311 37.5752 15.8996C37.5752 15.5625 37.7412 15.2466 38.0628 14.9619C38.3846 14.6775 38.8827 14.4775 39.578 14.3406C39.6921 14.309 39.8373 14.2877 39.9929 14.2564C40.1487 14.2348 40.294 14.214 40.4496 14.1826V13.4348C40.4496 12.9608 40.3874 12.6236 40.2733 12.4446C40.1591 12.2652 39.9722 12.1706 39.7128 12.1706H39.6818C39.5259 12.1706 39.4014 12.2232 39.3083 12.318C39.2147 12.4238 39.1525 12.5922 39.1213 12.8235L39.0902 12.9608C39.0695 13.2451 38.9969 13.4453 38.8724 13.5715C38.7479 13.7084 38.5921 13.7718 38.4053 13.7718C38.229 13.7718 38.0939 13.7189 37.9798 13.6033C37.8657 13.498 37.8034 13.3609 37.8034 13.1816C37.8034 12.8974 37.8968 12.6552 38.0939 12.4551C38.2912 12.255 38.5505 12.1076 38.8724 12.0127C39.1939 11.9179 39.5363 11.8652 39.9099 11.8652C40.5222 11.8652 40.9996 12.0127 41.3214 12.318C41.643 12.6236 41.809 13.1082 41.809 13.7928V16.142C41.809 16.4474 41.9544 16.5948 42.2345 16.5948H42.4731L42.577 16.7107C42.4523 16.8684 42.3175 16.9952 42.1619 17.0897C42.0063 17.1737 41.7986 17.216 41.5393 17.216C41.2384 17.216 41.01 17.1426 40.8336 16.9952C40.6573 16.8578 40.5326 16.6687 40.4807 16.4262C40.2629 16.6687 40.0448 16.8578 39.8269 17.0053C39.6091 17.1529 39.329 17.2266 38.9865 17.2266V17.2266ZM39.5884 16.5523C39.7232 16.5523 39.8581 16.5209 39.9828 16.458C40.1072 16.3945 40.2629 16.2893 40.4496 16.142V14.4562C40.2733 14.488 40.0865 14.5198 39.8998 14.5619C39.5987 14.6354 39.3599 14.7616 39.1836 14.9513C38.9969 15.1411 38.9035 15.394 38.9035 15.7204C38.9035 16.0047 38.9657 16.2048 39.1006 16.3416C39.2251 16.479 39.3913 16.5523 39.5884 16.5523Z" fill="#FEFEFE"/>
<path d="M42.5557 17.0792V16.8789L42.7217 16.8368C42.9501 16.7633 43.0642 16.5948 43.0642 16.3206V13.2135C43.0539 13.0658 43.0331 12.9502 42.9916 12.8656C42.9501 12.7923 42.8568 12.7394 42.7217 12.7076L42.5557 12.6655V12.476L44.2369 11.8652L44.3614 11.981L44.434 12.6343C44.6831 12.413 44.9632 12.2232 45.2747 12.0761C45.5755 11.9387 45.8766 11.8652 46.1774 11.8652C46.6341 11.8652 46.9868 11.9914 47.236 12.2445C47.4746 12.4971 47.599 12.8869 47.599 13.403V16.3311C47.599 16.6053 47.7235 16.7738 47.9727 16.8473L48.0868 16.8789V17.0792H45.7V16.8789L45.8558 16.8368C46.084 16.7633 46.1981 16.5843 46.1981 16.3206V13.1924C46.1981 12.9502 46.1463 12.7713 46.0425 12.6552C45.9388 12.5391 45.7625 12.4865 45.5237 12.4865C45.1813 12.4865 44.8284 12.6343 44.4653 12.9397V16.3311C44.4653 16.6053 44.5898 16.7738 44.8284 16.8473L44.9321 16.8789V17.0792H42.5557H42.5557Z" fill="#FEFEFE"/>
<path d="M48.6996 9.37891C48.9489 9.37891 49.146 9.46336 49.3017 9.64258C49.4573 9.82162 49.5297 10.0636 49.5297 10.3692C49.5297 10.759 49.4159 11.117 49.1978 11.4539C48.9799 11.7911 48.6996 12.0442 48.3781 12.202L48.2743 12.023C48.4092 11.9073 48.5337 11.77 48.6478 11.6121C48.7518 11.4539 48.8348 11.2538 48.897 11.0224L48.6789 10.9591C48.4611 10.8856 48.2847 10.78 48.1602 10.6431C48.0252 10.5063 47.9629 10.3272 47.9629 10.127C47.9629 9.90588 48.0357 9.71607 48.1808 9.57923C48.3262 9.44232 48.5026 9.37891 48.6996 9.37891Z" fill="#FEFEFE"/>
<path d="M50.8364 17.2266C50.5042 17.2266 50.2034 17.1948 49.9439 17.1215C49.6741 17.0371 49.4148 16.9423 49.176 16.8054V15.5625H49.4563L49.7675 16.1627C49.9024 16.4262 50.0478 16.6159 50.2242 16.742C50.3901 16.8684 50.6082 16.9318 50.8676 16.9318C51.1891 16.9318 51.4487 16.8578 51.6458 16.7107C51.8429 16.5735 51.9363 16.3733 51.9363 16.1313C51.9363 15.91 51.8639 15.7204 51.7184 15.5836C51.5732 15.4464 51.3138 15.3096 50.9401 15.1937L50.4837 15.0463C50.0787 14.9197 49.7571 14.7304 49.5185 14.467C49.2797 14.214 49.1553 13.8979 49.1553 13.5086C49.1553 13.2029 49.2382 12.9292 49.3938 12.6763C49.5497 12.4341 49.7883 12.234 50.0893 12.0866C50.3901 11.9387 50.7638 11.8652 51.1997 11.8652C51.4798 11.8652 51.7497 11.8968 51.9883 11.9598C52.2269 12.0337 52.4551 12.1285 52.6836 12.2445L52.6213 13.3712H52.3514L52.0298 12.7712C51.9158 12.5499 51.812 12.392 51.6977 12.297C51.5836 12.2129 51.4072 12.1706 51.1684 12.1706C50.9194 12.1706 50.7016 12.234 50.5146 12.3601C50.3176 12.4971 50.2242 12.6763 50.2242 12.9081C50.2242 13.1293 50.3071 13.298 50.4627 13.4348C50.6183 13.5715 50.8779 13.7084 51.2309 13.8244L51.6769 13.9613C52.1854 14.1193 52.5381 14.3406 52.7562 14.6039C52.9741 14.8673 53.0778 15.1937 53.0778 15.5625C53.0778 16.0576 52.8807 16.458 52.4966 16.7633C52.1024 17.0684 51.5524 17.2266 50.8364 17.2266V17.2266Z" fill="#FEFEFE"/>
<path d="M62.3746 16.671C61.9867 16.671 61.6332 16.5835 61.3141 16.4085C60.9951 16.242 60.7538 15.9884 60.5728 15.656C60.3918 15.332 60.2969 14.9295 60.2969 14.4572C60.2969 13.9847 60.4004 13.5819 60.5986 13.2496C60.797 12.917 61.0727 12.6632 61.409 12.4794C61.7453 12.3046 62.1073 12.2168 62.5125 12.2168C62.8402 12.2168 63.1159 12.2694 63.3487 12.3833C63.5814 12.4967 63.7539 12.6371 63.8745 12.8032C63.9953 12.9782 64.0556 13.1623 64.0556 13.3546C64.0556 13.5207 64.0126 13.6431 63.9177 13.7311C63.8229 13.8182 63.6936 13.862 63.5471 13.862C63.3832 13.862 63.254 13.8007 63.1589 13.687C63.0556 13.5736 62.9953 13.4249 62.978 13.2408C62.9694 13.127 62.978 13.0219 62.9867 12.9433C62.9953 12.8644 62.9867 12.7856 62.978 12.7071C62.9521 12.6106 62.9178 12.5406 62.8661 12.5057C62.8056 12.4708 62.728 12.4535 62.6333 12.4535C62.2711 12.4535 61.9953 12.6022 61.8056 12.8907C61.6074 13.1886 61.5125 13.6694 61.5125 14.326C61.5125 14.8948 61.6161 15.3235 61.8315 15.6297C62.047 15.9361 62.3746 16.0849 62.8229 16.0849C63.09 16.0849 63.3057 16.0323 63.4781 15.9272C63.6504 15.8309 63.8055 15.6822 63.9521 15.4895L64.0902 15.5946C63.9437 15.9445 63.728 16.2071 63.4349 16.3912C63.1332 16.5835 62.7796 16.671 62.3746 16.671V16.671Z" fill="#FEFEFE"/>
<path d="M64.1504 16.5491V16.3828L64.2799 16.3481C64.4694 16.2865 64.5643 16.1377 64.5643 15.9104C64.5643 15.7088 64.5643 15.5075 64.5729 15.3065C64.5729 15.1054 64.5729 14.9127 64.5729 14.7114V11.3864C64.5729 11.2636 64.5558 11.1677 64.5126 11.1063C64.4694 11.0448 64.3918 11.0014 64.2799 10.9751L64.1504 10.9398V10.7737L65.6591 10.4062L65.7713 10.4848L65.7367 11.7188V15.9104C65.7454 16.0241 65.7713 16.1204 65.8143 16.1903C65.8575 16.2691 65.9265 16.3215 66.0384 16.3481L66.1592 16.3828V16.5491H64.1504V16.5491Z" fill="#FEFEFE"/>
<path d="M67.8574 16.6711C67.6333 16.6711 67.4264 16.6275 67.2453 16.5399C67.0643 16.461 66.9177 16.321 66.8144 16.1199C66.7023 15.9272 66.6506 15.6737 66.6593 15.3499L66.685 13.1531C66.685 13.0219 66.6679 12.9344 66.6246 12.8732C66.5816 12.8122 66.5127 12.7769 66.4092 12.7508L66.3057 12.7159V12.5584L67.7798 12.2695L67.8747 12.3656L67.8315 13.5998V15.5859C67.8315 15.7871 67.8833 15.9272 67.9955 16.0148C68.0988 16.1109 68.2282 16.155 68.3919 16.155C68.5557 16.155 68.7109 16.1287 68.8489 16.0758C68.9782 16.0323 69.1161 15.9538 69.2626 15.8573L69.2886 13.1624C69.2886 13.0312 69.2712 12.9344 69.2369 12.8822C69.1937 12.8296 69.1247 12.7857 69.0212 12.7593L68.9265 12.7335V12.5758L70.3661 12.2695L70.461 12.3656L70.4353 13.5998V15.8924C70.4353 16.0148 70.4523 16.1109 70.4867 16.1811C70.5126 16.2598 70.5818 16.3123 70.6937 16.3476L70.8059 16.3823V16.5486L69.3488 16.6358L69.2712 16.085C69.073 16.251 68.866 16.3912 68.6333 16.5046C68.4005 16.6185 68.1418 16.6711 67.8574 16.6711L67.8574 16.6711Z" fill="#FEFEFE"/>
<path d="M72.401 16.6629L70.9873 16.5491V16.3828L71.0733 16.3654C71.2977 16.3128 71.4096 16.164 71.4096 15.9277V11.3774C71.4096 11.2636 71.3926 11.1677 71.3493 11.1063C71.3061 11.0448 71.2201 10.9926 71.1079 10.9661L70.9958 10.9398V10.7825L72.4701 10.4062L72.582 10.4848L72.5477 11.7188V12.6377C72.9527 12.3578 73.3925 12.2174 73.8667 12.2174C74.3495 12.2174 74.7461 12.3924 75.0649 12.7513C75.384 13.1102 75.5393 13.67 75.5393 14.4141C75.5393 14.9127 75.4616 15.3241 75.2978 15.6566C75.1338 15.9977 74.9186 16.2515 74.6512 16.4178C74.3839 16.5841 74.0822 16.6716 73.7545 16.6716C73.5391 16.6716 73.3236 16.6453 73.1079 16.5841C72.8924 16.5229 72.6943 16.4354 72.5304 16.3128L72.401 16.6629V16.6629ZM73.3493 16.2865C73.5391 16.2865 73.7029 16.2343 73.8494 16.1204C73.9959 16.0065 74.1081 15.8229 74.1857 15.5513C74.2632 15.2804 74.3063 14.9127 74.3063 14.4488C74.3063 13.9852 74.2719 13.6178 74.1943 13.3552C74.1168 13.0927 74.0132 12.9086 73.8753 12.8038C73.7288 12.6987 73.565 12.6465 73.3666 12.6465C73.1079 12.6465 72.8407 12.7252 72.5736 12.8737V16.068C72.8064 16.2167 73.0649 16.2865 73.3493 16.2865Z" fill="#FEFEFE"/>
</g>
<defs>
<linearGradient id="paint0_linear_8438_12745" x1="33.9795" y1="31.9999" x2="69.8338" y2="29.9819" gradientUnits="userSpaceOnUse">
<stop stop-color="#A5834D"/>
<stop offset="0.392137" stop-color="#FFC876"/>
<stop offset="1" stop-color="#FFC876"/>
</linearGradient>
<clipPath id="clip0_8438_12745">
<rect width="76" height="32" fill="white"/>
</clipPath>
</defs>
</svg>